{
copyright = "Copyright (c) 2004-2005 by Johan Winge";
customParameters = (
{
name = glyphOrder;
value = (
    ".notdef",
    uni0000,
    uni000D,
    space,
    exclam,
    numbersign,
    dollar,
    ampersand,
    period,
    zero,
    one,
    two,
    three,
    four,
    five,
    six,
    seven,
    eight,
    nine,
    less,
    at,
    C,
    D,
    E,
    F,
    H,
    J,
    M,
    N,
    Q,
    R,
    U,
    V,
    W,
    Y,
    asciicircum,
    b,
    e,
    h,
    j,
    n,
    q,
    r,
    t,
    u,
    w,
    x,
    y,
    z,
    uni00A0,
    cent,
    guillemotleft,
    registered,
    guillemotright,
    questiondown,
    Adieresis,
    AE,
    Ccedilla,
    Oslash,
    Ugrave,
    Uacute,
    Ucircumflex,
    agrave,
    aacute,
    acircumflex,
    atilde,
    egrave,
    eacute,
    ecircumflex,
    edieresis,
    Scaron,
    scaron,
    Ydieresis,
    florin,
    uni2000,
    uni2001,
    uni2002,
    uni2003,
    uni2004,
    uni2005,
    uni2006,
    uni2007,
    uni2008,
    uni2009,
    uni200A,
    quotesinglbase,
    quotedblbase,
    dagger,
    bullet,
    ellipsis,
    uni202F,
    perthousand,
    guilsinglleft,
    uni205F,
    uniE000
);}
);
date = "2012-09-13 11:44:29 -0700";
familyName = "Tengwar Annatar Alt";
fontMaster = (
{
ascender = 1638;
capHeight = 700;
customParameters = (
{
name = TypoAscender;
value = 1638;
},
{
name = TypoDescender;
value = "-410";
},
{
name = postscriptUnderlinePosition;
value = "-200";
}
);
descender = "-410";
id = "79C964D5-2A53-42D4-9C27-6B5AFB4964EF";
weightValue = 400;
widthValue = 5;
xHeight = 500;
}
);
glyphs = (
{
glyphname = exclam;
layers = (
{
layerId = "79C964D5-2A53-42D4-9C27-6B5AFB4964EF";
name = Regular;
paths = (
{
closed = 1;
nodes = (
"-1657 -2216 OFFCURVE",
"-1629 -2180 OFFCURVE",
"-1573 -2131 CURVE SMOOTH",
"-1519 -2081 LINE SMOOTH",
"-1478 -2045 OFFCURVE",
"-1411 -1980 OFFCURVE",
"-1317 -1886 CURVE SMOOTH",
"-1162 -1727 LINE SMOOTH",
"-727 -1266 OFFCURVE",
"-378 -768 OFFCURVE",
"-113 -235 CURVE SMOOTH",
"-76 -159 OFFCURVE",
"-40 -83 OFFCURVE",
"-6 -6 CURVE SMOOTH",
"42 101 OFFCURVE",
"95 238 OFFCURVE",
"153 403 CURVE SMOOTH",
"375 1039 LINE SMOOTH",
"543 1525 OFFCURVE",
"722 1892 OFFCURVE",
"911 2139 CURVE SMOOTH",
"986 2237 OFFCURVE",
"1075 2332 OFFCURVE",
"1179 2425 CURVE SMOOTH",
"1219 2461 OFFCURVE",
"1252 2479 OFFCURVE",
"1278 2479 CURVE",
"1285 2478 OFFCURVE",
"1289 2473 OFFCURVE",
"1289 2465 CURVE SMOOTH",
"1289 2446 OFFCURVE",
"1265 2413 OFFCURVE",
"1216 2365 CURVE SMOOTH",
"1164 2314 OFFCURVE",
"1134 2283 OFFCURVE",
"1125 2274 CURVE",
"972 2107 OFFCURVE",
"832 1874 OFFCURVE",
"706 1575 CURVE SMOOTH",
"642 1415 LINE SMOOTH",
"608 1326 OFFCURVE",
"550 1161 OFFCURVE",
"467 920 CURVE SMOOTH",
"370 641 LINE",
"355 596 LINE",
"355 601 OFFCURVE",
"399 640 OFFCURVE",
"488 711 CURVE SMOOTH",
"509 728 OFFCURVE",
"526 741 OFFCURVE",
"537 749 CURVE SMOOTH",
"653 833 OFFCURVE",
"753 879 OFFCURVE",
"836 886 CURVE SMOOTH",
"848 887 OFFCURVE",
"861 888 OFFCURVE",
"875 888 CURVE SMOOTH",
"888 888 OFFCURVE",
"897 888 OFFCURVE",
"903 887 CURVE",
"934 887 OFFCURVE",
"970 875 OFFCURVE",
"1013 852 CURVE SMOOTH",
"1103 804 OFFCURVE",
"1152 730 OFFCURVE",
"1161 630 CURVE SMOOTH",
"1162 620 OFFCURVE",
"1162 610 OFFCURVE",
"1162 600 CURVE SMOOTH",
"1162 441 OFFCURVE",
"1033 223 OFFCURVE",
"753 52 CURVE SMOOTH",
"702 21 OFFCURVE",
"669 5 OFFCURVE",
"654 5 CURVE SMOOTH",
"643 5 OFFCURVE",
"638 9 OFFCURVE",
"637 18 CURVE",
"637 58 OFFCURVE",
"715 130 OFFCURVE",
"774 159 CURVE SMOOTH",
"911 228 OFFCURVE",
"987 348 OFFCURVE",
"987 469 CURVE SMOOTH",
"987 577 OFFCURVE",
"940 653 OFFCURVE",
"847 698 CURVE SMOOTH",
"805 719 OFFCURVE",
"765 729 OFFCURVE",
"726 729 CURVE SMOOTH",
"671 729 OFFCURVE",
"606 704 OFFCURVE",
"531 655 CURVE SMOOTH",
"416 579 OFFCURVE",
"327 473 OFFCURVE",
"262 336 CURVE SMOOTH",
"250 312 OFFCURVE",
"235 277 OFFCURVE",
"218 232 CURVE SMOOTH",
"191 163 LINE SMOOTH",
"36 -216 OFFCURVE",
"-189 -612 OFFCURVE",
"-484 -1024 CURVE SMOOTH",
"-562 -1133 OFFCURVE",
"-640 -1236 OFFCURVE",
"-719 -1333 CURVE SMOOTH",
"-833 -1470 LINE",
"-1066 -1731 LINE",
"-1110 -1777 LINE SMOOTH",
"-1170 -1844 OFFCURVE",
"-1283 -1955 OFFCURVE",
"-1449 -2110 CURVE SMOOTH",
"-1560 -2212 LINE",
"-1593 -2240 OFFCURVE",
"-1621 -2254 OFFCURVE",
"-1642 -2254 CURVE SMOOTH",
"-1652 -2254 OFFCURVE",
"-1657 -2250 OFFCURVE",
"-1657 -2241 CURVE SMOOTH"
);
}
);
width = 1306;
}
);
unicode = 0021;
},
{
glyphname = numbersign;
layers = (
{
layerId = "79C964D5-2A53-42D4-9C27-6B5AFB4964EF";
name = Regular;
paths = (
{
closed = 1;
nodes = (
"-1061 1770 OFFCURVE",
"-1033 1798 OFFCURVE",
"-1004 1798 CURVE SMOOTH",
"-901 1798 OFFCURVE",
"-863 1570 OFFCURVE",
"-863 1475 CURVE SMOOTH",
"-863 1396 OFFCURVE",
"-876 1356 OFFCURVE",
"-902 1356 CURVE SMOOTH",
"-915 1356 OFFCURVE",
"-923 1362 OFFCURVE",
"-928 1375 CURVE",
"-959 1482 LINE",
"-976 1533 OFFCURVE",
"-1000 1588 OFFCURVE",
"-1030 1649 CURVE SMOOTH",
"-1048 1684 OFFCURVE",
"-1058 1708 OFFCURVE",
"-1060 1723 CURVE",
"-1061 1727 OFFCURVE",
"-1061 1731 OFFCURVE",
"-1061 1734 CURVE SMOOTH"
);
},
{
closed = 1;
nodes = (
"-906 1886 OFFCURVE",
"-894 1907 OFFCURVE",
"-871 1918 CURVE",
"-863 1921 OFFCURVE",
"-855 1923 OFFCURVE",
"-847 1923 CURVE SMOOTH",
"-778 1923 OFFCURVE",
"-750 1816 OFFCURVE",
"-750 1713 CURVE SMOOTH",
"-750 1602 OFFCURVE",
"-761 1527 OFFCURVE",
"-782 1489 CURVE",
"-790 1476 OFFCURVE",
"-799 1469 OFFCURVE",
"-808 1469 CURVE SMOOTH",
"-824 1469 OFFCURVE",
"-835 1483 OFFCURVE",
"-840 1510 CURVE",
"-862 1671 LINE",
"-870 1716 OFFCURVE",
"-881 1759 OFFCURVE",
"-894 1802 CURVE SMOOTH",
"-907 1842 OFFCURVE",
"-906 1838 OFFCURVE",
"-906 1855 CURVE SMOOTH"
);
},
{
closed = 1;
nodes = (
"-760 1448 OFFCURVE",
"-747 1537 OFFCURVE",
"-722 1677 CURVE SMOOTH",
"-709 1756 OFFCURVE",
"-705 1769 OFFCURVE",
"-677 1776 CURVE",
"-674 1777 OFFCURVE",
"-672 1777 OFFCURVE",
"-669 1777 CURVE SMOOTH",
"-646 1777 OFFCURVE",
"-632 1766 OFFCURVE",
"-626 1743 CURVE",
"-625 1738 OFFCURVE",
"-625 1733 OFFCURVE",
"-625 1728 CURVE SMOOTH",
"-625 1702 OFFCURVE",
"-641 1627 OFFCURVE",
"-673 1502 CURVE SMOOTH",
"-688 1444 OFFCURVE",
"-698 1408 OFFCURVE",
"-705 1395 CURVE SMOOTH",
"-712 1382 OFFCURVE",
"-721 1376 OFFCURVE",
"-734 1376 CURVE SMOOTH",
"-747 1376 OFFCURVE",
"-755 1384 OFFCURVE",
"-758 1399 CURVE",
"-759 1402 OFFCURVE",
"-760 1406 OFFCURVE",
"-760 1410 CURVE SMOOTH"
);
},
{
closed = 1;
nodes = (
"-643 1521 OFFCURVE",
"-630 1582 OFFCURVE",
"-604 1684 CURVE SMOOTH",
"-597 1712 OFFCURVE",
"-592 1733 OFFCURVE",
"-587 1746 CURVE SMOOTH",
"-553 1842 OFFCURVE",
"-512 1891 OFFCURVE",
"-464 1894 CURVE",
"-437 1894 OFFCURVE",
"-419 1882 OFFCURVE",
"-410 1858 CURVE SMOOTH",
"-407 1850 OFFCURVE",
"-405 1842 OFFCURVE",
"-405 1833 CURVE SMOOTH",
"-405 1816 OFFCURVE",
"-410 1800 OFFCURVE",
"-420 1784 CURVE SMOOTH",
"-464 1713 OFFCURVE",
"-503 1645 OFFCURVE",
"-538 1578 CURVE SMOOTH",
"-583 1489 LINE",
"-592 1476 OFFCURVE",
"-603 1469 OFFCURVE",
"-614 1469 CURVE SMOOTH",
"-632 1469 OFFCURVE",
"-642 1480 OFFCURVE",
"-643 1501 CURVE"
);
},
{
closed = 1;
nodes = (
"-574 1511 OFFCURVE",
"-458 1705 OFFCURVE",
"-378 1746 CURVE SMOOTH",
"-367 1752 OFFCURVE",
"-357 1755 OFFCURVE",
"-348 1755 CURVE SMOOTH",
"-323 1755 OFFCURVE",
"-305 1744 OFFCURVE",
"-294 1721 CURVE SMOOTH",
"-290 1713 OFFCURVE",
"-288 1704 OFFCURVE",
"-288 1695 CURVE SMOOTH",
"-288 1668 OFFCURVE",
"-309 1634 OFFCURVE",
"-350 1592 CURVE SMOOTH",
"-428 1513 LINE SMOOTH",
"-467 1471 OFFCURVE",
"-493 1430 OFFCURVE",
"-507 1391 CURVE SMOOTH",
"-516 1367 OFFCURVE",
"-528 1355 OFFCURVE",
"-544 1355 CURVE SMOOTH",
"-559 1355 OFFCURVE",
"-569 1364 OFFCURVE",
"-573 1382 CURVE SMOOTH",
"-574 1387 OFFCURVE",
"-574 1391 OFFCURVE",
"-574 1396 CURVE SMOOTH"
);
}
);
width = 0;
}
);
unicode = 0023;
},
{
glyphname = dollar;
layers = (
{
layerId = "79C964D5-2A53-42D4-9C27-6B5AFB4964EF";
name = Regular;
paths = (
{
closed = 1;
nodes = (
"-1038 1139 OFFCURVE",
"-1022 1158 OFFCURVE",
"-989 1184 CURVE SMOOTH",
"-909 1247 LINE SMOOTH",
"-768 1360 OFFCURVE",
"-614 1475 OFFCURVE",
"-447 1594 CURVE SMOOTH",
"-308 1693 OFFCURVE",
"-228 1742 OFFCURVE",
"-207 1742 CURVE SMOOTH",
"-184 1742 OFFCURVE",
"-169 1732 OFFCURVE",
"-162 1712 CURVE",
"-160 1707 OFFCURVE",
"-159 1701 OFFCURVE",
"-159 1696 CURVE SMOOTH",
"-159 1678 OFFCURVE",
"-167 1662 OFFCURVE",
"-183 1648 CURVE SMOOTH",
"-303 1543 OFFCURVE",
"-985 1105 OFFCURVE",
"-1013 1105 CURVE",
"-1028 1108 OFFCURVE",
"-1036 1116 OFFCURVE",
"-1038 1127 CURVE"
);
},
{
closed = 1;
nodes = (
"-690 1139 OFFCURVE",
"-674 1157 OFFCURVE",
"-643 1182 CURVE SMOOTH",
"-561 1247 LINE SMOOTH",
"-439 1344 OFFCURVE",
"-291 1455 OFFCURVE",
"-116 1580 CURVE SMOOTH",
"35 1688 OFFCURVE",
"121 1742 OFFCURVE",
"141 1742 CURVE SMOOTH",
"164 1742 OFFCURVE",
"179 1732 OFFCURVE",
"186 1713 CURVE SMOOTH",
"188 1708 OFFCURVE",
"189 1702 OFFCURVE",
"189 1696 CURVE SMOOTH",
"189 1679 OFFCURVE",
"181 1663 OFFCURVE",
"165 1648 CURVE SMOOTH",
"45 1543 OFFCURVE",
"-637 1105 OFFCURVE",
"-665 1105 CURVE",
"-680 1108 OFFCURVE",
"-688 1115 OFFCURVE",
"-690 1127 CURVE"
);
}
);
width = 0;
}
);
unicode = 0024;
},
{
glyphname = ampersand;
layers = (
{
layerId = "79C964D5-2A53-42D4-9C27-6B5AFB4964EF";
name = Regular;
paths = (
{
closed = 1;
nodes = (
"-1643 768 OFFCURVE",
"-1627 790 OFFCURVE",
"-1595 819 CURVE SMOOTH",
"-1584 829 OFFCURVE",
"-1573 838 OFFCURVE",
"-1562 845 CURVE",
"-1553 852 OFFCURVE",
"-1458 904 OFFCURVE",
"-1278 1001 CURVE SMOOTH",
"-919 1198 LINE SMOOTH",
"-766 1285 OFFCURVE",
"-659 1360 OFFCURVE",
"-596 1423 CURVE SMOOTH",
"-531 1488 OFFCURVE",
"-499 1552 OFFCURVE",
"-499 1613 CURVE SMOOTH",
"-499 1726 OFFCURVE",
"-594 1797 OFFCURVE",
"-694 1797 CURVE SMOOTH",
"-757 1797 OFFCURVE",
"-795 1777 OFFCURVE",
"-807 1738 CURVE SMOOTH",
"-810 1727 OFFCURVE",
"-812 1715 OFFCURVE",
"-812 1701 CURVE SMOOTH",
"-812 1636 OFFCURVE",
"-761 1587 OFFCURVE",
"-712 1587 CURVE SMOOTH",
"-703 1587 LINE SMOOTH",
"-696 1587 OFFCURVE",
"-683 1592 OFFCURVE",
"-664 1602 CURVE SMOOTH",
"-655 1607 OFFCURVE",
"-647 1610 OFFCURVE",
"-641 1610 CURVE SMOOTH",
"-635 1610 OFFCURVE",
"-631 1606 OFFCURVE",
"-630 1599 CURVE",
"-630 1560 OFFCURVE",
"-738 1463 OFFCURVE",
"-819 1463 CURVE SMOOTH",
"-911 1463 OFFCURVE",
"-946 1541 OFFCURVE",
"-946 1602 CURVE SMOOTH",
"-946 1715 OFFCURVE",
"-803 1870 OFFCURVE",
"-654 1910 CURVE SMOOTH",
"-630 1917 OFFCURVE",
"-607 1920 OFFCURVE",
"-584 1920 CURVE SMOOTH",
"-523 1920 OFFCURVE",
"-476 1905 OFFCURVE",
"-442 1874 CURVE",
"-429 1861 OFFCURVE",
"-420 1854 OFFCURVE",
"-416 1852 CURVE",
"-367 1879 OFFCURVE",
"-329 1895 OFFCURVE",
"-300 1900 CURVE SMOOTH",
"-281 1903 OFFCURVE",
"-260 1905 OFFCURVE",
"-237 1905 CURVE SMOOTH",
"-110 1905 OFFCURVE",
"-31 1811 OFFCURVE",
"-30 1703 CURVE SMOOTH",
"-30 1560 OFFCURVE",
"-153 1394 OFFCURVE",
"-398 1207 CURVE SMOOTH",
"-468 1154 OFFCURVE",
"-545 1101 OFFCURVE",
"-629 1048 CURVE SMOOTH",
"-957 843 OFFCURVE",
"-1129 741 OFFCURVE",
"-1144 741 CURVE SMOOTH",
"-1151 741 OFFCURVE",
"-1155 744 OFFCURVE",
"-1155 750 CURVE SMOOTH",
"-1155 811 OFFCURVE",
"-1060 862 OFFCURVE",
"-747 1045 CURVE SMOOTH",
"-546 1163 OFFCURVE",
"-401 1263 OFFCURVE",
"-311 1346 CURVE SMOOTH",
"-294 1362 OFFCURVE",
"-278 1378 OFFCURVE",
"-263 1394 CURVE SMOOTH",
"-197 1464 OFFCURVE",
"-164 1533 OFFCURVE",
"-164 1600 CURVE SMOOTH",
"-164 1715 OFFCURVE",
"-256 1783 OFFCURVE",
"-359 1783 CURVE SMOOTH",
"-364 1783 OFFCURVE",
"-368 1783 OFFCURVE",
"-371 1782 CURVE",
"-373 1782 OFFCURVE",
"-374 1781 OFFCURVE",
"-374 1780 CURVE",
"-366 1739 LINE",
"-365 1731 OFFCURVE",
"-365 1723 OFFCURVE",
"-365 1715 CURVE SMOOTH",
"-365 1573 OFFCURVE",
"-491 1414 OFFCURVE",
"-743 1239 CURVE SMOOTH",
"-814 1189 OFFCURVE",
"-896 1138 OFFCURVE",
"-987 1087 CURVE SMOOTH",
"-1236 946 OFFCURVE",
"-1429 840 OFFCURVE",
"-1566 770 CURVE SMOOTH",
"-1605 751 OFFCURVE",
"-1626 741 OFFCURVE",
"-1630 741 CURVE SMOOTH",
"-1639 741 OFFCURVE",
"-1643 744 OFFCURVE",
"-1643 751 CURVE SMOOTH"
);
}
);
width = 0;
}
);
unicode = 0026;
},
{
glyphname = period;
layers = (
{
layerId = "79C964D5-2A53-42D4-9C27-6B5AFB4964EF";
name = Regular;
paths = (
{
closed = 1;
nodes = (
"17 575 OFFCURVE",
"240 784 OFFCURVE",
"457 860 CURVE SMOOTH",
"512 879 OFFCURVE",
"563 888 OFFCURVE",
"610 888 CURVE SMOOTH",
"811 888 OFFCURVE",
"921 731 OFFCURVE",
"921 546 CURVE SMOOTH",
"921 435 OFFCURVE",
"876 326 OFFCURVE",
"785 220 CURVE SMOOTH",
"775 208 LINE",
"804 202 OFFCURVE",
"838 192 OFFCURVE",
"879 177 CURVE SMOOTH",
"927 159 LINE",
"960 149 OFFCURVE",
"991 144 OFFCURVE",
"1019 144 CURVE SMOOTH",
"1094 144 OFFCURVE",
"1161 165 OFFCURVE",
"1220 207 CURVE SMOOTH",
"1255 232 OFFCURVE",
"1274 245 OFFCURVE",
"1277 247 CURVE",
"1288 252 OFFCURVE",
"1298 255 OFFCURVE",
"1307 255 CURVE SMOOTH",
"1317 255 OFFCURVE",
"1322 250 OFFCURVE",
"1322 240 CURVE SMOOTH",
"1322 222 OFFCURVE",
"1302 193 OFFCURVE",
"1262 154 CURVE SMOOTH",
"1190 83 OFFCURVE",
"1107 33 OFFCURVE",
"1012 5 CURVE SMOOTH",
"965 -9 OFFCURVE",
"918 -16 OFFCURVE",
"872 -16 CURVE SMOOTH",
"831 -16 OFFCURVE",
"781 -4 OFFCURVE",
"720 19 CURVE SMOOTH",
"665 40 OFFCURVE",
"622 51 OFFCURVE",
"591 52 CURVE SMOOTH",
"574 52 LINE",
"501 11 OFFCURVE",
"421 -12 OFFCURVE",
"332 -16 CURVE",
"317 -16 LINE SMOOTH",
"118 -16 OFFCURVE",
"17 149 OFFCURVE",
"17 328 CURVE SMOOTH"
);
},
{
closed = 1;
nodes = (
"191 459 LINE SMOOTH",
"191 278 OFFCURVE",
"312 144 OFFCURVE",
"453 144 CURVE SMOOTH",
"485 144 OFFCURVE",
"536 157 OFFCURVE",
"606 184 CURVE SMOOTH",
"631 193 OFFCURVE",
"649 199 OFFCURVE",
"660 202 CURVE",
"719 215 OFFCURVE",
"747 343 OFFCURVE",
"747 414 CURVE SMOOTH",
"747 607 OFFCURVE",
"623 728 OFFCURVE",
"472 728 CURVE SMOOTH",
"406 728 OFFCURVE",
"346 714 OFFCURVE",
"292 685 CURVE SMOOTH",
"278 678 OFFCURVE",
"267 670 OFFCURVE",
"259 662 CURVE SMOOTH",
"218 621 OFFCURVE",
"196 558 OFFCURVE",
"191 475 CURVE"
);
}
);
width = 1218;
}
);
unicode = 002E;
},
{
glyphname = zero;
layers = (
{
layerId = "79C964D5-2A53-42D4-9C27-6B5AFB4964EF";
name = Regular;
paths = (
{
closed = 1;
nodes = (
"-86 407 OFFCURVE",
"16 516 OFFCURVE",
"75 516 CURVE SMOOTH",
"84 516 OFFCURVE",
"88 511 OFFCURVE",
"88 502 CURVE SMOOTH",
"88 466 OFFCURVE",
"-13 357 OFFCURVE",
"-72 357 CURVE SMOOTH",
"-81 357 OFFCURVE",
"-86 362 OFFCURVE",
"-86 371 CURVE SMOOTH"
);
}
);
width = 0;
}
);
unicode = 0030;
},
{
glyphname = one;
layers = (
{
layerId = "79C964D5-2A53-42D4-9C27-6B5AFB4964EF";
name = Regular;
paths = (
{
closed = 1;
nodes = (
"-1657 -2222 OFFCURVE",
"-1636 -2193 OFFCURVE",
"-1595 -2152 CURVE SMOOTH",
"-1409 -1974 LINE",
"-1385 -1951 LINE SMOOTH",
"-909 -1476 OFFCURVE",
"-467 -860 OFFCURVE",
"-60 -103 CURVE SMOOTH",
"69 137 OFFCURVE",
"154 331 OFFCURVE",
"195 478 CURVE SMOOTH",
"209 527 OFFCURVE",
"216 566 OFFCURVE",
"216 595 CURVE SMOOTH",
"216 694 OFFCURVE",
"160 746 OFFCURVE",
"93 746 CURVE SMOOTH",
"20 746 OFFCURVE",
"-41 729 OFFCURVE",
"-91 695 CURVE SMOOTH",
"-118 676 OFFCURVE",
"-135 666 OFFCURVE",
"-142 664 CURVE",
"-147 663 OFFCURVE",
"-153 662 OFFCURVE",
"-158 662 CURVE SMOOTH",
"-169 662 OFFCURVE",
"-174 666 OFFCURVE",
"-174 675 CURVE SMOOTH",
"-174 694 OFFCURVE",
"-156 722 OFFCURVE",
"-120 759 CURVE SMOOTH",
"-53 827 OFFCURVE",
"29 872 OFFCURVE",
"126 894 CURVE SMOOTH",
"182 907 OFFCURVE",
"291 926 OFFCURVE",
"344 866 CURVE SMOOTH",
"365 843 OFFCURVE",
"380 808 OFFCURVE",
"388 763 CURVE SMOOTH",
"389 757 OFFCURVE",
"390 746 OFFCURVE",
"390 731 CURVE SMOOTH",
"390 693 OFFCURVE",
"382 647 OFFCURVE",
"366 593 CURVE",
"461 698 OFFCURVE",
"699 889 OFFCURVE",
"880 889 CURVE SMOOTH",
"1043 889 OFFCURVE",
"1172 770 OFFCURVE",
"1172 603 CURVE SMOOTH",
"1172 372 OFFCURVE",
"932 133 OFFCURVE",
"701 21 CURVE SMOOTH",
"678 10 OFFCURVE",
"663 5 OFFCURVE",
"654 5 CURVE SMOOTH",
"643 5 OFFCURVE",
"638 9 OFFCURVE",
"637 18 CURVE",
"637 59 OFFCURVE",
"716 129 OFFCURVE",
"760 152 CURVE SMOOTH",
"900 223 OFFCURVE",
"998 309 OFFCURVE",
"998 466 CURVE SMOOTH",
"998 627 OFFCURVE",
"874 728 OFFCURVE",
"734 728 CURVE SMOOTH",
"676 728 OFFCURVE",
"609 701 OFFCURVE",
"533 646 CURVE SMOOTH",
"413 560 OFFCURVE",
"316 433 OFFCURVE",
"242 266 CURVE SMOOTH",
"38 -195 OFFCURVE",
"-480 -1079 OFFCURVE",
"-1111 -1768 CURVE SMOOTH",
"-1205 -1869 LINE SMOOTH",
"-1252 -1920 OFFCURVE",
"-1337 -2005 OFFCURVE",
"-1462 -2122 CURVE SMOOTH",
"-1562 -2217 OFFCURVE",
"-1603 -2255 OFFCURVE",
"-1642 -2255 CURVE SMOOTH",
"-1652 -2255 OFFCURVE",
"-1657 -2250 OFFCURVE",
"-1657 -2241 CURVE SMOOTH"
);
}
);
width = 1306;
}
);
unicode = 0031;
},
{
glyphname = two;
layers = (
{
layerId = "79C964D5-2A53-42D4-9C27-6B5AFB4964EF";
name = Regular;
paths = (
{
closed = 1;
nodes = (
"-1657 -2222 OFFCURVE",
"-1636 -2193 OFFCURVE",
"-1595 -2152 CURVE SMOOTH",
"-1409 -1974 LINE",
"-1385 -1951 LINE SMOOTH",
"-909 -1476 OFFCURVE",
"-467 -860 OFFCURVE",
"-60 -103 CURVE SMOOTH",
"69 137 OFFCURVE",
"154 331 OFFCURVE",
"195 478 CURVE SMOOTH",
"209 527 OFFCURVE",
"216 566 OFFCURVE",
"216 595 CURVE SMOOTH",
"216 694 OFFCURVE",
"160 746 OFFCURVE",
"93 746 CURVE SMOOTH",
"20 746 OFFCURVE",
"-41 729 OFFCURVE",
"-91 695 CURVE SMOOTH",
"-118 676 OFFCURVE",
"-135 666 OFFCURVE",
"-142 664 CURVE",
"-147 663 OFFCURVE",
"-153 662 OFFCURVE",
"-158 662 CURVE SMOOTH",
"-169 662 OFFCURVE",
"-174 666 OFFCURVE",
"-174 675 CURVE SMOOTH",
"-174 694 OFFCURVE",
"-156 721 OFFCURVE",
"-121 758 CURVE SMOOTH",
"-55 827 OFFCURVE",
"26 872 OFFCURVE",
"122 894 CURVE SMOOTH",
"151 901 OFFCURVE",
"181 905 OFFCURVE",
"212 906 CURVE SMOOTH",
"309 910 OFFCURVE",
"367 868 OFFCURVE",
"385 780 CURVE SMOOTH",
"388 763 OFFCURVE",
"390 745 OFFCURVE",
"390 726 CURVE SMOOTH",
"390 695 OFFCURVE",
"386 665 OFFCURVE",
"378 636 CURVE",
"377 633 OFFCURVE",
"376 630 OFFCURVE",
"375 628 CURVE",
"375 627 LINE",
"377 627 OFFCURVE",
"396 644 OFFCURVE",
"431 678 CURVE SMOOTH",
"576 818 OFFCURVE",
"704 888 OFFCURVE",
"817 888 CURVE SMOOTH",
"990 888 OFFCURVE",
"1072 730 OFFCURVE",
"1087 614 CURVE SMOOTH",
"1088 604 OFFCURVE",
"1089 599 OFFCURVE",
"1090 599 CURVE SMOOTH",
"1091 599 OFFCURVE",
"1099 607 OFFCURVE",
"1114 624 CURVE SMOOTH",
"1147 662 OFFCURVE",
"1194 705 OFFCURVE",
"1254 752 CURVE SMOOTH",
"1370 843 OFFCURVE",
"1471 889 OFFCURVE",
"1556 889 CURVE SMOOTH",
"1701 889 OFFCURVE",
"1822 768 OFFCURVE",
"1822 595 CURVE SMOOTH",
"1822 488 OFFCURVE",
"1772 374 OFFCURVE",
"1672 253 CURVE SMOOTH",
"1641 216 OFFCURVE",
"1611 184 OFFCURVE",
"1582 159 CURVE SMOOTH",
"1515 101 OFFCURVE",
"1444 56 OFFCURVE",
"1368 24 CURVE SMOOTH",
"1339 11 OFFCURVE",
"1317 5 OFFCURVE",
"1303 5 CURVE SMOOTH",
"1292 5 OFFCURVE",
"1286 9 OFFCURVE",
"1286 18 CURVE SMOOTH",
"1286 54 OFFCURVE",
"1369 143 OFFCURVE",
"1437 163 CURVE",
"1492 182 OFFCURVE",
"1531 203 OFFCURVE",
"1552 226 CURVE SMOOTH",
"1616 297 OFFCURVE",
"1648 378 OFFCURVE",
"1648 470 CURVE SMOOTH",
"1648 552 OFFCURVE",
"1618 619 OFFCURVE",
"1558 671 CURVE SMOOTH",
"1525 700 OFFCURVE",
"1487 718 OFFCURVE",
"1446 726 CURVE",
"1439 727 OFFCURVE",
"1428 728 OFFCURVE",
"1414 728 CURVE SMOOTH",
"1306 728 OFFCURVE",
"1204 645 OFFCURVE",
"1108 480 CURVE SMOOTH",
"1100 466 OFFCURVE",
"1075 418 OFFCURVE",
"1033 337 CURVE SMOOTH",
"1001 274 OFFCURVE",
"960 217 OFFCURVE",
"910 165 CURVE SMOOTH",
"795 44 OFFCURVE",
"681 -16 OFFCURVE",
"569 -16 CURVE",
"467 -12 OFFCURVE",
"414 23 OFFCURVE",
"411 89 CURVE",
"411 136 OFFCURVE",
"455 218 OFFCURVE",
"544 221 CURVE SMOOTH",
"575 222 OFFCURVE",
"603 211 OFFCURVE",
"626 188 CURVE SMOOTH",
"665 149 OFFCURVE",
"678 143 OFFCURVE",
"709 143 CURVE SMOOTH",
"789 143 OFFCURVE",
"836 166 OFFCURVE",
"880 269 CURVE SMOOTH",
"904 324 OFFCURVE",
"916 378 OFFCURVE",
"916 432 CURVE SMOOTH",
"916 550 OFFCURVE",
"873 636 OFFCURVE",
"787 690 CURVE SMOOTH",
"746 716 OFFCURVE",
"707 729 OFFCURVE",
"671 729 CURVE SMOOTH",
"479 729 OFFCURVE",
"320 439 OFFCURVE",
"244 270 CURVE SMOOTH",
"27 -217 OFFCURVE",
"-484 -1084 OFFCURVE",
"-1111 -1768 CURVE SMOOTH",
"-1205 -1869 LINE SMOOTH",
"-1252 -1920 OFFCURVE",
"-1337 -2005 OFFCURVE",
"-1462 -2122 CURVE SMOOTH",
"-1562 -2217 OFFCURVE",
"-1603 -2255 OFFCURVE",
"-1642 -2255 CURVE SMOOTH",
"-1652 -2255 OFFCURVE",
"-1657 -2250 OFFCURVE",
"-1657 -2241 CURVE SMOOTH"
);
}
);
width = 1955;
}
);
unicode = 0032;
},
{
glyphname = three;
layers = (
{
layerId = "79C964D5-2A53-42D4-9C27-6B5AFB4964EF";
name = Regular;
paths = (
{
closed = 1;
nodes = (
"-35 8 OFFCURVE",
"-29 21 OFFCURVE",
"-16 36 CURVE SMOOTH",
"63 123 OFFCURVE",
"118 264 OFFCURVE",
"173 436 CURVE SMOOTH",
"321 903 OFFCURVE",
"414 1188 OFFCURVE",
"451 1290 CURVE SMOOTH",
"474 1351 OFFCURVE",
"501 1417 OFFCURVE",
"533 1490 CURVE SMOOTH",
"670 1802 OFFCURVE",
"834 2063 OFFCURVE",
"1025 2272 CURVE SMOOTH",
"1151 2409 OFFCURVE",
"1235 2478 OFFCURVE",
"1276 2478 CURVE SMOOTH",
"1285 2478 OFFCURVE",
"1290 2474 OFFCURVE",
"1290 2465 CURVE SMOOTH",
"1290 2446 OFFCURVE",
"1267 2413 OFFCURVE",
"1222 2368 CURVE SMOOTH",
"1116 2263 LINE",
"1094 2238 LINE SMOOTH",
"981 2109 OFFCURVE",
"884 1966 OFFCURVE",
"803 1807 CURVE SMOOTH",
"679 1566 OFFCURVE",
"545 1208 OFFCURVE",
"402 734 CURVE SMOOTH",
"359 593 LINE",
"359 609 OFFCURVE",
"552 758 OFFCURVE",
"593 785 CURVE SMOOTH",
"699 854 OFFCURVE",
"793 889 OFFCURVE",
"875 889 CURVE SMOOTH",
"1038 889 OFFCURVE",
"1166 766 OFFCURVE",
"1166 601 CURVE SMOOTH",
"1166 457 OFFCURVE",
"1071 287 OFFCURVE",
"854 119 CURVE SMOOTH",
"769 54 OFFCURVE",
"703 16 OFFCURVE",
"655 6 CURVE",
"649 5 OFFCURVE",
"644 4 OFFCURVE",
"639 4 CURVE",
"630 6 OFFCURVE",
"626 10 OFFCURVE",
"626 16 CURVE SMOOTH",
"626 18 LINE SMOOTH",
"626 54 OFFCURVE",
"701 132 OFFCURVE",
"769 161 CURVE SMOOTH",
"906 220 OFFCURVE",
"992 339 OFFCURVE",
"992 474 CURVE SMOOTH",
"992 599 OFFCURVE",
"897 707 OFFCURVE",
"764 727 CURVE SMOOTH",
"756 728 OFFCURVE",
"745 728 OFFCURVE",
"731 728 CURVE SMOOTH",
"504 728 OFFCURVE",
"327 453 OFFCURVE",
"238 272 CURVE SMOOTH",
"179 151 OFFCURVE",
"116 66 OFFCURVE",
"49 15 CURVE SMOOTH",
"22 -6 OFFCURVE",
"-1 -16 OFFCURVE",
"-19 -16 CURVE SMOOTH",
"-30 -16 OFFCURVE",
"-35 -12 OFFCURVE",
"-35 -3 CURVE SMOOTH"
);
}
);
width = 1294;
}
);
unicode = 0033;
},
{
glyphname = four;
layers = (
{
layerId = "79C964D5-2A53-42D4-9C27-6B5AFB4964EF";
name = Regular;
paths = (
{
closed = 1;
nodes = (
"-35 8 OFFCURVE",
"-29 21 OFFCURVE",
"-16 36 CURVE SMOOTH",
"63 123 OFFCURVE",
"118 264 OFFCURVE",
"173 436 CURVE SMOOTH",
"321 903 OFFCURVE",
"414 1188 OFFCURVE",
"451 1290 CURVE SMOOTH",
"474 1351 OFFCURVE",
"501 1417 OFFCURVE",
"533 1490 CURVE SMOOTH",
"670 1802 OFFCURVE",
"834 2063 OFFCURVE",
"1025 2272 CURVE SMOOTH",
"1151 2409 OFFCURVE",
"1235 2478 OFFCURVE",
"1276 2478 CURVE SMOOTH",
"1285 2478 OFFCURVE",
"1290 2474 OFFCURVE",
"1290 2465 CURVE SMOOTH",
"1290 2446 OFFCURVE",
"1267 2413 OFFCURVE",
"1222 2368 CURVE SMOOTH",
"1116 2263 LINE",
"1094 2238 LINE SMOOTH",
"981 2109 OFFCURVE",
"884 1965 OFFCURVE",
"803 1806 CURVE SMOOTH",
"679 1565 OFFCURVE",
"545 1206 OFFCURVE",
"401 730 CURVE SMOOTH",
"369 625 LINE",
"393 649 LINE SMOOTH",
"552 808 OFFCURVE",
"691 888 OFFCURVE",
"809 888 CURVE SMOOTH",
"981 888 OFFCURVE",
"1067 729 OFFCURVE",
"1080 612 CURVE SMOOTH",
"1081 604 OFFCURVE",
"1082 600 OFFCURVE",
"1082 599 CURVE SMOOTH",
"1082 598 LINE",
"1083 598 OFFCURVE",
"1091 606 OFFCURVE",
"1106 623 CURVE SMOOTH",
"1125 645 OFFCURVE",
"1149 668 OFFCURVE",
"1177 693 CURVE SMOOTH",
"1316 815 OFFCURVE",
"1432 880 OFFCURVE",
"1525 888 CURVE SMOOTH",
"1534 889 OFFCURVE",
"1543 889 OFFCURVE",
"1552 889 CURVE SMOOTH",
"1593 889 OFFCURVE",
"1635 876 OFFCURVE",
"1680 851 CURVE SMOOTH",
"1771 800 OFFCURVE",
"1816 716 OFFCURVE",
"1816 599 CURVE SMOOTH",
"1816 424 OFFCURVE",
"1696 242 OFFCURVE",
"1456 52 CURVE SMOOTH",
"1421 24 OFFCURVE",
"1395 9 OFFCURVE",
"1377 6 CURVE",
"1374 5 OFFCURVE",
"1371 5 OFFCURVE",
"1368 5 CURVE SMOOTH",
"1358 5 OFFCURVE",
"1353 10 OFFCURVE",
"1352 19 CURVE",
"1352 41 OFFCURVE",
"1373 71 OFFCURVE",
"1416 109 CURVE",
"1424 117 OFFCURVE",
"1433 125 OFFCURVE",
"1443 132 CURVE",
"1576 237 OFFCURVE",
"1643 348 OFFCURVE",
"1643 464 CURVE SMOOTH",
"1643 575 OFFCURVE",
"1599 653 OFFCURVE",
"1511 699 CURVE SMOOTH",
"1473 719 OFFCURVE",
"1438 729 OFFCURVE",
"1405 729 CURVE SMOOTH",
"1278 729 OFFCURVE",
"1165 603 OFFCURVE",
"1072 426 CURVE SMOOTH",
"1027 340 OFFCURVE",
"995 282 OFFCURVE",
"975 253 CURVE SMOOTH",
"968 243 OFFCURVE",
"961 233 OFFCURVE",
"954 224 CURVE SMOOTH",
"852 93 OFFCURVE",
"741 15 OFFCURVE",
"621 -10 CURVE SMOOTH",
"599 -14 OFFCURVE",
"578 -16 OFFCURVE",
"558 -16 CURVE SMOOTH",
"475 -16 OFFCURVE",
"425 9 OFFCURVE",
"408 58 CURVE",
"405 68 OFFCURVE",
"403 78 OFFCURVE",
"403 89 CURVE SMOOTH",
"403 158 OFFCURVE",
"468 221 OFFCURVE",
"540 221 CURVE SMOOTH",
"571 221 OFFCURVE",
"598 210 OFFCURVE",
"619 187 CURVE SMOOTH",
"655 150 OFFCURVE",
"668 143 OFFCURVE",
"701 143 CURVE SMOOTH",
"749 143 OFFCURVE",
"786 154 OFFCURVE",
"813 176 CURVE",
"816 178 OFFCURVE",
"819 180 OFFCURVE",
"821 183 CURVE",
"875 245 OFFCURVE",
"904 322 OFFCURVE",
"909 414 CURVE",
"909 430 LINE SMOOTH",
"909 610 OFFCURVE",
"791 711 OFFCURVE",
"694 727 CURVE SMOOTH",
"687 728 OFFCURVE",
"677 728 OFFCURVE",
"664 728 CURVE SMOOTH",
"527 728 OFFCURVE",
"384 573 OFFCURVE",
"233 262 CURVE SMOOTH",
"180 152 OFFCURVE",
"120 71 OFFCURVE",
"53 18 CURVE SMOOTH",
"24 -5 OFFCURVE",
"0 -16 OFFCURVE",
"-19 -16 CURVE SMOOTH",
"-30 -16 OFFCURVE",
"-35 -12 OFFCURVE",
"-35 -3 CURVE SMOOTH"
);
}
);
width = 2019;
}
);
unicode = 0034;
},
{
glyphname = five;
layers = (
{
layerId = "79C964D5-2A53-42D4-9C27-6B5AFB4964EF";
name = Regular;
paths = (
{
closed = 1;
nodes = (
"-174 695 OFFCURVE",
"-156 724 OFFCURVE",
"-119 761 CURVE SMOOTH",
"-50 828 OFFCURVE",
"34 873 OFFCURVE",
"135 895 CURVE SMOOTH",
"161 900 OFFCURVE",
"187 904 OFFCURVE",
"214 906 CURVE",
"243 906 LINE SMOOTH",
"359 906 OFFCURVE",
"389 800 OFFCURVE",
"389 723 CURVE SMOOTH",
"389 690 OFFCURVE",
"385 661 OFFCURVE",
"378 634 CURVE",
"377 631 OFFCURVE",
"377 629 OFFCURVE",
"376 628 CURVE",
"377 628 OFFCURVE",
"395 645 OFFCURVE",
"430 678 CURVE SMOOTH",
"557 801 OFFCURVE",
"673 871 OFFCURVE",
"776 886 CURVE SMOOTH",
"785 887 OFFCURVE",
"798 888 OFFCURVE",
"815 888 CURVE SMOOTH",
"984 888 OFFCURVE",
"1072 732 OFFCURVE",
"1085 612 CURVE SMOOTH",
"1086 604 OFFCURVE",
"1087 600 OFFCURVE",
"1087 599 CURVE SMOOTH",
"1087 598 LINE",
"1090 598 OFFCURVE",
"1098 606 OFFCURVE",
"1112 622 CURVE SMOOTH",
"1184 707 OFFCURVE",
"1387 881 OFFCURVE",
"1542 889 CURVE",
"1554 889 LINE SMOOTH",
"1702 889 OFFCURVE",
"1821 765 OFFCURVE",
"1821 600 CURVE SMOOTH",
"1821 393 OFFCURVE",
"1633 155 OFFCURVE",
"1421 50 CURVE SMOOTH",
"1383 31 OFFCURVE",
"1345 16 OFFCURVE",
"1308 7 CURVE",
"1302 5 OFFCURVE",
"1297 4 OFFCURVE",
"1293 4 CURVE SMOOTH",
"1283 4 OFFCURVE",
"1278 9 OFFCURVE",
"1278 18 CURVE SMOOTH",
"1278 54 OFFCURVE",
"1368 148 OFFCURVE",
"1433 164 CURVE SMOOTH",
"1529 188 OFFCURVE",
"1575 241 OFFCURVE",
"1614 322 CURVE SMOOTH",
"1636 371 OFFCURVE",
"1647 419 OFFCURVE",
"1647 467 CURVE SMOOTH",
"1647 554 OFFCURVE",
"1593 728 OFFCURVE",
"1410 728 CURVE SMOOTH",
"1253 728 OFFCURVE",
"1142 557 OFFCURVE",
"1054 380 CURVE SMOOTH",
"1025 324 OFFCURVE",
"1001 281 OFFCURVE",
"980 252 CURVE SMOOTH",
"869 97 OFFCURVE",
"724 3 OFFCURVE",
"605 -14 CURVE SMOOTH",
"596 -15 OFFCURVE",
"583 -16 OFFCURVE",
"564 -16 CURVE SMOOTH",
"473 -16 OFFCURVE",
"422 13 OFFCURVE",
"412 71 CURVE SMOOTH",
"411 77 OFFCURVE",
"410 83 OFFCURVE",
"410 90 CURVE SMOOTH",
"410 158 OFFCURVE",
"475 221 OFFCURVE",
"543 221 CURVE SMOOTH",
"574 221 OFFCURVE",
"602 209 OFFCURVE",
"627 185 CURVE SMOOTH",
"648 165 OFFCURVE",
"663 153 OFFCURVE",
"673 149 CURVE",
"682 146 OFFCURVE",
"691 144 OFFCURVE",
"701 144 CURVE SMOOTH",
"710 144 LINE SMOOTH",
"769 144 OFFCURVE",
"814 164 OFFCURVE",
"843 205 CURVE",
"851 215 OFFCURVE",
"860 230 OFFCURVE",
"871 251 CURVE SMOOTH",
"900 309 OFFCURVE",
"914 369 OFFCURVE",
"914 430 CURVE SMOOTH",
"914 511 OFFCURVE",
"890 581 OFFCURVE",
"843 640 CURVE SMOOTH",
"804 688 OFFCURVE",
"744 729 OFFCURVE",
"669 729 CURVE SMOOTH",
"478 729 OFFCURVE",
"364 490 OFFCURVE",
"225 241 CURVE SMOOTH",
"166 134 OFFCURVE",
"88 13 OFFCURVE",
"-3 -14 CURVE",
"-9 -15 OFFCURVE",
"-15 -16 OFFCURVE",
"-20 -16 CURVE SMOOTH",
"-31 -16 OFFCURVE",
"-36 -12 OFFCURVE",
"-36 -3 CURVE SMOOTH",
"-36 10 OFFCURVE",
"-19 37 OFFCURVE",
"15 78 CURVE SMOOTH",
"26 91 OFFCURVE",
"34 101 OFFCURVE",
"37 106 CURVE",
"94 191 OFFCURVE",
"143 301 OFFCURVE",
"183 435 CURVE SMOOTH",
"204 505 OFFCURVE",
"215 557 OFFCURVE",
"215 590 CURVE SMOOTH",
"215 656 OFFCURVE",
"195 702 OFFCURVE",
"154 729 CURVE SMOOTH",
"137 741 OFFCURVE",
"117 747 OFFCURVE",
"94 747 CURVE SMOOTH",
"21 747 OFFCURVE",
"-40 730 OFFCURVE",
"-90 695 CURVE SMOOTH",
"-117 676 OFFCURVE",
"-135 666 OFFCURVE",
"-143 664 CURVE",
"-148 663 OFFCURVE",
"-153 662 OFFCURVE",
"-158 662 CURVE SMOOTH",
"-169 662 OFFCURVE",
"-174 666 OFFCURVE",
"-174 675 CURVE SMOOTH"
);
}
);
width = 1945;
}
);
unicode = 0035;
},
{
glyphname = six;
layers = (
{
layerId = "79C964D5-2A53-42D4-9C27-6B5AFB4964EF";
name = Regular;
paths = (
{
closed = 1;
nodes = (
"-174 695 OFFCURVE",
"-156 724 OFFCURVE",
"-119 761 CURVE SMOOTH",
"-50 828 OFFCURVE",
"34 873 OFFCURVE",
"135 895 CURVE SMOOTH",
"161 900 OFFCURVE",
"187 904 OFFCURVE",
"214 906 CURVE",
"243 906 LINE SMOOTH",
"359 906 OFFCURVE",
"389 800 OFFCURVE",
"389 723 CURVE SMOOTH",
"389 692 OFFCURVE",
"384 657 OFFCURVE",
"373 617 CURVE",
"370 608 OFFCURVE",
"369 601 OFFCURVE",
"369 596 CURVE",
"392 619 LINE SMOOTH",
"504 728 OFFCURVE",
"613 806 OFFCURVE",
"719 851 CURVE SMOOTH",
"776 876 OFFCURVE",
"829 889 OFFCURVE",
"877 889 CURVE SMOOTH",
"1058 889 OFFCURVE",
"1171 753 OFFCURVE",
"1171 604 CURVE SMOOTH",
"1171 357 OFFCURVE",
"904 124 OFFCURVE",
"729 35 CURVE SMOOTH",
"691 15 OFFCURVE",
"663 5 OFFCURVE",
"645 5 CURVE SMOOTH",
"634 5 OFFCURVE",
"629 9 OFFCURVE",
"629 16 CURVE SMOOTH",
"629 18 LINE SMOOTH",
"629 54 OFFCURVE",
"702 133 OFFCURVE",
"773 162 CURVE SMOOTH",
"850 195 OFFCURVE",
"905 239 OFFCURVE",
"940 292 CURVE SMOOTH",
"950 307 OFFCURVE",
"959 324 OFFCURVE",
"968 342 CURVE",
"987 385 OFFCURVE",
"997 427 OFFCURVE",
"997 470 CURVE SMOOTH",
"997 615 OFFCURVE",
"881 728 OFFCURVE",
"734 728 CURVE SMOOTH",
"482 728 OFFCURVE",
"350 455 OFFCURVE",
"214 220 CURVE SMOOTH",
"189 177 OFFCURVE",
"170 147 OFFCURVE",
"157 129 CURVE SMOOTH",
"96 47 OFFCURVE",
"42 -1 OFFCURVE",
"-3 -14 CURVE",
"-9 -15 OFFCURVE",
"-15 -16 OFFCURVE",
"-20 -16 CURVE SMOOTH",
"-31 -16 OFFCURVE",
"-36 -12 OFFCURVE",
"-36 -3 CURVE SMOOTH",
"-36 10 OFFCURVE",
"-19 37 OFFCURVE",
"15 78 CURVE SMOOTH",
"26 91 OFFCURVE",
"34 101 OFFCURVE",
"37 106 CURVE",
"94 191 OFFCURVE",
"143 301 OFFCURVE",
"183 435 CURVE SMOOTH",
"204 505 OFFCURVE",
"215 557 OFFCURVE",
"215 590 CURVE SMOOTH",
"215 656 OFFCURVE",
"195 702 OFFCURVE",
"154 729 CURVE SMOOTH",
"137 741 OFFCURVE",
"117 747 OFFCURVE",
"94 747 CURVE SMOOTH",
"21 747 OFFCURVE",
"-40 730 OFFCURVE",
"-90 695 CURVE SMOOTH",
"-117 676 OFFCURVE",
"-135 666 OFFCURVE",
"-143 664 CURVE",
"-148 663 OFFCURVE",
"-153 662 OFFCURVE",
"-158 662 CURVE SMOOTH",
"-169 662 OFFCURVE",
"-174 666 OFFCURVE",
"-174 675 CURVE SMOOTH"
);
}
);
width = 1296;
}
);
unicode = 0036;
},
{
glyphname = seven;
layers = (
{
layerId = "79C964D5-2A53-42D4-9C27-6B5AFB4964EF";
name = Regular;
paths = (
{
closed = 1;
nodes = (
"-86 407 OFFCURVE",
"16 516 OFFCURVE",
"75 516 CURVE SMOOTH",
"84 516 OFFCURVE",
"88 511 OFFCURVE",
"88 502 CURVE SMOOTH",
"88 466 OFFCURVE",
"-13 357 OFFCURVE",
"-72 357 CURVE SMOOTH",
"-81 357 OFFCURVE",
"-86 362 OFFCURVE",
"-86 371 CURVE SMOOTH"
);
}
);
width = 0;
}
);
unicode = 0037;
},
{
glyphname = eight;
layers = (
{
layerId = "79C964D5-2A53-42D4-9C27-6B5AFB4964EF";
name = Regular;
paths = (
{
closed = 1;
nodes = (
"-86 407 OFFCURVE",
"16 516 OFFCURVE",
"75 516 CURVE SMOOTH",
"84 516 OFFCURVE",
"88 511 OFFCURVE",
"88 502 CURVE SMOOTH",
"88 466 OFFCURVE",
"-13 357 OFFCURVE",
"-72 357 CURVE SMOOTH",
"-81 357 OFFCURVE",
"-86 362 OFFCURVE",
"-86 371 CURVE SMOOTH"
);
}
);
width = 0;
}
);
unicode = 0038;
},
{
glyphname = nine;
layers = (
{
layerId = "79C964D5-2A53-42D4-9C27-6B5AFB4964EF";
name = Regular;
paths = (
{
closed = 1;
nodes = (
"-514 1914 OFFCURVE",
"-491 1945 OFFCURVE",
"-444 1986 CURVE SMOOTH",
"-379 2044 OFFCURVE",
"-314 2081 OFFCURVE",
"-247 2096 CURVE SMOOTH",
"-229 2100 OFFCURVE",
"-212 2102 OFFCURVE",
"-196 2102 CURVE SMOOTH",
"-29 2102 OFFCURVE",
"46 1996 OFFCURVE",
"139 1681 CURVE SMOOTH",
"150 1644 OFFCURVE",
"180 1533 OFFCURVE",
"231 1348 CURVE SMOOTH",
"351 913 OFFCURVE",
"461 601 OFFCURVE",
"562 413 CURVE SMOOTH",
"658 234 OFFCURVE",
"753 144 OFFCURVE",
"846 144 CURVE SMOOTH",
"893 144 OFFCURVE",
"949 170 OFFCURVE",
"1012 221 CURVE SMOOTH",
"1059 259 OFFCURVE",
"1084 279 OFFCURVE",
"1088 282 CURVE",
"1105 293 OFFCURVE",
"1120 299 OFFCURVE",
"1131 299 CURVE SMOOTH",
"1140 299 OFFCURVE",
"1146 294 OFFCURVE",
"1148 285 CURVE",
"1148 262 OFFCURVE",
"1121 226 OFFCURVE",
"1068 176 CURVE SMOOTH",
"993 105 OFFCURVE",
"915 55 OFFCURVE",
"834 24 CURVE SMOOTH",
"793 9 OFFCURVE",
"756 1 OFFCURVE",
"723 2 CURVE SMOOTH",
"526 2 OFFCURVE",
"401 285 OFFCURVE",
"321 469 CURVE",
"287 384 OFFCURVE",
"244 313 OFFCURVE",
"192 256 CURVE SMOOTH",
"179 241 OFFCURVE",
"164 227 OFFCURVE",
"148 212 CURVE SMOOTH",
"11 84 OFFCURVE",
"-107 18 OFFCURVE",
"-205 13 CURVE",
"-219 13 LINE SMOOTH",
"-280 13 OFFCURVE",
"-330 32 OFFCURVE",
"-369 71 CURVE SMOOTH",
"-384 86 OFFCURVE",
"-391 97 OFFCURVE",
"-391 105 CURVE SMOOTH",
"-391 157 OFFCURVE",
"-285 231 OFFCURVE",
"-253 231 CURVE SMOOTH",
"-246 231 OFFCURVE",
"-235 223 OFFCURVE",
"-220 207 CURVE SMOOTH",
"-189 176 OFFCURVE",
"-154 159 OFFCURVE",
"-114 156 CURVE",
"-98 156 LINE SMOOTH",
"-59 156 OFFCURVE",
"-17 170 OFFCURVE",
"28 199 CURVE SMOOTH",
"128 262 OFFCURVE",
"185 370 OFFCURVE",
"198 522 CURVE SMOOTH",
"200 544 OFFCURVE",
"201 567 OFFCURVE",
"201 590 CURVE SMOOTH",
"201 721 OFFCURVE",
"171 895 OFFCURVE",
"110 1111 CURVE SMOOTH",
"76 1231 LINE SMOOTH",
"-53 1706 OFFCURVE",
"-91 1843 OFFCURVE",
"-190 1920 CURVE SMOOTH",
"-217 1941 OFFCURVE",
"-247 1953 OFFCURVE",
"-281 1957 CURVE SMOOTH",
"-289 1958 OFFCURVE",
"-297 1959 OFFCURVE",
"-306 1959 CURVE SMOOTH",
"-347 1959 OFFCURVE",
"-386 1945 OFFCURVE",
"-421 1916 CURVE",
"-447 1896 OFFCURVE",
"-465 1884 OFFCURVE",
"-476 1881 CURVE",
"-483 1878 OFFCURVE",
"-490 1877 OFFCURVE",
"-497 1877 CURVE SMOOTH",
"-508 1877 OFFCURVE",
"-514 1882 OFFCURVE",
"-514 1893 CURVE SMOOTH"
);
}
);
width = 958;
}
);
unicode = 0039;
},
{
glyphname = less;
layers = (
{
layerId = "79C964D5-2A53-42D4-9C27-6B5AFB4964EF";
name = Regular;
paths = (
{
closed = 1;
nodes = (
"9 95 OFFCURVE",
"113 170 OFFCURVE",
"144 170 CURVE SMOOTH",
"147 170 OFFCURVE",
"167 165 OFFCURVE",
"206 155 CURVE SMOOTH",
"250 144 OFFCURVE",
"298 137 OFFCURVE",
"351 136 CURVE SMOOTH",
"354 136 LINE",
"354 138 OFFCURVE",
"347 148 OFFCURVE",
"333 166 CURVE SMOOTH",
"291 221 OFFCURVE",
"270 293 OFFCURVE",
"270 382 CURVE SMOOTH",
"270 486 OFFCURVE",
"311 583 OFFCURVE",
"393 674 CURVE SMOOTH",
"422 705 OFFCURVE",
"455 735 OFFCURVE",
"492 763 CURVE SMOOTH",
"603 846 OFFCURVE",
"723 888 OFFCURVE",
"852 888 CURVE SMOOTH",
"947 888 OFFCURVE",
"1025 844 OFFCURVE",
"1087 757 CURVE SMOOTH",
"1094 747 LINE",
"1103 779 LINE SMOOTH",
"1281 1430 OFFCURVE",
"1522 1936 OFFCURVE",
"1827 2295 CURVE SMOOTH",
"1896 2376 OFFCURVE",
"1973 2455 OFFCURVE",
"2058 2533 CURVE SMOOTH",
"2109 2581 OFFCURVE",
"2147 2605 OFFCURVE",
"2172 2605 CURVE SMOOTH",
"2183 2605 OFFCURVE",
"2188 2600 OFFCURVE",
"2188 2591 CURVE SMOOTH",
"2188 2569 OFFCURVE",
"2166 2538 OFFCURVE",
"2123 2498 CURVE SMOOTH",
"2025 2409 OFFCURVE",
"1937 2313 OFFCURVE",
"1860 2208 CURVE SMOOTH",
"1539 1777 OFFCURVE",
"1294 1135 OFFCURVE",
"1098 138 CURVE SMOOTH",
"1089 93 OFFCURVE",
"1058 52 OFFCURVE",
"1003 15 CURVE SMOOTH",
"974 -6 OFFCURVE",
"951 -16 OFFCURVE",
"936 -16 CURVE SMOOTH",
"927 -16 OFFCURVE",
"922 -13 OFFCURVE",
"922 -7 CURVE SMOOTH",
"922 -6 LINE SMOOTH",
"922 3 OFFCURVE",
"697 17 OFFCURVE",
"608 17 CURVE SMOOTH",
"563 17 OFFCURVE",
"488 11 OFFCURVE",
"385 0 CURVE SMOOTH",
"335 -5 OFFCURVE",
"292 -8 OFFCURVE",
"257 -8 CURVE SMOOTH",
"196 -8 OFFCURVE",
"137 -2 OFFCURVE",
"78 9 CURVE SMOOTH",
"32 18 OFFCURVE",
"9 30 OFFCURVE",
"9 43 CURVE SMOOTH"
);
},
{
closed = 1;
nodes = (
"425 317 OFFCURVE",
"540 202 OFFCURVE",
"649 171 CURVE",
"670 164 OFFCURVE",
"770 157 OFFCURVE",
"947 150 CURVE",
"952 150 LINE",
"958 178 LINE SMOOTH",
"973 247 OFFCURVE",
"984 299 OFFCURVE",
"993 334 CURVE SMOOTH",
"1001 370 LINE",
"1001 400 LINE SMOOTH",
"1001 615 OFFCURVE",
"870 745 OFFCURVE",
"726 745 CURVE SMOOTH",
"665 745 OFFCURVE",
"608 734 OFFCURVE",
"554 711 CURVE SMOOTH",
"527 700 OFFCURVE",
"506 686 OFFCURVE",
"489 670 CURVE SMOOTH",
"459 642 OFFCURVE",
"439 600 OFFCURVE",
"430 545 CURVE SMOOTH",
"427 527 OFFCURVE",
"425 508 OFFCURVE",
"425 489 CURVE SMOOTH"
);
}
);
width = 1306;
}
);
unicode = 003C;
},
{
glyphname = at;
layers = (
{
layerId = "79C964D5-2A53-42D4-9C27-6B5AFB4964EF";
name = Regular;
paths = (
{
closed = 1;
nodes = (
"-1657 -2216 OFFCURVE",
"-1629 -2180 OFFCURVE",
"-1573 -2131 CURVE SMOOTH",
"-1519 -2081 LINE SMOOTH",
"-1478 -2045 OFFCURVE",
"-1411 -1980 OFFCURVE",
"-1317 -1886 CURVE SMOOTH",
"-1162 -1727 LINE SMOOTH",
"-727 -1266 OFFCURVE",
"-378 -768 OFFCURVE",
"-113 -235 CURVE SMOOTH",
"-76 -159 OFFCURVE",
"-40 -83 OFFCURVE",
"-6 -6 CURVE SMOOTH",
"42 101 OFFCURVE",
"95 238 OFFCURVE",
"153 403 CURVE SMOOTH",
"375 1039 LINE SMOOTH",
"543 1525 OFFCURVE",
"722 1892 OFFCURVE",
"911 2139 CURVE SMOOTH",
"986 2237 OFFCURVE",
"1075 2332 OFFCURVE",
"1179 2425 CURVE SMOOTH",
"1219 2461 OFFCURVE",
"1252 2479 OFFCURVE",
"1278 2479 CURVE",
"1285 2478 OFFCURVE",
"1289 2473 OFFCURVE",
"1289 2465 CURVE SMOOTH",
"1289 2446 OFFCURVE",
"1265 2413 OFFCURVE",
"1216 2365 CURVE SMOOTH",
"1164 2314 OFFCURVE",
"1134 2283 OFFCURVE",
"1125 2274 CURVE",
"972 2107 OFFCURVE",
"832 1874 OFFCURVE",
"706 1575 CURVE SMOOTH",
"642 1415 LINE SMOOTH",
"623 1367 OFFCURVE",
"565 1202 OFFCURVE",
"467 920 CURVE SMOOTH",
"365 627 LINE",
"472 725 LINE SMOOTH",
"597 834 OFFCURVE",
"708 888 OFFCURVE",
"805 888 CURVE SMOOTH",
"891 888 OFFCURVE",
"961 850 OFFCURVE",
"1015 773 CURVE SMOOTH",
"1049 722 OFFCURVE",
"1070 663 OFFCURVE",
"1079 598 CURVE",
"1080 598 OFFCURVE",
"1088 607 OFFCURVE",
"1104 625 CURVE SMOOTH",
"1123 645 OFFCURVE",
"1145 667 OFFCURVE",
"1170 690 CURVE SMOOTH",
"1315 822 OFFCURVE",
"1441 888 OFFCURVE",
"1548 888 CURVE SMOOTH",
"1687 888 OFFCURVE",
"1779 784 OFFCURVE",
"1806 665 CURVE SMOOTH",
"1811 644 OFFCURVE",
"1813 622 OFFCURVE",
"1813 599 CURVE SMOOTH",
"1813 447 OFFCURVE",
"1713 308 OFFCURVE",
"1642 229 CURVE SMOOTH",
"1563 142 OFFCURVE",
"1495 77 OFFCURVE",
"1438 36 CURVE SMOOTH",
"1409 15 OFFCURVE",
"1387 5 OFFCURVE",
"1372 5 CURVE SMOOTH",
"1361 5 OFFCURVE",
"1356 8 OFFCURVE",
"1356 15 CURVE SMOOTH",
"1356 18 LINE SMOOTH",
"1356 39 OFFCURVE",
"1376 68 OFFCURVE",
"1416 106 CURVE SMOOTH",
"1503 185 LINE",
"1586 268 OFFCURVE",
"1631 356 OFFCURVE",
"1637 447 CURVE",
"1638 454 OFFCURVE",
"1638 462 OFFCURVE",
"1638 469 CURVE SMOOTH",
"1638 578 OFFCURVE",
"1575 688 OFFCURVE",
"1460 720 CURVE",
"1442 726 OFFCURVE",
"1422 729 OFFCURVE",
"1401 729 CURVE SMOOTH",
"1318 729 OFFCURVE",
"1237 677 OFFCURVE",
"1158 572 CURVE SMOOTH",
"1139 546 LINE SMOOTH",
"1122 521 OFFCURVE",
"1091 465 OFFCURVE",
"1044 378 CURVE SMOOTH",
"993 283 OFFCURVE",
"941 208 OFFCURVE",
"888 154 CURVE SMOOTH",
"876 141 OFFCURVE",
"863 129 OFFCURVE",
"850 118 CURVE SMOOTH",
"748 28 OFFCURVE",
"650 -17 OFFCURVE",
"555 -17 CURVE SMOOTH",
"472 -17 OFFCURVE",
"422 8 OFFCURVE",
"405 57 CURVE SMOOTH",
"402 66 OFFCURVE",
"400 76 OFFCURVE",
"400 87 CURVE SMOOTH",
"400 176 OFFCURVE",
"482 221 OFFCURVE",
"534 221 CURVE SMOOTH",
"565 221 OFFCURVE",
"592 210 OFFCURVE",
"613 188 CURVE SMOOTH",
"650 151 OFFCURVE",
"665 144 OFFCURVE",
"701 144 CURVE SMOOTH",
"769 144 OFFCURVE",
"820 173 OFFCURVE",
"853 232 CURVE SMOOTH",
"860 245 OFFCURVE",
"867 260 OFFCURVE",
"874 277 CURVE SMOOTH",
"895 328 OFFCURVE",
"905 380 OFFCURVE",
"905 432 CURVE SMOOTH",
"905 550 OFFCURVE",
"862 636 OFFCURVE",
"777 690 CURVE SMOOTH",
"737 715 OFFCURVE",
"699 728 OFFCURVE",
"664 728 CURVE SMOOTH",
"656 728 LINE SMOOTH",
"607 728 OFFCURVE",
"551 701 OFFCURVE",
"486 647 CURVE SMOOTH",
"407 581 OFFCURVE",
"338 489 OFFCURVE",
"278 371 CURVE SMOOTH",
"261 337 OFFCURVE",
"241 291 OFFCURVE",
"218 232 CURVE SMOOTH",
"191 163 LINE SMOOTH",
"36 -216 OFFCURVE",
"-189 -612 OFFCURVE",
"-484 -1024 CURVE SMOOTH",
"-562 -1133 OFFCURVE",
"-640 -1236 OFFCURVE",
"-719 -1333 CURVE SMOOTH",
"-833 -1470 LINE",
"-1066 -1731 LINE",
"-1110 -1777 LINE SMOOTH",
"-1170 -1844 OFFCURVE",
"-1283 -1955 OFFCURVE",
"-1449 -2110 CURVE SMOOTH",
"-1560 -2212 LINE",
"-1593 -2240 OFFCURVE",
"-1621 -2254 OFFCURVE",
"-1642 -2254 CURVE SMOOTH",
"-1652 -2254 OFFCURVE",
"-1657 -2250 OFFCURVE",
"-1657 -2241 CURVE SMOOTH"
);
}
);
width = 2025;
}
);
unicode = 0040;
},
{
glyphname = C;
layers = (
{
layerId = "79C964D5-2A53-42D4-9C27-6B5AFB4964EF";
name = Regular;
paths = (
{
closed = 1;
nodes = (
"-453 1770 OFFCURVE",
"-425 1798 OFFCURVE",
"-396 1798 CURVE SMOOTH",
"-289 1798 OFFCURVE",
"-255 1559 OFFCURVE",
"-255 1475 CURVE SMOOTH",
"-255 1396 OFFCURVE",
"-268 1356 OFFCURVE",
"-293 1356 CURVE SMOOTH",
"-307 1356 OFFCURVE",
"-316 1362 OFFCURVE",
"-320 1373 CURVE",
"-350 1478 LINE",
"-367 1529 OFFCURVE",
"-391 1586 OFFCURVE",
"-422 1649 CURVE",
"-443 1688 OFFCURVE",
"-453 1717 OFFCURVE",
"-453 1734 CURVE SMOOTH"
);
},
{
closed = 1;
nodes = (
"-297 1892 OFFCURVE",
"-282 1915 OFFCURVE",
"-251 1922 CURVE SMOOTH",
"-246 1923 OFFCURVE",
"-242 1923 OFFCURVE",
"-238 1923 CURVE SMOOTH",
"-169 1923 OFFCURVE",
"-141 1815 OFFCURVE",
"-141 1714 CURVE SMOOTH",
"-141 1603 OFFCURVE",
"-152 1529 OFFCURVE",
"-173 1490 CURVE SMOOTH",
"-181 1476 OFFCURVE",
"-190 1469 OFFCURVE",
"-200 1469 CURVE SMOOTH",
"-215 1469 OFFCURVE",
"-226 1483 OFFCURVE",
"-231 1510 CURVE",
"-256 1678 LINE",
"-266 1731 OFFCURVE",
"-279 1783 OFFCURVE",
"-296 1834 CURVE SMOOTH",
"-297 1837 OFFCURVE",
"-297 1844 OFFCURVE",
"-297 1855 CURVE SMOOTH"
);
},
{
closed = 1;
nodes = (
"-152 1448 OFFCURVE",
"-139 1537 OFFCURVE",
"-114 1677 CURVE SMOOTH",
"-101 1756 OFFCURVE",
"-94 1777 OFFCURVE",
"-61 1777 CURVE SMOOTH",
"-36 1777 OFFCURVE",
"-21 1764 OFFCURVE",
"-17 1737 CURVE",
"-17 1728 LINE SMOOTH",
"-17 1701 OFFCURVE",
"-32 1628 OFFCURVE",
"-62 1510 CURVE SMOOTH",
"-76 1453 OFFCURVE",
"-87 1414 OFFCURVE",
"-96 1395 CURVE",
"-101 1382 OFFCURVE",
"-111 1376 OFFCURVE",
"-126 1376 CURVE SMOOTH",
"-139 1376 OFFCURVE",
"-147 1384 OFFCURVE",
"-150 1399 CURVE",
"-151 1402 OFFCURVE",
"-152 1406 OFFCURVE",
"-152 1410 CURVE SMOOTH"
);
},
{
closed = 1;
nodes = (
"-35 1520 OFFCURVE",
"-23 1579 OFFCURVE",
"2 1678 CURVE SMOOTH",
"10 1709 OFFCURVE",
"16 1731 OFFCURVE",
"21 1746 CURVE SMOOTH",
"55 1842 OFFCURVE",
"96 1891 OFFCURVE",
"144 1894 CURVE",
"171 1894 OFFCURVE",
"190 1881 OFFCURVE",
"199 1856 CURVE",
"202 1849 OFFCURVE",
"204 1841 OFFCURVE",
"204 1832 CURVE SMOOTH",
"204 1817 OFFCURVE",
"197 1797 OFFCURVE",
"182 1773 CURVE SMOOTH",
"135 1698 OFFCURVE",
"95 1626 OFFCURVE",
"60 1557 CURVE SMOOTH",
"37 1511 OFFCURVE",
"23 1485 OFFCURVE",
"18 1480 CURVE SMOOTH",
"11 1473 OFFCURVE",
"3 1469 OFFCURVE",
"-6 1469 CURVE SMOOTH",
"-24 1469 OFFCURVE",
"-34 1480 OFFCURVE",
"-35 1501 CURVE"
);
},
{
closed = 1;
nodes = (
"34 1516 OFFCURVE",
"151 1706 OFFCURVE",
"231 1746 CURVE",
"242 1752 OFFCURVE",
"252 1755 OFFCURVE",
"261 1755 CURVE SMOOTH",
"286 1755 OFFCURVE",
"304 1744 OFFCURVE",
"315 1721 CURVE",
"318 1714 OFFCURVE",
"320 1705 OFFCURVE",
"320 1696 CURVE SMOOTH",
"320 1667 OFFCURVE",
"302 1636 OFFCURVE",
"267 1601 CURVE SMOOTH",
"191 1528 LINE",
"150 1485 OFFCURVE",
"120 1440 OFFCURVE",
"101 1391 CURVE",
"88 1369 OFFCURVE",
"75 1357 OFFCURVE",
"64 1355 CURVE",
"50 1355 OFFCURVE",
"41 1363 OFFCURVE",
"36 1379 CURVE",
"35 1384 OFFCURVE",
"34 1388 OFFCURVE",
"34 1393 CURVE SMOOTH"
);
}
);
width = 0;
}
);
unicode = 0043;
},
{
glyphname = D;
layers = (
{
layerId = "79C964D5-2A53-42D4-9C27-6B5AFB4964EF";
name = Regular;
paths = (
{
closed = 1;
nodes = (
"-573 1777 OFFCURVE",
"-544 1798 OFFCURVE",
"-517 1798 CURVE SMOOTH",
"-406 1798 OFFCURVE",
"-376 1553 OFFCURVE",
"-376 1476 CURVE SMOOTH",
"-376 1396 OFFCURVE",
"-389 1356 OFFCURVE",
"-414 1356 CURVE SMOOTH",
"-428 1356 OFFCURVE",
"-437 1362 OFFCURVE",
"-442 1375 CURVE",
"-472 1482 LINE",
"-489 1533 OFFCURVE",
"-512 1588 OFFCURVE",
"-543 1649 CURVE",
"-563 1693 OFFCURVE",
"-573 1721 OFFCURVE",
"-573 1734 CURVE SMOOTH"
);
},
{
closed = 1;
nodes = (
"-418 1892 OFFCURVE",
"-403 1914 OFFCURVE",
"-373 1921 CURVE SMOOTH",
"-368 1922 OFFCURVE",
"-364 1923 OFFCURVE",
"-359 1923 CURVE SMOOTH",
"-296 1923 OFFCURVE",
"-262 1835 OFFCURVE",
"-262 1712 CURVE SMOOTH",
"-262 1596 OFFCURVE",
"-274 1520 OFFCURVE",
"-297 1485 CURVE SMOOTH",
"-304 1474 OFFCURVE",
"-312 1469 OFFCURVE",
"-321 1469 CURVE SMOOTH",
"-335 1469 OFFCURVE",
"-345 1478 OFFCURVE",
"-351 1497 CURVE",
"-351 1554 OFFCURVE",
"-366 1637 OFFCURVE",
"-395 1746 CURVE SMOOTH",
"-410 1802 OFFCURVE",
"-418 1838 OFFCURVE",
"-418 1855 CURVE SMOOTH"
);
},
{
closed = 1;
nodes = (
"-272 1440 OFFCURVE",
"-260 1525 OFFCURVE",
"-237 1664 CURVE SMOOTH",
"-222 1756 OFFCURVE",
"-215 1777 OFFCURVE",
"-182 1777 CURVE",
"-156 1772 OFFCURVE",
"-141 1755 OFFCURVE",
"-138 1728 CURVE",
"-138 1700 OFFCURVE",
"-154 1623 OFFCURVE",
"-186 1496 CURVE SMOOTH",
"-201 1441 OFFCURVE",
"-211 1408 OFFCURVE",
"-217 1395 CURVE",
"-224 1382 OFFCURVE",
"-234 1376 OFFCURVE",
"-247 1376 CURVE SMOOTH",
"-262 1376 OFFCURVE",
"-270 1386 OFFCURVE",
"-272 1407 CURVE"
);
},
{
closed = 1;
nodes = (
"-155 1506 LINE SMOOTH",
"-155 1521 OFFCURVE",
"-142 1580 OFFCURVE",
"-117 1683 CURVE SMOOTH",
"-110 1712 OFFCURVE",
"-104 1733 OFFCURVE",
"-99 1746 CURVE SMOOTH",
"-68 1835 OFFCURVE",
"-31 1884 OFFCURVE",
"12 1893 CURVE",
"16 1894 OFFCURVE",
"20 1894 OFFCURVE",
"23 1894 CURVE SMOOTH",
"50 1894 OFFCURVE",
"69 1881 OFFCURVE",
"78 1856 CURVE SMOOTH",
"81 1848 OFFCURVE",
"83 1840 OFFCURVE",
"83 1831 CURVE SMOOTH",
"83 1816 OFFCURVE",
"76 1798 OFFCURVE",
"63 1777 CURVE SMOOTH",
"17 1702 OFFCURVE",
"-24 1629 OFFCURVE",
"-61 1557 CURVE SMOOTH",
"-95 1489 LINE",
"-104 1476 OFFCURVE",
"-115 1469 OFFCURVE",
"-127 1469 CURVE SMOOTH",
"-143 1469 OFFCURVE",
"-152 1477 OFFCURVE",
"-154 1494 CURVE",
"-155 1496 OFFCURVE",
"-155 1498 OFFCURVE",
"-155 1501 CURVE SMOOTH"
);
},
{
closed = 1;
nodes = (
"-87 1513 OFFCURVE",
"31 1705 OFFCURVE",
"110 1746 CURVE SMOOTH",
"121 1752 OFFCURVE",
"131 1755 OFFCURVE",
"140 1755 CURVE SMOOTH",
"165 1755 OFFCURVE",
"183 1744 OFFCURVE",
"194 1721 CURVE",
"197 1714 OFFCURVE",
"199 1705 OFFCURVE",
"199 1696 CURVE SMOOTH",
"199 1691 LINE SMOOTH",
"199 1670 OFFCURVE",
"179 1639 OFFCURVE",
"138 1597 CURVE SMOOTH",
"35 1490 OFFCURVE",
"7 1459 OFFCURVE",
"-20 1391 CURVE",
"-33 1369 OFFCURVE",
"-46 1357 OFFCURVE",
"-57 1355 CURVE",
"-71 1355 OFFCURVE",
"-80 1363 OFFCURVE",
"-85 1379 CURVE",
"-86 1384 OFFCURVE",
"-87 1388 OFFCURVE",
"-87 1393 CURVE SMOOTH"
);
}
);
width = 0;
}
);
unicode = 0044;
},
{
glyphname = E;
layers = (
{
layerId = "79C964D5-2A53-42D4-9C27-6B5AFB4964EF";
name = Regular;
paths = (
{
closed = 1;
nodes = (
"-713 1770 OFFCURVE",
"-685 1798 OFFCURVE",
"-656 1798 CURVE SMOOTH",
"-549 1798 OFFCURVE",
"-515 1559 OFFCURVE",
"-515 1475 CURVE SMOOTH",
"-515 1397 OFFCURVE",
"-528 1357 OFFCURVE",
"-554 1356 CURVE",
"-567 1356 OFFCURVE",
"-575 1362 OFFCURVE",
"-580 1375 CURVE",
"-611 1482 LINE",
"-628 1533 OFFCURVE",
"-652 1588 OFFCURVE",
"-682 1649 CURVE",
"-703 1688 OFFCURVE",
"-713 1717 OFFCURVE",
"-713 1734 CURVE SMOOTH"
);
},
{
closed = 1;
nodes = (
"-558 1886 OFFCURVE",
"-546 1907 OFFCURVE",
"-522 1918 CURVE",
"-514 1921 OFFCURVE",
"-506 1923 OFFCURVE",
"-498 1923 CURVE SMOOTH",
"-429 1923 OFFCURVE",
"-402 1814 OFFCURVE",
"-402 1710 CURVE SMOOTH",
"-402 1601 OFFCURVE",
"-413 1528 OFFCURVE",
"-434 1489 CURVE SMOOTH",
"-441 1476 OFFCURVE",
"-450 1469 OFFCURVE",
"-460 1469 CURVE SMOOTH",
"-475 1469 OFFCURVE",
"-486 1480 OFFCURVE",
"-491 1502 CURVE",
"-513 1667 LINE",
"-523 1722 OFFCURVE",
"-537 1778 OFFCURVE",
"-556 1834 CURVE",
"-557 1839 OFFCURVE",
"-558 1846 OFFCURVE",
"-558 1855 CURVE SMOOTH"
);
},
{
closed = 1;
nodes = (
"-412 1448 OFFCURVE",
"-399 1537 OFFCURVE",
"-374 1677 CURVE SMOOTH",
"-361 1756 OFFCURVE",
"-354 1777 OFFCURVE",
"-321 1777 CURVE SMOOTH",
"-298 1777 OFFCURVE",
"-284 1766 OFFCURVE",
"-278 1743 CURVE",
"-277 1738 OFFCURVE",
"-277 1733 OFFCURVE",
"-277 1728 CURVE SMOOTH",
"-277 1703 OFFCURVE",
"-293 1627 OFFCURVE",
"-325 1500 CURVE SMOOTH",
"-338 1447 OFFCURVE",
"-349 1412 OFFCURVE",
"-356 1395 CURVE",
"-363 1382 OFFCURVE",
"-373 1376 OFFCURVE",
"-386 1376 CURVE SMOOTH",
"-399 1376 OFFCURVE",
"-407 1384 OFFCURVE",
"-410 1399 CURVE",
"-411 1402 OFFCURVE",
"-412 1406 OFFCURVE",
"-412 1410 CURVE SMOOTH"
);
},
{
closed = 1;
nodes = (
"-295 1520 OFFCURVE",
"-283 1579 OFFCURVE",
"-258 1678 CURVE SMOOTH",
"-250 1709 OFFCURVE",
"-244 1731 OFFCURVE",
"-239 1746 CURVE SMOOTH",
"-205 1842 OFFCURVE",
"-164 1891 OFFCURVE",
"-116 1894 CURVE",
"-89 1894 OFFCURVE",
"-70 1881 OFFCURVE",
"-61 1856 CURVE",
"-58 1849 OFFCURVE",
"-56 1841 OFFCURVE",
"-56 1832 CURVE SMOOTH",
"-56 1817 OFFCURVE",
"-63 1799 OFFCURVE",
"-76 1777 CURVE SMOOTH",
"-123 1702 OFFCURVE",
"-164 1628 OFFCURVE",
"-200 1557 CURVE SMOOTH",
"-223 1512 OFFCURVE",
"-237 1486 OFFCURVE",
"-242 1480 CURVE",
"-249 1473 OFFCURVE",
"-257 1469 OFFCURVE",
"-266 1469 CURVE SMOOTH",
"-284 1469 OFFCURVE",
"-294 1480 OFFCURVE",
"-295 1501 CURVE"
);
},
{
closed = 1;
nodes = (
"-226 1508 OFFCURVE",
"-112 1703 OFFCURVE",
"-31 1746 CURVE SMOOTH",
"-20 1752 OFFCURVE",
"-9 1755 OFFCURVE",
"1 1755 CURVE SMOOTH",
"27 1755 OFFCURVE",
"45 1743 OFFCURVE",
"55 1720 CURVE",
"58 1712 OFFCURVE",
"60 1704 OFFCURVE",
"60 1695 CURVE SMOOTH",
"60 1669 OFFCURVE",
"40 1636 OFFCURVE",
"1 1596 CURVE SMOOTH",
"-78 1516 LINE",
"-117 1473 OFFCURVE",
"-144 1432 OFFCURVE",
"-159 1391 CURVE",
"-172 1369 OFFCURVE",
"-184 1357 OFFCURVE",
"-196 1355 CURVE",
"-216 1355 OFFCURVE",
"-226 1377 OFFCURVE",
"-226 1393 CURVE SMOOTH"
);
}
);
width = 0;
}
);
unicode = 0045;
},
{
glyphname = F;
layers = (
{
layerId = "79C964D5-2A53-42D4-9C27-6B5AFB4964EF";
name = Regular;
paths = (
{
closed = 1;
nodes = (
"-550 1155 OFFCURVE",
"-389 1327 OFFCURVE",
"-67 1643 CURVE SMOOTH",
"9 1718 LINE SMOOTH",
"32 1740 OFFCURVE",
"52 1751 OFFCURVE",
"70 1751 CURVE SMOOTH",
"92 1751 OFFCURVE",
"107 1741 OFFCURVE",
"114 1721 CURVE",
"115 1716 OFFCURVE",
"116 1711 OFFCURVE",
"116 1705 CURVE SMOOTH",
"116 1689 OFFCURVE",
"107 1671 OFFCURVE",
"88 1651 CURVE SMOOTH",
"83 1646 OFFCURVE",
"46 1609 OFFCURVE",
"-24 1542 CURVE SMOOTH",
"-156 1415 OFFCURVE",
"-283 1300 OFFCURVE",
"-404 1197 CURVE SMOOTH",
"-475 1136 OFFCURVE",
"-516 1105 OFFCURVE",
"-526 1104 CURVE",
"-527 1104 OFFCURVE",
"-527 1104 OFFCURVE",
"-528 1104 CURVE SMOOTH",
"-541 1104 OFFCURVE",
"-549 1112 OFFCURVE",
"-550 1127 CURVE"
);
},
{
closed = 1;
nodes = (
"-202 1155 OFFCURVE",
"-41 1327 OFFCURVE",
"281 1643 CURVE SMOOTH",
"357 1718 LINE SMOOTH",
"380 1740 OFFCURVE",
"400 1751 OFFCURVE",
"418 1751 CURVE SMOOTH",
"441 1751 OFFCURVE",
"455 1741 OFFCURVE",
"462 1721 CURVE",
"464 1716 OFFCURVE",
"465 1711 OFFCURVE",
"465 1705 CURVE SMOOTH",
"465 1689 OFFCURVE",
"456 1671 OFFCURVE",
"437 1651 CURVE",
"431 1644 OFFCURVE",
"394 1608 OFFCURVE",
"325 1542 CURVE SMOOTH",
"179 1403 OFFCURVE",
"48 1284 OFFCURVE",
"-69 1185 CURVE SMOOTH",
"-132 1132 OFFCURVE",
"-169 1105 OFFCURVE",
"-178 1104 CURVE",
"-179 1104 OFFCURVE",
"-179 1104 OFFCURVE",
"-180 1104 CURVE SMOOTH",
"-193 1104 OFFCURVE",
"-201 1112 OFFCURVE",
"-202 1127 CURVE"
);
}
);
width = 0;
}
);
unicode = 0046;
},
{
glyphname = H;
layers = (
{
layerId = "79C964D5-2A53-42D4-9C27-6B5AFB4964EF";
name = Regular;
paths = (
{
closed = 1;
nodes = (
"-972 754 OFFCURVE",
"-970 760 OFFCURVE",
"-967 768 CURVE",
"-962 780 OFFCURVE",
"-428 1624 OFFCURVE",
"-135 1811 CURVE SMOOTH",
"-74 1851 OFFCURVE",
"11 1889 OFFCURVE",
"72 1889 CURVE SMOOTH",
"123 1889 OFFCURVE",
"166 1877 OFFCURVE",
"203 1852 CURVE",
"215 1843 LINE",
"266 1865 OFFCURVE",
"303 1878 OFFCURVE",
"326 1883 CURVE SMOOTH",
"344 1887 OFFCURVE",
"362 1889 OFFCURVE",
"379 1889 CURVE SMOOTH",
"510 1889 OFFCURVE",
"583 1787 OFFCURVE",
"583 1676 CURVE SMOOTH",
"583 1535 OFFCURVE",
"439 1373 OFFCURVE",
"304 1332 CURVE SMOOTH",
"282 1325 OFFCURVE",
"261 1322 OFFCURVE",
"242 1322 CURVE SMOOTH",
"177 1322 OFFCURVE",
"134 1350 OFFCURVE",
"111 1405 CURVE SMOOTH",
"104 1421 OFFCURVE",
"100 1436 OFFCURVE",
"100 1449 CURVE SMOOTH",
"100 1496 OFFCURVE",
"126 1543 OFFCURVE",
"178 1590 CURVE SMOOTH",
"211 1619 OFFCURVE",
"236 1634 OFFCURVE",
"254 1635 CURVE",
"257 1635 LINE SMOOTH",
"263 1635 OFFCURVE",
"266 1632 OFFCURVE",
"266 1625 CURVE SMOOTH",
"266 1617 OFFCURVE",
"260 1605 OFFCURVE",
"248 1590 CURVE SMOOTH",
"239 1578 OFFCURVE",
"235 1566 OFFCURVE",
"235 1555 CURVE SMOOTH",
"235 1504 OFFCURVE",
"261 1469 OFFCURVE",
"314 1452 CURVE SMOOTH",
"328 1447 OFFCURVE",
"341 1445 OFFCURVE",
"352 1445 CURVE SMOOTH",
"387 1445 OFFCURVE",
"411 1454 OFFCURVE",
"423 1473 CURVE SMOOTH",
"428 1481 OFFCURVE",
"433 1492 OFFCURVE",
"438 1507 CURVE SMOOTH",
"446 1530 OFFCURVE",
"450 1554 OFFCURVE",
"450 1577 CURVE SMOOTH",
"450 1659 OFFCURVE",
"414 1716 OFFCURVE",
"343 1748 CURVE SMOOTH",
"316 1760 OFFCURVE",
"292 1766 OFFCURVE",
"270 1766 CURVE SMOOTH",
"157 1766 OFFCURVE",
"24 1659 OFFCURVE",
"-130 1445 CURVE SMOOTH",
"-153 1413 LINE SMOOTH",
"-237 1297 OFFCURVE",
"-340 1145 OFFCURVE",
"-461 958 CURVE SMOOTH",
"-549 823 OFFCURVE",
"-585 774 OFFCURVE",
"-646 746 CURVE SMOOTH",
"-654 742 OFFCURVE",
"-660 740 OFFCURVE",
"-665 740 CURVE SMOOTH",
"-672 740 OFFCURVE",
"-676 743 OFFCURVE",
"-676 750 CURVE SMOOTH",
"-676 754 OFFCURVE",
"-674 760 OFFCURVE",
"-671 768 CURVE",
"-666 780 OFFCURVE",
"-203 1483 OFFCURVE",
"-19 1663 CURVE SMOOTH",
"65 1740 LINE",
"40 1757 OFFCURVE",
"10 1766 OFFCURVE",
"-25 1766 CURVE SMOOTH",
"-85 1766 OFFCURVE",
"-143 1743 OFFCURVE",
"-200 1696 CURVE SMOOTH",
"-297 1617 OFFCURVE",
"-437 1441 OFFCURVE",
"-618 1169 CURVE SMOOTH",
"-818 869 LINE SMOOTH",
"-850 822 OFFCURVE",
"-881 774 OFFCURVE",
"-942 746 CURVE SMOOTH",
"-950 742 OFFCURVE",
"-956 740 OFFCURVE",
"-961 740 CURVE SMOOTH",
"-968 740 OFFCURVE",
"-972 743 OFFCURVE",
"-972 750 CURVE SMOOTH"
);
}
);
width = 0;
}
);
unicode = 0048;
},
{
glyphname = J;
layers = (
{
layerId = "79C964D5-2A53-42D4-9C27-6B5AFB4964EF";
name = Regular;
paths = (
{
closed = 1;
nodes = (
"-972 809 OFFCURVE",
"-876 861 OFFCURVE",
"-525 1073 CURVE SMOOTH",
"-305 1206 OFFCURVE",
"-148 1316 OFFCURVE",
"-54 1404 CURVE SMOOTH",
"-31 1425 OFFCURVE",
"-11 1445 OFFCURVE",
"6 1465 CURVE SMOOTH",
"53 1518 OFFCURVE",
"80 1573 OFFCURVE",
"87 1630 CURVE SMOOTH",
"88 1637 OFFCURVE",
"88 1645 OFFCURVE",
"88 1652 CURVE SMOOTH",
"88 1764 OFFCURVE",
"-5 1835 OFFCURVE",
"-104 1835 CURVE SMOOTH",
"-167 1835 OFFCURVE",
"-205 1815 OFFCURVE",
"-218 1775 CURVE SMOOTH",
"-222 1763 OFFCURVE",
"-224 1749 OFFCURVE",
"-224 1733 CURVE SMOOTH",
"-224 1679 OFFCURVE",
"-200 1642 OFFCURVE",
"-153 1623 CURVE SMOOTH",
"-139 1617 OFFCURVE",
"-127 1614 OFFCURVE",
"-116 1614 CURVE SMOOTH",
"-113 1614 OFFCURVE",
"-99 1620 OFFCURVE",
"-72 1633 CURVE",
"-61 1639 OFFCURVE",
"-53 1642 OFFCURVE",
"-48 1642 CURVE SMOOTH",
"-40 1642 OFFCURVE",
"-36 1639 OFFCURVE",
"-36 1633 CURVE SMOOTH",
"-36 1619 OFFCURVE",
"-50 1597 OFFCURVE",
"-79 1568 CURVE SMOOTH",
"-128 1517 OFFCURVE",
"-179 1492 OFFCURVE",
"-230 1492 CURVE SMOOTH",
"-322 1492 OFFCURVE",
"-358 1572 OFFCURVE",
"-358 1631 CURVE SMOOTH",
"-358 1750 OFFCURVE",
"-220 1906 OFFCURVE",
"-65 1947 CURVE SMOOTH",
"-40 1954 OFFCURVE",
"-15 1958 OFFCURVE",
"10 1958 CURVE SMOOTH",
"65 1958 OFFCURVE",
"114 1940 OFFCURVE",
"157 1904 CURVE",
"200 1922 OFFCURVE",
"241 1931 OFFCURVE",
"278 1931 CURVE SMOOTH",
"425 1931 OFFCURVE",
"489 1824 OFFCURVE",
"489 1720 CURVE SMOOTH",
"489 1531 OFFCURVE",
"246 1283 OFFCURVE",
"-45 1076 CURVE SMOOTH",
"-501 758 LINE",
"-524 747 OFFCURVE",
"-538 741 OFFCURVE",
"-543 741 CURVE SMOOTH",
"-550 741 OFFCURVE",
"-554 745 OFFCURVE",
"-554 752 CURVE",
"-553 771 OFFCURVE",
"-535 795 OFFCURVE",
"-500 826 CURVE",
"-495 830 OFFCURVE",
"-491 834 OFFCURVE",
"-486 837 CURVE",
"-269 988 LINE SMOOTH",
"-59 1134 OFFCURVE",
"79 1235 OFFCURVE",
"144 1291 CURVE SMOOTH",
"276 1404 OFFCURVE",
"355 1524 OFFCURVE",
"355 1625 CURVE SMOOTH",
"355 1688 OFFCURVE",
"328 1738 OFFCURVE",
"273 1777 CURVE SMOOTH",
"249 1794 OFFCURVE",
"230 1802 OFFCURVE",
"217 1802 CURVE",
"220 1787 OFFCURVE",
"222 1772 OFFCURVE",
"223 1756 CURVE",
"223 1613 OFFCURVE",
"98 1446 OFFCURVE",
"-153 1253 CURVE SMOOTH",
"-217 1204 OFFCURVE",
"-289 1154 OFFCURVE",
"-368 1103 CURVE SMOOTH",
"-746 862 OFFCURVE",
"-944 741 OFFCURVE",
"-961 741 CURVE SMOOTH",
"-968 741 OFFCURVE",
"-972 744 OFFCURVE",
"-972 750 CURVE SMOOTH"
);
}
);
width = 0;
}
);
unicode = 004A;
},
{
glyphname = M;
layers = (
{
layerId = "79C964D5-2A53-42D4-9C27-6B5AFB4964EF";
name = Regular;
paths = (
{
closed = 1;
nodes = (
"-640 767 OFFCURVE",
"-627 788 OFFCURVE",
"-602 813 CURVE SMOOTH",
"-595 820 OFFCURVE",
"-587 827 OFFCURVE",
"-579 832 CURVE",
"-210 1086 LINE SMOOTH",
"-11 1229 OFFCURVE",
"109 1390 OFFCURVE",
"109 1511 CURVE SMOOTH",
"109 1642 OFFCURVE",
"6 1697 OFFCURVE",
"-79 1697 CURVE SMOOTH",
"-116 1697 OFFCURVE",
"-146 1690 OFFCURVE",
"-167 1676 CURVE",
"-170 1675 OFFCURVE",
"-172 1673 OFFCURVE",
"-173 1671 CURVE",
"-188 1650 OFFCURVE",
"-196 1623 OFFCURVE",
"-196 1590 CURVE SMOOTH",
"-196 1527 OFFCURVE",
"-169 1487 OFFCURVE",
"-116 1468 CURVE SMOOTH",
"-105 1464 OFFCURVE",
"-95 1462 OFFCURVE",
"-86 1461 CURVE",
"-54 1487 OFFCURVE",
"-31 1500 OFFCURVE",
"-16 1500 CURVE SMOOTH",
"-9 1500 OFFCURVE",
"-5 1497 OFFCURVE",
"-5 1490 CURVE SMOOTH",
"-5 1474 OFFCURVE",
"-21 1450 OFFCURVE",
"-53 1417 CURVE SMOOTH",
"-153 1314 OFFCURVE",
"-255 1319 OFFCURVE",
"-306 1400 CURVE SMOOTH",
"-323 1426 OFFCURVE",
"-331 1455 OFFCURVE",
"-331 1487 CURVE SMOOTH",
"-331 1622 OFFCURVE",
"-174 1773 OFFCURVE",
"-35 1812 CURVE SMOOTH",
"-20 1816 OFFCURVE",
"-3 1819 OFFCURVE",
"14 1820 CURVE",
"37 1820 LINE SMOOTH",
"98 1820 OFFCURVE",
"151 1796 OFFCURVE",
"196 1749 CURVE",
"235 1757 OFFCURVE",
"263 1761 OFFCURVE",
"279 1761 CURVE SMOOTH",
"412 1761 OFFCURVE",
"487 1656 OFFCURVE",
"487 1556 CURVE SMOOTH",
"487 1440 OFFCURVE",
"413 1303 OFFCURVE",
"265 1144 CURVE SMOOTH",
"202 1077 OFFCURVE",
"143 1022 OFFCURVE",
"86 979 CURVE SMOOTH",
"-223 757 LINE",
"-246 747 OFFCURVE",
"-260 742 OFFCURVE",
"-263 741 CURVE",
"-270 741 OFFCURVE",
"-274 744 OFFCURVE",
"-274 751 CURVE SMOOTH",
"-274 780 OFFCURVE",
"-208 840 OFFCURVE",
"-77 933 CURVE SMOOTH",
"85 1047 LINE",
"226 1158 OFFCURVE",
"353 1328 OFFCURVE",
"353 1453 CURVE SMOOTH",
"353 1508 OFFCURVE",
"331 1555 OFFCURVE",
"286 1596 CURVE SMOOTH",
"267 1613 OFFCURVE",
"253 1622 OFFCURVE",
"244 1622 CURVE",
"244 1614 LINE SMOOTH",
"244 1467 OFFCURVE",
"91 1243 OFFCURVE",
"-188 1034 CURVE SMOOTH",
"-289 959 OFFCURVE",
"-398 882 OFFCURVE",
"-517 804 CURVE SMOOTH",
"-582 762 OFFCURVE",
"-620 741 OFFCURVE",
"-629 741 CURVE SMOOTH",
"-636 741 OFFCURVE",
"-640 744 OFFCURVE",
"-640 751 CURVE SMOOTH"
);
}
);
width = 0;
}
);
unicode = 004D;
},
{
glyphname = N;
layers = (
{
layerId = "79C964D5-2A53-42D4-9C27-6B5AFB4964EF";
name = Regular;
paths = (
{
closed = 1;
nodes = (
"-624 762 OFFCURVE",
"-564 882 OFFCURVE",
"-445 1112 CURVE SMOOTH",
"-415 1169 LINE SMOOTH",
"-295 1398 OFFCURVE",
"-54 1717 OFFCURVE",
"175 1742 CURVE SMOOTH",
"182 1743 OFFCURVE",
"189 1743 OFFCURVE",
"196 1743 CURVE SMOOTH",
"234 1743 OFFCURVE",
"267 1734 OFFCURVE",
"296 1715 CURVE SMOOTH",
"313 1703 OFFCURVE",
"310 1700 OFFCURVE",
"351 1719 CURVE SMOOTH",
"384 1735 OFFCURVE",
"419 1743 OFFCURVE",
"458 1743 CURVE SMOOTH",
"589 1743 OFFCURVE",
"663 1640 OFFCURVE",
"663 1528 CURVE SMOOTH",
"663 1355 OFFCURVE",
"497 1210 OFFCURVE",
"374 1181 CURVE SMOOTH",
"359 1178 OFFCURVE",
"345 1176 OFFCURVE",
"332 1176 CURVE SMOOTH",
"277 1176 OFFCURVE",
"236 1196 OFFCURVE",
"209 1236 CURVE SMOOTH",
"196 1256 OFFCURVE",
"190 1278 OFFCURVE",
"190 1301 CURVE SMOOTH",
"190 1347 OFFCURVE",
"216 1392 OFFCURVE",
"268 1437 CURVE SMOOTH",
"300 1464 OFFCURVE",
"324 1477 OFFCURVE",
"340 1477 CURVE SMOOTH",
"347 1477 OFFCURVE",
"351 1474 OFFCURVE",
"351 1467 CURVE SMOOTH",
"351 1460 OFFCURVE",
"345 1448 OFFCURVE",
"334 1432 CURVE",
"327 1423 OFFCURVE",
"324 1414 OFFCURVE",
"324 1407 CURVE SMOOTH",
"324 1358 OFFCURVE",
"349 1325 OFFCURVE",
"399 1307 CURVE SMOOTH",
"414 1302 OFFCURVE",
"428 1299 OFFCURVE",
"440 1299 CURVE SMOOTH",
"503 1299 OFFCURVE",
"514 1323 OFFCURVE",
"527 1392 CURVE",
"528 1399 OFFCURVE",
"529 1409 OFFCURVE",
"529 1424 CURVE SMOOTH",
"529 1510 OFFCURVE",
"493 1569 OFFCURVE",
"420 1602 CURVE SMOOTH",
"393 1614 OFFCURVE",
"369 1620 OFFCURVE",
"346 1620 CURVE SMOOTH",
"154 1620 OFFCURVE",
"26 1349 OFFCURVE",
"-134 1033 CURVE SMOOTH",
"-201 902 OFFCURVE",
"-235 835 OFFCURVE",
"-236 832 CURVE",
"-253 803 OFFCURVE",
"-279 778 OFFCURVE",
"-315 755 CURVE",
"-331 746 OFFCURVE",
"-343 741 OFFCURVE",
"-351 741 CURVE SMOOTH",
"-359 741 OFFCURVE",
"-363 745 OFFCURVE",
"-363 752 CURVE SMOOTH",
"-363 761 OFFCURVE",
"-303 883 OFFCURVE",
"-182 1116 CURVE SMOOTH",
"-154 1169 LINE SMOOTH",
"-64 1340 OFFCURVE",
"43 1484 OFFCURVE",
"168 1599 CURVE",
"143 1613 OFFCURVE",
"116 1620 OFFCURVE",
"87 1620 CURVE SMOOTH",
"-100 1620 OFFCURVE",
"-223 1373 OFFCURVE",
"-387 1048 CURVE SMOOTH",
"-497 832 LINE",
"-514 803 OFFCURVE",
"-540 778 OFFCURVE",
"-576 755 CURVE",
"-592 746 OFFCURVE",
"-604 741 OFFCURVE",
"-613 741 CURVE SMOOTH",
"-620 741 OFFCURVE",
"-624 745 OFFCURVE",
"-624 752 CURVE SMOOTH"
);
}
);
width = 0;
}
);
unicode = 004E;
},
{
glyphname = Q;
layers = (
{
layerId = "79C964D5-2A53-42D4-9C27-6B5AFB4964EF";
name = Regular;
paths = (
{
closed = 1;
nodes = (
"-1657 -2216 OFFCURVE",
"-1629 -2180 OFFCURVE",
"-1573 -2131 CURVE SMOOTH",
"-1519 -2081 LINE SMOOTH",
"-1452 -2021 OFFCURVE",
"-1358 -1929 OFFCURVE",
"-1237 -1806 CURVE SMOOTH",
"-1067 -1624 LINE SMOOTH",
"-639 -1151 OFFCURVE",
"-298 -639 OFFCURVE",
"-43 -88 CURVE SMOOTH",
"2 11 LINE",
"112 289 LINE SMOOTH",
"168 439 OFFCURVE",
"230 615 OFFCURVE",
"299 817 CURVE SMOOTH",
"375 1039 LINE SMOOTH",
"543 1525 OFFCURVE",
"722 1892 OFFCURVE",
"911 2139 CURVE SMOOTH",
"986 2237 OFFCURVE",
"1075 2332 OFFCURVE",
"1179 2425 CURVE SMOOTH",
"1219 2461 OFFCURVE",
"1252 2479 OFFCURVE",
"1278 2479 CURVE",
"1285 2478 OFFCURVE",
"1289 2473 OFFCURVE",
"1289 2465 CURVE SMOOTH",
"1289 2446 OFFCURVE",
"1265 2413 OFFCURVE",
"1216 2365 CURVE SMOOTH",
"1164 2314 OFFCURVE",
"1134 2283 OFFCURVE",
"1125 2274 CURVE",
"972 2107 OFFCURVE",
"832 1874 OFFCURVE",
"706 1575 CURVE SMOOTH",
"642 1415 LINE SMOOTH",
"608 1326 OFFCURVE",
"550 1161 OFFCURVE",
"467 920 CURVE SMOOTH",
"370 641 LINE",
"355 596 LINE",
"355 601 OFFCURVE",
"399 640 OFFCURVE",
"488 711 CURVE SMOOTH",
"509 728 OFFCURVE",
"526 741 OFFCURVE",
"537 749 CURVE SMOOTH",
"653 833 OFFCURVE",
"753 879 OFFCURVE",
"836 886 CURVE SMOOTH",
"848 887 OFFCURVE",
"861 888 OFFCURVE",
"875 888 CURVE SMOOTH",
"888 888 OFFCURVE",
"897 888 OFFCURVE",
"903 887 CURVE",
"1010 887 OFFCURVE",
"1154 780 OFFCURVE",
"1162 615 CURVE",
"1162 601 LINE SMOOTH",
"1162 498 OFFCURVE",
"1115 390 OFFCURVE",
"1021 279 CURVE SMOOTH",
"1008 263 OFFCURVE",
"993 247 OFFCURVE",
"978 232 CURVE SMOOTH",
"899 151 OFFCURVE",
"818 93 OFFCURVE",
"734 60 CURVE SMOOTH",
"706 49 OFFCURVE",
"689 42 OFFCURVE",
"684 39 CURVE",
"661 24 OFFCURVE",
"639 16 OFFCURVE",
"619 16 CURVE SMOOTH",
"473 18 LINE SMOOTH",
"379 18 OFFCURVE",
"278 13 OFFCURVE",
"171 4 CURVE SMOOTH",
"141 1 OFFCURVE",
"124 -1 OFFCURVE",
"120 -3 CURVE",
"118 -3 OFFCURVE",
"114 -9 OFFCURVE",
"109 -22 CURVE",
"-110 -485 OFFCURVE",
"-386 -922 OFFCURVE",
"-719 -1333 CURVE SMOOTH",
"-833 -1470 LINE",
"-1066 -1731 LINE",
"-1110 -1777 LINE SMOOTH",
"-1170 -1844 OFFCURVE",
"-1283 -1955 OFFCURVE",
"-1449 -2110 CURVE SMOOTH",
"-1560 -2212 LINE",
"-1593 -2240 OFFCURVE",
"-1621 -2254 OFFCURVE",
"-1642 -2254 CURVE SMOOTH",
"-1652 -2254 OFFCURVE",
"-1657 -2250 OFFCURVE",
"-1657 -2241 CURVE SMOOTH"
);
},
{
closed = 1;
nodes = (
"314 152 OFFCURVE",
"456 161 OFFCURVE",
"607 162 CURVE SMOOTH",
"880 162 OFFCURVE",
"971 298 OFFCURVE",
"987 437 CURVE SMOOTH",
"988 448 OFFCURVE",
"988 459 OFFCURVE",
"988 470 CURVE",
"983 657 OFFCURVE",
"844 729 OFFCURVE",
"725 729 CURVE SMOOTH",
"616 729 OFFCURVE",
"442 624 OFFCURVE",
"319 437 CURVE SMOOTH",
"288 391 OFFCURVE",
"248 309 OFFCURVE",
"199 190 CURVE SMOOTH",
"186 157 OFFCURVE",
"179 138 OFFCURVE",
"179 134 CURVE"
);
}
);
width = 1271;
}
);
unicode = 0051;
},
{
glyphname = R;
layers = (
{
layerId = "79C964D5-2A53-42D4-9C27-6B5AFB4964EF";
name = Regular;
paths = (
{
closed = 1;
nodes = (
"-708 1136 OFFCURVE",
"-697 1151 OFFCURVE",
"-676 1172 CURVE",
"-626 1217 LINE SMOOTH",
"-515 1316 OFFCURVE",
"-381 1429 OFFCURVE",
"-223 1556 CURVE SMOOTH",
"-102 1653 OFFCURVE",
"-34 1703 OFFCURVE",
"-17 1705 CURVE",
"-12 1706 OFFCURVE",
"-8 1707 OFFCURVE",
"-3 1707 CURVE SMOOTH",
"32 1707 OFFCURVE",
"44 1681 OFFCURVE",
"44 1661 CURVE SMOOTH",
"44 1644 OFFCURVE",
"34 1627 OFFCURVE",
"15 1609 CURVE",
"6 1602 OFFCURVE",
"-47 1560 OFFCURVE",
"-146 1483 CURVE SMOOTH",
"-316 1353 OFFCURVE",
"-463 1246 OFFCURVE",
"-587 1163 CURVE SMOOTH",
"-644 1124 OFFCURVE",
"-677 1105 OFFCURVE",
"-686 1105 CURVE SMOOTH",
"-696 1105 OFFCURVE",
"-703 1109 OFFCURVE",
"-707 1118 CURVE",
"-708 1121 OFFCURVE",
"-708 1123 OFFCURVE",
"-708 1126 CURVE SMOOTH"
);
},
{
closed = 1;
nodes = (
"-360 1136 OFFCURVE",
"-350 1151 OFFCURVE",
"-329 1170 CURVE SMOOTH",
"-277 1217 LINE SMOOTH",
"-136 1344 OFFCURVE",
"41 1489 OFFCURVE",
"253 1654 CURVE SMOOTH",
"308 1699 OFFCURVE",
"321 1707 OFFCURVE",
"345 1707 CURVE SMOOTH",
"370 1707 OFFCURVE",
"386 1694 OFFCURVE",
"391 1669 CURVE",
"392 1666 OFFCURVE",
"392 1664 OFFCURVE",
"392 1661 CURVE SMOOTH",
"392 1644 OFFCURVE",
"382 1627 OFFCURVE",
"363 1609 CURVE",
"354 1602 OFFCURVE",
"301 1560 OFFCURVE",
"202 1483 CURVE SMOOTH",
"32 1353 OFFCURVE",
"-115 1246 OFFCURVE",
"-239 1163 CURVE SMOOTH",
"-296 1124 OFFCURVE",
"-329 1105 OFFCURVE",
"-338 1105 CURVE SMOOTH",
"-349 1105 OFFCURVE",
"-356 1110 OFFCURVE",
"-359 1120 CURVE",
"-360 1122 OFFCURVE",
"-360 1124 OFFCURVE",
"-360 1126 CURVE SMOOTH"
);
}
);
width = 0;
}
);
unicode = 0052;
},
{
glyphname = U;
layers = (
{
layerId = "79C964D5-2A53-42D4-9C27-6B5AFB4964EF";
name = Regular;
paths = (
{
closed = 1;
nodes = (
"-1371 783 OFFCURVE",
"-1319 829 OFFCURVE",
"-1294 844 CURVE SMOOTH",
"-751 1164 LINE SMOOTH",
"-549 1287 OFFCURVE",
"-413 1386 OFFCURVE",
"-344 1462 CURVE SMOOTH",
"-291 1521 OFFCURVE",
"-259 1585 OFFCURVE",
"-259 1644 CURVE SMOOTH",
"-259 1776 OFFCURVE",
"-364 1830 OFFCURVE",
"-451 1830 CURVE SMOOTH",
"-492 1830 OFFCURVE",
"-523 1822 OFFCURVE",
"-544 1807 CURVE",
"-549 1803 OFFCURVE",
"-553 1799 OFFCURVE",
"-556 1794 CURVE",
"-566 1773 OFFCURVE",
"-571 1751 OFFCURVE",
"-571 1730 CURVE SMOOTH",
"-571 1677 OFFCURVE",
"-548 1641 OFFCURVE",
"-501 1621 CURVE",
"-488 1616 OFFCURVE",
"-476 1613 OFFCURVE",
"-465 1613 CURVE SMOOTH",
"-457 1613 OFFCURVE",
"-444 1619 OFFCURVE",
"-425 1630 CURVE",
"-415 1637 OFFCURVE",
"-406 1640 OFFCURVE",
"-397 1640 CURVE SMOOTH",
"-390 1640 OFFCURVE",
"-386 1636 OFFCURVE",
"-386 1629 CURVE SMOOTH",
"-386 1617 OFFCURVE",
"-400 1597 OFFCURVE",
"-428 1568 CURVE SMOOTH",
"-477 1517 OFFCURVE",
"-527 1491 OFFCURVE",
"-578 1491 CURVE SMOOTH",
"-674 1491 OFFCURVE",
"-705 1575 OFFCURVE",
"-705 1628 CURVE SMOOTH",
"-705 1753 OFFCURVE",
"-574 1872 OFFCURVE",
"-475 1919 CURVE SMOOTH",
"-430 1941 OFFCURVE",
"-388 1952 OFFCURVE",
"-349 1952 CURVE SMOOTH",
"-288 1952 OFFCURVE",
"-238 1937 OFFCURVE",
"-199 1907 CURVE",
"-193 1902 OFFCURVE",
"-190 1900 OFFCURVE",
"-189 1900 CURVE",
"-143 1919 LINE",
"-114 1928 OFFCURVE",
"-83 1933 OFFCURVE",
"-48 1933 CURVE SMOOTH",
"76 1933 OFFCURVE",
"158 1837 OFFCURVE",
"158 1728 CURVE SMOOTH",
"158 1589 OFFCURVE",
"42 1425 OFFCURVE",
"-189 1234 CURVE SMOOTH",
"-253 1182 OFFCURVE",
"-324 1130 OFFCURVE",
"-401 1077 CURVE SMOOTH",
"-733 853 OFFCURVE",
"-908 741 OFFCURVE",
"-925 741 CURVE SMOOTH",
"-932 741 OFFCURVE",
"-936 744 OFFCURVE",
"-936 750 CURVE SMOOTH",
"-936 799 OFFCURVE",
"-880 830 OFFCURVE",
"-632 993 CURVE SMOOTH",
"-407 1142 OFFCURVE",
"-260 1244 OFFCURVE",
"-190 1301 CURVE SMOOTH",
"-49 1416 OFFCURVE",
"24 1527 OFFCURVE",
"24 1626 CURVE SMOOTH",
"24 1688 OFFCURVE",
"-3 1738 OFFCURVE",
"-56 1777 CURVE SMOOTH",
"-85 1797 OFFCURVE",
"-109 1807 OFFCURVE",
"-130 1807 CURVE",
"-131 1806 LINE",
"-127 1789 OFFCURVE",
"-125 1771 OFFCURVE",
"-124 1751 CURVE",
"-124 1612 OFFCURVE",
"-245 1452 OFFCURVE",
"-486 1270 CURVE SMOOTH",
"-558 1215 OFFCURVE",
"-639 1161 OFFCURVE",
"-728 1107 CURVE SMOOTH",
"-1338 747 LINE",
"-1347 743 OFFCURVE",
"-1355 741 OFFCURVE",
"-1360 741 CURVE SMOOTH",
"-1367 741 OFFCURVE",
"-1371 744 OFFCURVE",
"-1371 751 CURVE SMOOTH"
);
}
);
width = 0;
}
);
unicode = 0055;
},
{
glyphname = V;
layers = (
{
layerId = "79C964D5-2A53-42D4-9C27-6B5AFB4964EF";
name = Regular;
paths = (
{
closed = 1;
nodes = (
"-425 1163 OFFCURVE",
"7 1708 OFFCURVE",
"40 1735 CURVE SMOOTH",
"56 1749 OFFCURVE",
"71 1756 OFFCURVE",
"85 1756 CURVE SMOOTH",
"106 1756 OFFCURVE",
"120 1747 OFFCURVE",
"128 1728 CURVE",
"131 1722 OFFCURVE",
"132 1716 OFFCURVE",
"132 1709 CURVE SMOOTH",
"132 1690 OFFCURVE",
"117 1662 OFFCURVE",
"86 1626 CURVE SMOOTH",
"-31 1493 LINE SMOOTH",
"-252 1238 OFFCURVE",
"-377 1108 OFFCURVE",
"-406 1103 CURVE",
"-421 1103 OFFCURVE",
"-428 1111 OFFCURVE",
"-428 1128 CURVE"
);
},
{
closed = 1;
nodes = (
"-77 1159 OFFCURVE",
"309 1656 OFFCURVE",
"388 1735 CURVE",
"404 1749 OFFCURVE",
"419 1756 OFFCURVE",
"433 1756 CURVE SMOOTH",
"462 1756 OFFCURVE",
"480 1732 OFFCURVE",
"480 1708 CURVE SMOOTH",
"480 1690 OFFCURVE",
"464 1662 OFFCURVE",
"431 1623 CURVE SMOOTH",
"318 1493 LINE SMOOTH",
"91 1233 OFFCURVE",
"-35 1103 OFFCURVE",
"-58 1103 CURVE SMOOTH",
"-73 1103 OFFCURVE",
"-80 1111 OFFCURVE",
"-80 1128 CURVE"
);
}
);
width = 0;
}
);
unicode = 0056;
},
{
glyphname = W;
layers = (
{
layerId = "79C964D5-2A53-42D4-9C27-6B5AFB4964EF";
name = Regular;
paths = (
{
closed = 1;
nodes = (
"-1657 -2216 OFFCURVE",
"-1629 -2180 OFFCURVE",
"-1573 -2131 CURVE SMOOTH",
"-1519 -2081 LINE SMOOTH",
"-1452 -2021 OFFCURVE",
"-1358 -1929 OFFCURVE",
"-1237 -1806 CURVE SMOOTH",
"-1067 -1624 LINE SMOOTH",
"-639 -1151 OFFCURVE",
"-298 -639 OFFCURVE",
"-43 -88 CURVE SMOOTH",
"2 11 LINE",
"112 289 LINE SMOOTH",
"168 439 OFFCURVE",
"230 615 OFFCURVE",
"299 817 CURVE SMOOTH",
"375 1039 LINE SMOOTH",
"543 1525 OFFCURVE",
"722 1892 OFFCURVE",
"911 2139 CURVE SMOOTH",
"986 2237 OFFCURVE",
"1075 2332 OFFCURVE",
"1179 2425 CURVE SMOOTH",
"1219 2461 OFFCURVE",
"1252 2479 OFFCURVE",
"1278 2479 CURVE",
"1285 2478 OFFCURVE",
"1289 2473 OFFCURVE",
"1289 2465 CURVE SMOOTH",
"1289 2446 OFFCURVE",
"1265 2413 OFFCURVE",
"1216 2365 CURVE SMOOTH",
"1164 2314 OFFCURVE",
"1134 2283 OFFCURVE",
"1125 2274 CURVE",
"972 2107 OFFCURVE",
"832 1874 OFFCURVE",
"706 1575 CURVE SMOOTH",
"642 1415 LINE SMOOTH",
"607 1326 OFFCURVE",
"539 1132 OFFCURVE",
"438 834 CURVE SMOOTH",
"365 626 LINE",
"366 626 OFFCURVE",
"369 629 OFFCURVE",
"375 635 CURVE SMOOTH",
"477 735 OFFCURVE",
"567 805 OFFCURVE",
"645 844 CURVE SMOOTH",
"705 873 OFFCURVE",
"761 888 OFFCURVE",
"813 888 CURVE SMOOTH",
"977 888 OFFCURVE",
"1068 743 OFFCURVE",
"1077 626 CURVE",
"1078 619 OFFCURVE",
"1078 615 OFFCURVE",
"1079 615 CURVE",
"1134 672 LINE",
"1202 731 LINE SMOOTH",
"1323 831 OFFCURVE",
"1428 883 OFFCURVE",
"1516 888 CURVE",
"1533 888 LINE SMOOTH",
"1681 888 OFFCURVE",
"1796 767 OFFCURVE",
"1796 600 CURVE SMOOTH",
"1796 399 OFFCURVE",
"1618 165 OFFCURVE",
"1425 66 CURVE SMOOTH",
"1395 51 OFFCURVE",
"1366 39 OFFCURVE",
"1337 30 CURVE SMOOTH",
"1328 27 OFFCURVE",
"1316 22 OFFCURVE",
"1301 14 CURVE",
"1296 11 OFFCURVE",
"1282 10 OFFCURVE",
"1261 10 CURVE SMOOTH",
"737 19 LINE SMOOTH",
"590 19 OFFCURVE",
"418 13 OFFCURVE",
"222 2 CURVE SMOOTH",
"162 -2 OFFCURVE",
"126 -5 OFFCURVE",
"115 -8 CURVE",
"108 -24 OFFCURVE",
"85 -71 OFFCURVE",
"47 -149 CURVE SMOOTH",
"-41 -319 LINE SMOOTH",
"-192 -601 OFFCURVE",
"-368 -873 OFFCURVE",
"-567 -1135 CURVE SMOOTH",
"-719 -1333 LINE",
"-833 -1470 LINE",
"-1066 -1731 LINE",
"-1110 -1777 LINE SMOOTH",
"-1170 -1844 OFFCURVE",
"-1283 -1955 OFFCURVE",
"-1449 -2110 CURVE SMOOTH",
"-1560 -2212 LINE",
"-1593 -2240 OFFCURVE",
"-1621 -2254 OFFCURVE",
"-1642 -2254 CURVE SMOOTH",
"-1652 -2254 OFFCURVE",
"-1657 -2250 OFFCURVE",
"-1657 -2241 CURVE SMOOTH"
);
},
{
closed = 1;
nodes = (
"179 131 LINE",
"356 146 LINE SMOOTH",
"426 151 OFFCURVE",
"513 155 OFFCURVE",
"618 159 CURVE SMOOTH",
"797 164 OFFCURVE",
"871 251 OFFCURVE",
"899 403 CURVE SMOOTH",
"902 423 OFFCURVE",
"904 443 OFFCURVE",
"904 462 CURVE SMOOTH",
"904 571 OFFCURVE",
"861 650 OFFCURVE",
"774 697 CURVE SMOOTH",
"735 718 OFFCURVE",
"700 729 OFFCURVE",
"667 729 CURVE SMOOTH",
"613 729 OFFCURVE",
"557 704 OFFCURVE",
"498 654 CURVE SMOOTH",
"457 617 LINE SMOOTH",
"376 539 OFFCURVE",
"308 439 OFFCURVE",
"253 316 CURVE SMOOTH",
"244 295 OFFCURVE",
"235 274 OFFCURVE",
"226 252 CURVE SMOOTH",
"182 142 LINE",
"179 137 OFFCURVE",
"178 133 OFFCURVE",
"178 132 CURVE"
);
},
{
closed = 1;
nodes = (
"852 163 LINE",
"1328 154 LINE SMOOTH",
"1433 154 OFFCURVE",
"1511 192 OFFCURVE",
"1561 269 CURVE SMOOTH",
"1572 285 OFFCURVE",
"1582 303 OFFCURVE",
"1591 324 CURVE SMOOTH",
"1612 370 OFFCURVE",
"1622 417 OFFCURVE",
"1622 465 CURVE SMOOTH",
"1622 474 LINE SMOOTH",
"1622 631 OFFCURVE",
"1491 729 OFFCURVE",
"1387 729 CURVE SMOOTH",
"1380 729 OFFCURVE",
"1375 729 OFFCURVE",
"1372 728 CURVE",
"1235 728 OFFCURVE",
"1166 608 OFFCURVE",
"1039 407 CURVE SMOOTH",
"976 306 OFFCURVE",
"921 233 OFFCURVE",
"875 186 CURVE SMOOTH"
);
}
);
width = 1921;
}
);
unicode = 0057;
},
{
glyphname = Y;
layers = (
{
layerId = "79C964D5-2A53-42D4-9C27-6B5AFB4964EF";
name = Regular;
paths = (
{
closed = 1;
nodes = (
"-1316 740 OFFCURVE",
"-1320 744 OFFCURVE",
"-1320 751 CURVE SMOOTH",
"-1320 758 OFFCURVE",
"-1316 768 OFFCURVE",
"-1307 781 CURVE",
"-877 1305 LINE",
"-867 1317 LINE SMOOTH",
"-644 1586 OFFCURVE",
"-453 1750 OFFCURVE",
"-293 1809 CURVE SMOOTH",
"-254 1823 OFFCURVE",
"-219 1830 OFFCURVE",
"-187 1830 CURVE SMOOTH",
"-127 1830 OFFCURVE",
"-78 1814 OFFCURVE",
"-39 1782 CURVE",
"26 1814 OFFCURVE",
"85 1830 OFFCURVE",
"138 1830 CURVE SMOOTH",
"289 1830 OFFCURVE",
"344 1717 OFFCURVE",
"344 1622 CURVE SMOOTH",
"344 1466 OFFCURVE",
"189 1311 OFFCURVE",
"52 1272 CURVE",
"31 1267 OFFCURVE",
"12 1264 OFFCURVE",
"-6 1264 CURVE SMOOTH",
"-59 1264 OFFCURVE",
"-99 1284 OFFCURVE",
"-126 1324 CURVE SMOOTH",
"-140 1345 OFFCURVE",
"-147 1368 OFFCURVE",
"-147 1393 CURVE SMOOTH",
"-147 1444 OFFCURVE",
"-119 1494 OFFCURVE",
"-64 1543 CURVE SMOOTH",
"-31 1572 OFFCURVE",
"-5 1587 OFFCURVE",
"12 1588 CURVE",
"19 1588 OFFCURVE",
"23 1585 OFFCURVE",
"23 1578 CURVE SMOOTH",
"23 1569 OFFCURVE",
"17 1557 OFFCURVE",
"5 1542 CURVE SMOOTH",
"-7 1527 OFFCURVE",
"-13 1513 OFFCURVE",
"-13 1498 CURVE SMOOTH",
"-13 1417 OFFCURVE",
"58 1387 OFFCURVE",
"107 1387 CURVE SMOOTH",
"108 1387 OFFCURVE",
"109 1387 OFFCURVE",
"110 1387 CURVE SMOOTH",
"153 1387 OFFCURVE",
"179 1400 OFFCURVE",
"188 1427 CURVE",
"203 1455 OFFCURVE",
"210 1486 OFFCURVE",
"210 1520 CURVE SMOOTH",
"210 1649 OFFCURVE",
"110 1708 OFFCURVE",
"25 1708 CURVE SMOOTH",
"-88 1708 OFFCURVE",
"-231 1608 OFFCURVE",
"-403 1407 CURVE SMOOTH",
"-698 1051 LINE",
"-862 849 LINE SMOOTH",
"-924 777 OFFCURVE",
"-968 741 OFFCURVE",
"-995 741 CURVE SMOOTH",
"-998 741 LINE SMOOTH",
"-1004 741 OFFCURVE",
"-1007 744 OFFCURVE",
"-1007 750 CURVE SMOOTH",
"-1007 758 OFFCURVE",
"-1003 768 OFFCURVE",
"-994 781 CURVE",
"-554 1317 LINE SMOOTH",
"-433 1463 OFFCURVE",
"-324 1576 OFFCURVE",
"-227 1655 CURVE",
"-212 1666 OFFCURVE",
"-201 1676 OFFCURVE",
"-194 1683 CURVE",
"-194 1692 OFFCURVE",
"-246 1707 OFFCURVE",
"-289 1707 CURVE SMOOTH",
"-402 1707 OFFCURVE",
"-542 1610 OFFCURVE",
"-709 1416 CURVE SMOOTH",
"-1010 1053 LINE SMOOTH",
"-1143 890 OFFCURVE",
"-1214 804 OFFCURVE",
"-1222 796 CURVE SMOOTH",
"-1249 768 OFFCURVE",
"-1274 750 OFFCURVE",
"-1299 742 CURVE",
"-1303 741 OFFCURVE",
"-1306 740 OFFCURVE",
"-1309 740 CURVE SMOOTH"
);
}
);
width = 0;
}
);
unicode = 0059;
},
{
glyphname = asciicircum;
layers = (
{
layerId = "79C964D5-2A53-42D4-9C27-6B5AFB4964EF";
name = Regular;
paths = (
{
closed = 1;
nodes = (
"-1634 761 OFFCURVE",
"-1626 775 OFFCURVE",
"-1611 793 CURVE SMOOTH",
"-1309 1137 OFFCURVE",
"-1119 1351 OFFCURVE",
"-1040 1434 CURVE SMOOTH",
"-933 1547 OFFCURVE",
"-836 1634 OFFCURVE",
"-750 1696 CURVE SMOOTH",
"-719 1718 LINE SMOOTH",
"-619 1787 OFFCURVE",
"-529 1824 OFFCURVE",
"-448 1831 CURVE SMOOTH",
"-429 1832 LINE",
"-371 1832 OFFCURVE",
"-321 1813 OFFCURVE",
"-279 1774 CURVE",
"-220 1802 OFFCURVE",
"-174 1819 OFFCURVE",
"-141 1825 CURVE",
"-120 1830 OFFCURVE",
"-100 1832 OFFCURVE",
"-80 1832 CURVE SMOOTH",
"53 1832 OFFCURVE",
"128 1732 OFFCURVE",
"128 1627 CURVE SMOOTH",
"128 1468 OFFCURVE",
"-30 1311 OFFCURVE",
"-166 1274 CURVE SMOOTH",
"-186 1269 OFFCURVE",
"-205 1266 OFFCURVE",
"-223 1266 CURVE SMOOTH",
"-277 1266 OFFCURVE",
"-318 1286 OFFCURVE",
"-345 1326 CURVE SMOOTH",
"-360 1347 OFFCURVE",
"-367 1371 OFFCURVE",
"-367 1396 CURVE SMOOTH",
"-367 1480 OFFCURVE",
"-261 1590 OFFCURVE",
"-205 1594 CURVE",
"-198 1594 OFFCURVE",
"-195 1591 OFFCURVE",
"-195 1584 CURVE SMOOTH",
"-195 1574 OFFCURVE",
"-201 1561 OFFCURVE",
"-214 1546 CURVE SMOOTH",
"-227 1531 OFFCURVE",
"-233 1515 OFFCURVE",
"-233 1498 CURVE SMOOTH",
"-233 1447 OFFCURVE",
"-188 1389 OFFCURVE",
"-112 1389 CURVE SMOOTH",
"-64 1389 OFFCURVE",
"-33 1408 OFFCURVE",
"-19 1447 CURVE",
"-14 1463 OFFCURVE",
"-6 1495 OFFCURVE",
"-6 1523 CURVE SMOOTH",
"-6 1642 OFFCURVE",
"-98 1709 OFFCURVE",
"-191 1709 CURVE SMOOTH",
"-312 1709 OFFCURVE",
"-470 1601 OFFCURVE",
"-665 1385 CURVE SMOOTH",
"-971 1039 LINE SMOOTH",
"-1109 883 OFFCURVE",
"-1178 805 OFFCURVE",
"-1179 804 CURVE SMOOTH",
"-1207 777 LINE SMOOTH",
"-1232 753 OFFCURVE",
"-1255 741 OFFCURVE",
"-1274 741 CURVE SMOOTH",
"-1282 741 OFFCURVE",
"-1286 744 OFFCURVE",
"-1286 751 CURVE SMOOTH",
"-1286 761 OFFCURVE",
"-1278 775 OFFCURVE",
"-1263 793 CURVE SMOOTH",
"-970 1128 OFFCURVE",
"-780 1341 OFFCURVE",
"-694 1431 CURVE SMOOTH",
"-598 1532 OFFCURVE",
"-510 1614 OFFCURVE",
"-431 1675 CURVE",
"-431 1686 OFFCURVE",
"-499 1709 OFFCURVE",
"-539 1709 CURVE SMOOTH",
"-662 1709 OFFCURVE",
"-825 1596 OFFCURVE",
"-1026 1370 CURVE",
"-960 1445 OFFCURVE",
"-976 1427 OFFCURVE",
"-1074 1316 CURVE SMOOTH",
"-1319 1039 LINE SMOOTH",
"-1457 883 OFFCURVE",
"-1526 805 OFFCURVE",
"-1527 804 CURVE SMOOTH",
"-1555 777 LINE SMOOTH",
"-1580 753 OFFCURVE",
"-1603 741 OFFCURVE",
"-1622 741 CURVE SMOOTH",
"-1630 741 OFFCURVE",
"-1634 744 OFFCURVE",
"-1634 751 CURVE SMOOTH"
);
}
);
width = 0;
}
);
unicode = 005E;
},
{
glyphname = b;
layers = (
{
layerId = "79C964D5-2A53-42D4-9C27-6B5AFB4964EF";
name = Regular;
paths = (
{
closed = 1;
nodes = (
"-233 624 OFFCURVE",
"-207 658 OFFCURVE",
"-154 701 CURVE SMOOTH",
"-142 711 OFFCURVE",
"-129 721 OFFCURVE",
"-114 731 CURVE SMOOTH",
"70 863 OFFCURVE",
"277 873 OFFCURVE",
"430 873 CURVE SMOOTH",
"509 873 OFFCURVE",
"690 865 OFFCURVE",
"975 849 CURVE SMOOTH",
"1261 833 OFFCURVE",
"1514 824 OFFCURVE",
"1734 822 CURVE SMOOTH",
"1803 821 OFFCURVE",
"1840 819 OFFCURVE",
"1844 816 CURVE",
"1845 815 OFFCURVE",
"1846 812 OFFCURVE",
"1846 807 CURVE SMOOTH",
"1846 793 OFFCURVE",
"1837 776 OFFCURVE",
"1820 757 CURVE SMOOTH",
"1748 673 OFFCURVE",
"1720 605 OFFCURVE",
"1697 544 CURVE SMOOTH",
"1655 431 OFFCURVE",
"1634 313 OFFCURVE",
"1634 191 CURVE",
"1637 129 LINE",
"1637 76 OFFCURVE",
"1515 -16 OFFCURVE",
"1480 -16 CURVE SMOOTH",
"1471 -16 OFFCURVE",
"1465 -12 OFFCURVE",
"1463 -5 CURVE",
"1462 2 OFFCURVE",
"1461 25 OFFCURVE",
"1461 63 CURVE SMOOTH",
"1461 85 LINE SMOOTH",
"1461 120 OFFCURVE",
"1465 166 OFFCURVE",
"1472 225 CURVE",
"1454 208 LINE SMOOTH",
"1320 77 OFFCURVE",
"1200 4 OFFCURVE",
"1093 -13 CURVE",
"1079 -16 OFFCURVE",
"1065 -17 OFFCURVE",
"1052 -17 CURVE SMOOTH",
"944 -17 OFFCURVE",
"865 35 OFFCURVE",
"816 140 CURVE SMOOTH",
"809 156 OFFCURVE",
"799 184 OFFCURVE",
"787 225 CURVE",
"773 210 LINE",
"691 130 OFFCURVE",
"606 69 OFFCURVE",
"518 28 CURVE SMOOTH",
"455 -2 OFFCURVE",
"398 -17 OFFCURVE",
"346 -17 CURVE SMOOTH",
"189 -17 OFFCURVE",
"77 117 OFFCURVE",
"77 274 CURVE SMOOTH",
"77 406 OFFCURVE",
"176 594 OFFCURVE",
"335 730 CURVE",
"319 730 LINE SMOOTH",
"94 730 OFFCURVE",
"-58 695 OFFCURVE",
"-137 624 CURVE SMOOTH",
"-168 597 OFFCURVE",
"-195 583 OFFCURVE",
"-216 583 CURVE SMOOTH",
"-227 583 OFFCURVE",
"-233 588 OFFCURVE",
"-233 598 CURVE SMOOTH"
);
},
{
closed = 1;
nodes = (
"251 317 OFFCURVE",
"285 245 OFFCURVE",
"354 191 CURVE SMOOTH",
"385 167 OFFCURVE",
"430 143 OFFCURVE",
"490 143 CURVE SMOOTH",
"627 143 OFFCURVE",
"741 256 OFFCURVE",
"789 371 CURVE SMOOTH",
"848 510 OFFCURVE",
"865 560 OFFCURVE",
"981 679 CURVE SMOOTH",
"997 696 LINE",
"564 723 LINE",
"555 724 OFFCURVE",
"547 724 OFFCURVE",
"541 724 CURVE SMOOTH",
"424 724 OFFCURVE",
"340 670 OFFCURVE",
"289 561 CURVE SMOOTH",
"264 508 OFFCURVE",
"251 456 OFFCURVE",
"251 406 CURVE SMOOTH"
);
},
{
closed = 1;
nodes = (
"958 332 OFFCURVE",
"984 266 OFFCURVE",
"1036 213 CURVE",
"1048 202 OFFCURVE",
"1061 191 OFFCURVE",
"1074 182 CURVE SMOOTH",
"1112 157 OFFCURVE",
"1152 144 OFFCURVE",
"1195 144 CURVE SMOOTH",
"1300 144 OFFCURVE",
"1401 227 OFFCURVE",
"1496 393 CURVE SMOOTH",
"1503 405 OFFCURVE",
"1527 453 OFFCURVE",
"1569 536 CURVE SMOOTH",
"1596 589 OFFCURVE",
"1624 636 OFFCURVE",
"1654 677 CURVE",
"1599 678 LINE",
"1199 686 LINE SMOOTH",
"1132 686 OFFCURVE",
"1089 679 OFFCURVE",
"1068 665 CURVE",
"1059 658 OFFCURVE",
"1048 646 OFFCURVE",
"1035 629 CURVE SMOOTH",
"984 559 OFFCURVE",
"958 487 OFFCURVE",
"958 412 CURVE SMOOTH"
);
}
);
width = 1845;
}
);
unicode = 0062;
},
{
glyphname = e;
layers = (
{
layerId = "79C964D5-2A53-42D4-9C27-6B5AFB4964EF";
name = Regular;
paths = (
{
closed = 1;
nodes = (
"-35 12 OFFCURVE",
"-29 26 OFFCURVE",
"-16 40 CURVE SMOOTH",
"51 116 OFFCURVE",
"91 210 OFFCURVE",
"128 309 CURVE SMOOTH",
"155 382 OFFCURVE",
"189 485 OFFCURVE",
"229 618 CURVE SMOOTH",
"365 1050 LINE SMOOTH",
"553 1611 OFFCURVE",
"764 1987 OFFCURVE",
"1025 2272 CURVE SMOOTH",
"1151 2409 OFFCURVE",
"1235 2478 OFFCURVE",
"1276 2478 CURVE SMOOTH",
"1285 2478 OFFCURVE",
"1290 2474 OFFCURVE",
"1290 2465 CURVE SMOOTH",
"1290 2446 OFFCURVE",
"1267 2413 OFFCURVE",
"1222 2368 CURVE SMOOTH",
"1116 2263 LINE",
"1094 2238 LINE SMOOTH",
"981 2109 OFFCURVE",
"884 1966 OFFCURVE",
"803 1807 CURVE SMOOTH",
"679 1566 OFFCURVE",
"545 1208 OFFCURVE",
"402 734 CURVE SMOOTH",
"359 593 LINE",
"359 609 OFFCURVE",
"552 758 OFFCURVE",
"593 785 CURVE SMOOTH",
"699 854 OFFCURVE",
"793 889 OFFCURVE",
"875 889 CURVE SMOOTH",
"1038 889 OFFCURVE",
"1166 766 OFFCURVE",
"1166 601 CURVE SMOOTH",
"1166 409 OFFCURVE",
"979 179 OFFCURVE",
"772 76 CURVE SMOOTH",
"739 60 OFFCURVE",
"706 47 OFFCURVE",
"673 38 CURVE",
"667 37 OFFCURVE",
"655 31 OFFCURVE",
"636 22 CURVE SMOOTH",
"627 18 OFFCURVE",
"616 16 OFFCURVE",
"602 16 CURVE SMOOTH",
"449 18 LINE SMOOTH",
"293 18 OFFCURVE",
"162 9 OFFCURVE",
"57 -8 CURVE SMOOTH",
"25 -13 OFFCURVE",
"-1 -16 OFFCURVE",
"-20 -16 CURVE SMOOTH",
"-30 -16 OFFCURVE",
"-35 -12 OFFCURVE",
"-35 -3 CURVE SMOOTH"
);
},
{
closed = 1;
nodes = (
"163 136 LINE",
"331 153 LINE SMOOTH",
"403 158 OFFCURVE",
"485 160 OFFCURVE",
"577 161 CURVE SMOOTH",
"757 162 OFFCURVE",
"823 180 OFFCURVE",
"886 235 CURVE SMOOTH",
"936 279 OFFCURVE",
"969 336 OFFCURVE",
"985 406 CURVE SMOOTH",
"990 427 OFFCURVE",
"992 449 OFFCURVE",
"992 470 CURVE SMOOTH",
"992 626 OFFCURVE",
"872 728 OFFCURVE",
"725 728 CURVE SMOOTH",
"713 728 LINE SMOOTH",
"658 728 OFFCURVE",
"594 700 OFFCURVE",
"522 644 CURVE SMOOTH",
"416 562 OFFCURVE",
"321 438 OFFCURVE",
"238 272 CURVE SMOOTH",
"209 213 OFFCURVE",
"184 168 OFFCURVE",
"162 136 CURVE"
);
}
);
width = 1253;
}
);
unicode = 0065;
},
{
glyphname = h;
layers = (
{
layerId = "79C964D5-2A53-42D4-9C27-6B5AFB4964EF";
name = Regular;
paths = (
{
closed = 1;
nodes = (
"-174 692 OFFCURVE",
"-157 719 OFFCURVE",
"-124 755 CURVE SMOOTH",
"-59 825 OFFCURVE",
"23 871 OFFCURVE",
"122 893 CURVE SMOOTH",
"158 902 OFFCURVE",
"195 906 OFFCURVE",
"234 906 CURVE SMOOTH",
"237 906 OFFCURVE",
"239 906 OFFCURVE",
"242 906 CURVE SMOOTH",
"304 905 OFFCURVE",
"342 872 OFFCURVE",
"356 807 CURVE SMOOTH",
"359 792 OFFCURVE",
"361 776 OFFCURVE",
"361 760 CURVE SMOOTH",
"361 713 OFFCURVE",
"342 646 OFFCURVE",
"305 557 CURVE SMOOTH",
"270 475 OFFCURVE",
"250 419 OFFCURVE",
"244 388 CURVE SMOOTH",
"241 372 OFFCURVE",
"240 357 OFFCURVE",
"240 343 CURVE SMOOTH",
"240 224 OFFCURVE",
"362 144 OFFCURVE",
"462 144 CURVE SMOOTH",
"541 144 OFFCURVE",
"619 187 OFFCURVE",
"695 273 CURVE SMOOTH",
"714 295 OFFCURVE",
"732 319 OFFCURVE",
"749 344 CURVE SMOOTH",
"775 384 OFFCURVE",
"811 449 OFFCURVE",
"856 539 CURVE SMOOTH",
"895 616 OFFCURVE",
"936 678 OFFCURVE",
"977 723 CURVE",
"990 736 OFFCURVE",
"1003 750 OFFCURVE",
"1017 763 CURVE SMOOTH",
"1058 800 OFFCURVE",
"1091 820 OFFCURVE",
"1117 821 CURVE",
"1126 821 OFFCURVE",
"1131 816 OFFCURVE",
"1131 807 CURVE SMOOTH",
"1131 794 OFFCURVE",
"1122 777 OFFCURVE",
"1105 757 CURVE SMOOTH",
"1033 673 OFFCURVE",
"1005 604 OFFCURVE",
"982 544 CURVE SMOOTH",
"941 432 OFFCURVE",
"920 318 OFFCURVE",
"920 201 CURVE SMOOTH",
"922 140 LINE SMOOTH",
"923 65 OFFCURVE",
"798 -16 OFFCURVE",
"765 -16 CURVE SMOOTH",
"756 -16 OFFCURVE",
"750 -12 OFFCURVE",
"748 -5 CURVE",
"747 2 OFFCURVE",
"746 24 OFFCURVE",
"746 60 CURVE SMOOTH",
"746 117 OFFCURVE",
"750 168 OFFCURVE",
"757 214 CURVE",
"758 226 OFFCURVE",
"763 236 OFFCURVE",
"740 216 CURVE",
"645 121 OFFCURVE",
"551 54 OFFCURVE",
"457 15 CURVE SMOOTH",
"406 -6 OFFCURVE",
"359 -16 OFFCURVE",
"316 -16 CURVE SMOOTH",
"171 -16 OFFCURVE",
"83 91 OFFCURVE",
"68 175 CURVE",
"67 184 OFFCURVE",
"66 199 OFFCURVE",
"66 218 CURVE SMOOTH",
"66 252 OFFCURVE",
"86 321 OFFCURVE",
"125 424 CURVE SMOOTH",
"164 529 OFFCURVE",
"184 597 OFFCURVE",
"186 627 CURVE",
"186 672 OFFCURVE",
"173 705 OFFCURVE",
"148 727 CURVE SMOOTH",
"133 740 OFFCURVE",
"114 747 OFFCURVE",
"92 747 CURVE SMOOTH",
"21 747 OFFCURVE",
"-40 730 OFFCURVE",
"-91 695 CURVE SMOOTH",
"-119 676 OFFCURVE",
"-137 666 OFFCURVE",
"-145 664 CURVE",
"-150 663 OFFCURVE",
"-154 662 OFFCURVE",
"-158 662 CURVE SMOOTH",
"-169 662 OFFCURVE",
"-174 666 OFFCURVE",
"-174 675 CURVE SMOOTH"
);
}
);
width = 1132;
}
);
unicode = 0068;
},
{
glyphname = j;
layers = (
{
layerId = "79C964D5-2A53-42D4-9C27-6B5AFB4964EF";
name = Regular;
paths = (
{
closed = 1;
nodes = (
"-174 676 OFFCURVE",
"-154 704 OFFCURVE",
"-115 743 CURVE SMOOTH",
"-43 812 OFFCURVE",
"42 861 OFFCURVE",
"141 888 CURVE SMOOTH",
"197 903 OFFCURVE",
"253 908 OFFCURVE",
"317 908 CURVE SMOOTH",
"418 908 OFFCURVE",
"553 892 OFFCURVE",
"720 859 CURVE SMOOTH",
"882 828 OFFCURVE",
"998 809 OFFCURVE",
"1068 803 CURVE SMOOTH",
"1112 799 OFFCURVE",
"1155 797 OFFCURVE",
"1196 797 CURVE SMOOTH",
"1339 797 OFFCURVE",
"1448 825 OFFCURVE",
"1523 881 CURVE",
"1591 936 LINE",
"1606 946 OFFCURVE",
"1622 951 OFFCURVE",
"1638 951 CURVE SMOOTH",
"1649 951 OFFCURVE",
"1654 946 OFFCURVE",
"1654 937 CURVE SMOOTH",
"1654 882 OFFCURVE",
"1527 790 OFFCURVE",
"1470 754 CURVE SMOOTH",
"1355 681 OFFCURVE",
"1226 642 OFFCURVE",
"1083 637 CURVE",
"1048 637 LINE SMOOTH",
"982 637 OFFCURVE",
"902 644 OFFCURVE",
"808 658 CURVE SMOOTH",
"795 660 OFFCURVE",
"784 661 OFFCURVE",
"776 662 CURVE",
"486 604 OFFCURVE",
"295 485 OFFCURVE",
"203 304 CURVE SMOOTH",
"166 231 OFFCURVE",
"148 154 OFFCURVE",
"148 71 CURVE SMOOTH",
"148 -202 OFFCURVE",
"349 -422 OFFCURVE",
"644 -467 CURVE SMOOTH",
"681 -473 OFFCURVE",
"720 -476 OFFCURVE",
"759 -476 CURVE SMOOTH",
"940 -476 OFFCURVE",
"1084 -421 OFFCURVE",
"1191 -311 CURVE SMOOTH",
"1228 -273 OFFCURVE",
"1259 -229 OFFCURVE",
"1285 -178 CURVE SMOOTH",
"1299 -150 OFFCURVE",
"1306 -135 OFFCURVE",
"1306 -134 CURVE SMOOTH",
"1306 -133 OFFCURVE",
"1305 -133 OFFCURVE",
"1303 -133 CURVE",
"1292 -132 LINE",
"1210 -117 OFFCURVE",
"1148 -81 OFFCURVE",
"1107 -23 CURVE SMOOTH",
"1084 10 OFFCURVE",
"1073 43 OFFCURVE",
"1073 78 CURVE SMOOTH",
"1073 129 OFFCURVE",
"1116 217 OFFCURVE",
"1212 217 CURVE SMOOTH",
"1245 217 OFFCURVE",
"1279 204 OFFCURVE",
"1314 179 CURVE SMOOTH",
"1373 135 OFFCURVE",
"1402 69 OFFCURVE",
"1402 -18 CURVE",
"1399 -64 LINE",
"1400 -64 LINE SMOOTH",
"1449 -64 OFFCURVE",
"1508 -49 OFFCURVE",
"1576 -18 CURVE SMOOTH",
"1696 37 OFFCURVE",
"1788 120 OFFCURVE",
"1852 233 CURVE",
"1861 247 OFFCURVE",
"1868 255 OFFCURVE",
"1873 258 CURVE SMOOTH",
"1878 261 OFFCURVE",
"1883 262 OFFCURVE",
"1889 262 CURVE SMOOTH",
"1906 262 OFFCURVE",
"1917 255 OFFCURVE",
"1921 240 CURVE",
"1922 235 OFFCURVE",
"1923 230 OFFCURVE",
"1923 225 CURVE",
"1922 204 OFFCURVE",
"1898 164 OFFCURVE",
"1851 107 CURVE SMOOTH",
"1762 -4 OFFCURVE",
"1648 -78 OFFCURVE",
"1510 -115 CURVE SMOOTH",
"1496 -119 OFFCURVE",
"1482 -122 OFFCURVE",
"1468 -125 CURVE SMOOTH",
"1435 -132 OFFCURVE",
"1407 -135 OFFCURVE",
"1385 -135 CURVE SMOOTH",
"1380 -135 LINE",
"1338 -244 OFFCURVE",
"1274 -337 OFFCURVE",
"1187 -412 CURVE SMOOTH",
"1014 -561 OFFCURVE",
"823 -636 OFFCURVE",
"616 -636 CURVE SMOOTH",
"280 -636 OFFCURVE",
"36 -437 OFFCURVE",
"-16 -170 CURVE SMOOTH",
"-23 -134 OFFCURVE",
"-26 -97 OFFCURVE",
"-26 -60 CURVE SMOOTH",
"-26 244 OFFCURVE",
"241 538 OFFCURVE",
"540 694 CURVE SMOOTH",
"548 698 OFFCURVE",
"552 701 OFFCURVE",
"552 702 CURVE",
"367 732 LINE SMOOTH",
"289 743 OFFCURVE",
"224 749 OFFCURVE",
"171 749 CURVE SMOOTH",
"61 749 OFFCURVE",
"-22 728 OFFCURVE",
"-78 687 CURVE SMOOTH",
"-122 654 LINE",
"-133 647 OFFCURVE",
"-145 644 OFFCURVE",
"-158 644 CURVE SMOOTH",
"-169 644 OFFCURVE",
"-174 648 OFFCURVE",
"-174 657 CURVE SMOOTH"
);
},
{
closed = 1;
nodes = (
"1143 -10 OFFCURVE",
"1263 -65 OFFCURVE",
"1326 -65 CURVE SMOOTH",
"1331 -65 OFFCURVE",
"1333 -49 OFFCURVE",
"1333 -16 CURVE SMOOTH",
"1333 56 OFFCURVE",
"1307 106 OFFCURVE",
"1255 134 CURVE SMOOTH",
"1239 143 OFFCURVE",
"1224 147 OFFCURVE",
"1211 147 CURVE SMOOTH",
"1184 147 OFFCURVE",
"1164 135 OFFCURVE",
"1151 111 CURVE SMOOTH",
"1146 101 OFFCURVE",
"1143 90 OFFCURVE",
"1143 77 CURVE SMOOTH"
);
}
);
width = 1740;
}
);
unicode = 006A;
},
{
glyphname = n;
layers = (
{
layerId = "79C964D5-2A53-42D4-9C27-6B5AFB4964EF";
name = Regular;
paths = (
{
closed = 1;
nodes = (
"-233 619 OFFCURVE",
"-212 648 OFFCURVE",
"-170 687 CURVE SMOOTH",
"-13 832 OFFCURVE",
"204 873 OFFCURVE",
"364 873 CURVE SMOOTH",
"437 873 OFFCURVE",
"568 864 OFFCURVE",
"755 847 CURVE SMOOTH",
"937 830 OFFCURVE",
"1090 821 OFFCURVE",
"1214 821 CURVE SMOOTH",
"1238 821 OFFCURVE",
"1251 819 OFFCURVE",
"1253 814 CURVE",
"1254 812 OFFCURVE",
"1254 810 OFFCURVE",
"1254 807 CURVE SMOOTH",
"1254 793 OFFCURVE",
"1245 776 OFFCURVE",
"1228 757 CURVE SMOOTH",
"1156 673 OFFCURVE",
"1128 605 OFFCURVE",
"1105 544 CURVE SMOOTH",
"1064 431 OFFCURVE",
"1043 315 OFFCURVE",
"1043 194 CURVE SMOOTH",
"1045 129 LINE SMOOTH",
"1045 76 OFFCURVE",
"923 -16 OFFCURVE",
"888 -16 CURVE SMOOTH",
"879 -16 OFFCURVE",
"873 -12 OFFCURVE",
"871 -4 CURVE SMOOTH",
"869 4 OFFCURVE",
"868 30 OFFCURVE",
"868 75 CURVE SMOOTH",
"868 116 OFFCURVE",
"873 166 OFFCURVE",
"882 226 CURVE",
"883 236 OFFCURVE",
"884 244 OFFCURVE",
"884 250 CURVE",
"883 250 OFFCURVE",
"874 242 OFFCURVE",
"857 226 CURVE SMOOTH",
"828 197 OFFCURVE",
"789 165 OFFCURVE",
"742 131 CURVE SMOOTH",
"615 38 OFFCURVE",
"508 -11 OFFCURVE",
"423 -16 CURVE",
"403 -16 LINE SMOOTH",
"215 -16 OFFCURVE",
"109 124 OFFCURVE",
"109 271 CURVE SMOOTH",
"109 390 OFFCURVE",
"169 513 OFFCURVE",
"290 639 CURVE SMOOTH",
"320 670 OFFCURVE",
"352 699 OFFCURVE",
"385 726 CURVE",
"377 726 LINE",
"352 729 OFFCURVE",
"315 730 OFFCURVE",
"265 730 CURVE SMOOTH",
"94 730 OFFCURVE",
"-32 701 OFFCURVE",
"-112 644 CURVE",
"-174 596 LINE",
"-188 587 OFFCURVE",
"-202 583 OFFCURVE",
"-216 583 CURVE SMOOTH",
"-227 583 OFFCURVE",
"-233 588 OFFCURVE",
"-233 598 CURVE SMOOTH"
);
},
{
closed = 1;
nodes = (
"283 248 OFFCURVE",
"409 144 OFFCURVE",
"546 144 CURVE SMOOTH",
"621 144 OFFCURVE",
"700 180 OFFCURVE",
"782 252 CURVE SMOOTH",
"796 264 OFFCURVE",
"808 276 OFFCURVE",
"819 287 CURVE",
"864 337 OFFCURVE",
"916 416 OFFCURVE",
"973 525 CURVE SMOOTH",
"1010 596 OFFCURVE",
"1037 642 OFFCURVE",
"1052 663 CURVE",
"1061 678 LINE",
"1061 679 OFFCURVE",
"1048 679 OFFCURVE",
"1022 679 CURVE SMOOTH",
"925 681 OFFCURVE",
"805 688 OFFCURVE",
"663 701 CURVE SMOOTH",
"634 704 OFFCURVE",
"611 705 OFFCURVE",
"594 705 CURVE SMOOTH",
"393 705 OFFCURVE",
"283 551 OFFCURVE",
"283 403 CURVE SMOOTH"
);
}
);
width = 1253;
}
);
unicode = 006E;
},
{
glyphname = q;
layers = (
{
layerId = "79C964D5-2A53-42D4-9C27-6B5AFB4964EF";
name = Regular;
paths = (
{
closed = 1;
nodes = (
"-1657 -2222 OFFCURVE",
"-1636 -2193 OFFCURVE",
"-1595 -2152 CURVE SMOOTH",
"-1409 -1974 LINE",
"-1385 -1951 LINE SMOOTH",
"-923 -1489 OFFCURVE",
"-495 -899 OFFCURVE",
"-102 -182 CURVE SMOOTH",
"11 31 LINE",
"74 135 OFFCURVE",
"216 499 OFFCURVE",
"216 595 CURVE SMOOTH",
"216 694 OFFCURVE",
"160 746 OFFCURVE",
"93 746 CURVE SMOOTH",
"20 746 OFFCURVE",
"-41 729 OFFCURVE",
"-91 695 CURVE SMOOTH",
"-118 676 OFFCURVE",
"-135 666 OFFCURVE",
"-142 664 CURVE",
"-147 663 OFFCURVE",
"-153 662 OFFCURVE",
"-158 662 CURVE SMOOTH",
"-169 662 OFFCURVE",
"-174 666 OFFCURVE",
"-174 675 CURVE SMOOTH",
"-174 694 OFFCURVE",
"-156 722 OFFCURVE",
"-120 759 CURVE SMOOTH",
"-53 827 OFFCURVE",
"29 872 OFFCURVE",
"126 894 CURVE SMOOTH",
"154 901 OFFCURVE",
"183 905 OFFCURVE",
"212 906 CURVE SMOOTH",
"218 906 OFFCURVE",
"224 906 OFFCURVE",
"230 906 CURVE SMOOTH",
"334 906 OFFCURVE",
"372 854 OFFCURVE",
"388 763 CURVE SMOOTH",
"389 757 OFFCURVE",
"390 746 OFFCURVE",
"390 731 CURVE SMOOTH",
"390 693 OFFCURVE",
"382 647 OFFCURVE",
"366 593 CURVE",
"461 698 OFFCURVE",
"699 889 OFFCURVE",
"880 889 CURVE SMOOTH",
"1048 889 OFFCURVE",
"1172 762 OFFCURVE",
"1172 601 CURVE SMOOTH",
"1172 418 OFFCURVE",
"994 186 OFFCURVE",
"791 81 CURVE SMOOTH",
"761 66 OFFCURVE",
"731 53 OFFCURVE",
"701 44 CURVE SMOOTH",
"691 41 OFFCURVE",
"677 34 OFFCURVE",
"660 24 CURVE",
"650 19 OFFCURVE",
"632 16 OFFCURVE",
"606 16 CURVE SMOOTH",
"558 17 OFFCURVE",
"514 18 OFFCURVE",
"473 18 CURVE SMOOTH",
"355 18 OFFCURVE",
"251 12 OFFCURVE",
"160 1 CURVE",
"141 -2 OFFCURVE",
"126 -3 OFFCURVE",
"113 -3 CURVE",
"108 -4 LINE",
"-38 -268 LINE SMOOTH",
"-369 -849 OFFCURVE",
"-726 -1349 OFFCURVE",
"-1111 -1768 CURVE SMOOTH",
"-1205 -1869 LINE SMOOTH",
"-1252 -1920 OFFCURVE",
"-1337 -2005 OFFCURVE",
"-1462 -2122 CURVE SMOOTH",
"-1562 -2217 OFFCURVE",
"-1603 -2255 OFFCURVE",
"-1642 -2255 CURVE SMOOTH",
"-1652 -2255 OFFCURVE",
"-1657 -2250 OFFCURVE",
"-1657 -2241 CURVE SMOOTH"
);
},
{
closed = 1;
nodes = (
"181 134 LINE",
"183 134 LINE SMOOTH",
"189 134 OFFCURVE",
"212 137 OFFCURVE",
"253 143 CURVE SMOOTH",
"321 154 OFFCURVE",
"437 160 OFFCURVE",
"602 162 CURVE SMOOTH",
"749 163 OFFCURVE",
"811 178 OFFCURVE",
"871 218 CURVE SMOOTH",
"967 282 OFFCURVE",
"998 399 OFFCURVE",
"998 470 CURVE SMOOTH",
"998 629 OFFCURVE",
"875 728 OFFCURVE",
"727 728 CURVE SMOOTH",
"638 728 OFFCURVE",
"538 670 OFFCURVE",
"429 553 CURVE SMOOTH",
"391 513 OFFCURVE",
"360 475 OFFCURVE",
"336 439 CURVE SMOOTH",
"302 387 OFFCURVE",
"261 309 OFFCURVE",
"214 204 CURVE SMOOTH"
);
}
);
width = 1271;
}
);
unicode = 0071;
},
{
glyphname = r;
layers = (
{
layerId = "79C964D5-2A53-42D4-9C27-6B5AFB4964EF";
name = Regular;
paths = (
{
closed = 1;
nodes = (
"-35 15 OFFCURVE",
"-23 37 OFFCURVE",
"1 63 CURVE",
"13 75 LINE SMOOTH",
"62 122 OFFCURVE",
"132 297 OFFCURVE",
"223 599 CURVE SMOOTH",
"365 1050 LINE SMOOTH",
"553 1611 OFFCURVE",
"764 1987 OFFCURVE",
"1025 2272 CURVE SMOOTH",
"1151 2409 OFFCURVE",
"1235 2478 OFFCURVE",
"1276 2478 CURVE SMOOTH",
"1285 2478 OFFCURVE",
"1290 2474 OFFCURVE",
"1290 2465 CURVE SMOOTH",
"1290 2446 OFFCURVE",
"1267 2413 OFFCURVE",
"1222 2368 CURVE SMOOTH",
"1116 2263 LINE",
"1094 2238 LINE SMOOTH",
"978 2105 OFFCURVE",
"877 1952 OFFCURVE",
"790 1780 CURVE SMOOTH",
"669 1539 OFFCURVE",
"540 1192 OFFCURVE",
"404 741 CURVE SMOOTH",
"387 685 OFFCURVE",
"375 646 OFFCURVE",
"369 624 CURVE",
"479 724 LINE SMOOTH",
"607 834 OFFCURVE",
"718 889 OFFCURVE",
"813 889 CURVE SMOOTH",
"914 889 OFFCURVE",
"990 843 OFFCURVE",
"1041 751 CURVE SMOOTH",
"1067 704 OFFCURVE",
"1080 661 OFFCURVE",
"1081 621 CURVE SMOOTH",
"1081 619 OFFCURVE",
"1081 617 OFFCURVE",
"1082 615 CURVE",
"1165 695 LINE SMOOTH",
"1316 832 OFFCURVE",
"1440 889 OFFCURVE",
"1533 889 CURVE SMOOTH",
"1684 889 OFFCURVE",
"1800 766 OFFCURVE",
"1800 595 CURVE SMOOTH",
"1800 399 OFFCURVE",
"1622 166 OFFCURVE",
"1426 65 CURVE SMOOTH",
"1390 46 OFFCURVE",
"1355 33 OFFCURVE",
"1320 24 CURVE",
"1275 10 LINE",
"1270 9 OFFCURVE",
"1265 9 OFFCURVE",
"1258 9 CURVE SMOOTH",
"765 19 LINE SMOOTH",
"552 19 OFFCURVE",
"326 17 OFFCURVE",
"54 -11 CURVE SMOOTH",
"24 -14 OFFCURVE",
"-2 -16 OFFCURVE",
"-25 -16 CURVE SMOOTH",
"-28 -16 OFFCURVE",
"-31 -13 OFFCURVE",
"-34 -8 CURVE",
"-35 -6 OFFCURVE",
"-35 -4 OFFCURVE",
"-35 -3 CURVE SMOOTH"
);
},
{
closed = 1;
nodes = (
"163 133 LINE",
"328 147 LINE SMOOTH",
"405 152 OFFCURVE",
"503 156 OFFCURVE",
"622 160 CURVE SMOOTH",
"799 167 OFFCURVE",
"869 243 OFFCURVE",
"901 392 CURVE SMOOTH",
"906 417 OFFCURVE",
"908 440 OFFCURVE",
"908 463 CURVE SMOOTH",
"908 611 OFFCURVE",
"802 728 OFFCURVE",
"666 728 CURVE SMOOTH",
"554 728 OFFCURVE",
"435 619 OFFCURVE",
"309 402 CURVE SMOOTH",
"299 386 OFFCURVE",
"263 319 OFFCURVE",
"200 201 CURVE SMOOTH",
"186 173 OFFCURVE",
"173 150 OFFCURVE",
"160 133 CURVE"
);
},
{
closed = 1;
nodes = (
"856 163 LINE",
"1327 154 LINE SMOOTH",
"1438 154 OFFCURVE",
"1519 194 OFFCURVE",
"1569 275 CURVE SMOOTH",
"1581 294 OFFCURVE",
"1592 315 OFFCURVE",
"1602 340 CURVE SMOOTH",
"1619 383 OFFCURVE",
"1627 425 OFFCURVE",
"1627 466 CURVE SMOOTH",
"1627 629 OFFCURVE",
"1511 711 OFFCURVE",
"1424 726 CURVE SMOOTH",
"1413 728 OFFCURVE",
"1400 729 OFFCURVE",
"1387 729 CURVE SMOOTH",
"1382 729 OFFCURVE",
"1378 729 OFFCURVE",
"1376 728 CURVE",
"1239 728 OFFCURVE",
"1170 608 OFFCURVE",
"1043 408 CURVE SMOOTH",
"980 307 OFFCURVE",
"925 234 OFFCURVE",
"880 187 CURVE SMOOTH"
);
}
);
width = 1908;
}
);
unicode = 0072;
},
{
glyphname = t;
layers = (
{
layerId = "79C964D5-2A53-42D4-9C27-6B5AFB4964EF";
name = Regular;
paths = (
{
closed = 1;
nodes = (
"-174 695 OFFCURVE",
"-156 724 OFFCURVE",
"-119 761 CURVE SMOOTH",
"-50 828 OFFCURVE",
"34 873 OFFCURVE",
"135 895 CURVE SMOOTH",
"161 900 OFFCURVE",
"187 904 OFFCURVE",
"214 906 CURVE",
"243 906 LINE SMOOTH",
"359 906 OFFCURVE",
"389 800 OFFCURVE",
"389 723 CURVE SMOOTH",
"389 700 OFFCURVE",
"385 668 OFFCURVE",
"376 627 CURVE",
"377 627 OFFCURVE",
"385 635 OFFCURVE",
"402 650 CURVE",
"563 809 OFFCURVE",
"703 889 OFFCURVE",
"821 889 CURVE SMOOTH",
"921 889 OFFCURVE",
"996 843 OFFCURVE",
"1047 751 CURVE SMOOTH",
"1073 704 OFFCURVE",
"1086 661 OFFCURVE",
"1087 621 CURVE SMOOTH",
"1087 619 OFFCURVE",
"1087 617 OFFCURVE",
"1088 615 CURVE",
"1097 622 OFFCURVE",
"1128 650 OFFCURVE",
"1182 701 CURVE SMOOTH",
"1274 788 OFFCURVE",
"1357 844 OFFCURVE",
"1430 869 CURVE SMOOTH",
"1468 882 OFFCURVE",
"1506 888 OFFCURVE",
"1543 888 CURVE SMOOTH",
"1686 888 OFFCURVE",
"1807 766 OFFCURVE",
"1807 598 CURVE SMOOTH",
"1807 399 OFFCURVE",
"1629 165 OFFCURVE",
"1428 64 CURVE SMOOTH",
"1392 45 OFFCURVE",
"1356 32 OFFCURVE",
"1321 23 CURVE",
"1278 10 LINE",
"1234 10 LINE SMOOTH",
"1209 10 OFFCURVE",
"1114 12 OFFCURVE",
"951 16 CURVE SMOOTH",
"887 18 OFFCURVE",
"810 19 OFFCURVE",
"720 19 CURVE SMOOTH",
"473 19 OFFCURVE",
"267 10 OFFCURVE",
"102 -8 CURVE SMOOTH",
"49 -13 OFFCURVE",
"7 -16 OFFCURVE",
"-26 -16 CURVE SMOOTH",
"-29 -16 OFFCURVE",
"-32 -13 OFFCURVE",
"-35 -8 CURVE",
"-36 -6 OFFCURVE",
"-36 -4 OFFCURVE",
"-36 -3 CURVE SMOOTH",
"-36 12 OFFCURVE",
"-23 35 OFFCURVE",
"4 64 CURVE SMOOTH",
"20 82 OFFCURVE",
"31 96 OFFCURVE",
"37 105 CURVE SMOOTH",
"94 189 OFFCURVE",
"142 298 OFFCURVE",
"182 431 CURVE SMOOTH",
"204 502 OFFCURVE",
"215 555 OFFCURVE",
"215 590 CURVE SMOOTH",
"215 656 OFFCURVE",
"195 702 OFFCURVE",
"154 729 CURVE SMOOTH",
"137 741 OFFCURVE",
"117 747 OFFCURVE",
"94 747 CURVE SMOOTH",
"21 747 OFFCURVE",
"-40 730 OFFCURVE",
"-90 695 CURVE SMOOTH",
"-117 676 OFFCURVE",
"-135 666 OFFCURVE",
"-143 664 CURVE",
"-148 663 OFFCURVE",
"-153 662 OFFCURVE",
"-158 662 CURVE SMOOTH",
"-169 662 OFFCURVE",
"-174 666 OFFCURVE",
"-174 675 CURVE SMOOTH"
);
},
{
closed = 1;
nodes = (
"353 148 LINE SMOOTH",
"433 153 OFFCURVE",
"514 157 OFFCURVE",
"596 159 CURVE SMOOTH",
"807 164 OFFCURVE",
"876 229 OFFCURVE",
"908 408 CURVE SMOOTH",
"912 429 OFFCURVE",
"914 447 OFFCURVE",
"914 462 CURVE SMOOTH",
"914 573 OFFCURVE",
"870 652 OFFCURVE",
"782 699 CURVE SMOOTH",
"743 719 OFFCURVE",
"708 729 OFFCURVE",
"675 729 CURVE SMOOTH",
"476 729 OFFCURVE",
"363 486 OFFCURVE",
"228 243 CURVE SMOOTH",
"203 199 OFFCURVE",
"184 167 OFFCURVE",
"171 148 CURVE SMOOTH",
"164 138 OFFCURVE",
"160 133 OFFCURVE",
"160 132 CURVE"
);
},
{
closed = 1;
nodes = (
"862 163 LINE",
"1332 154 LINE SMOOTH",
"1463 154 OFFCURVE",
"1554 211 OFFCURVE",
"1603 325 CURVE SMOOTH",
"1614 352 OFFCURVE",
"1623 382 OFFCURVE",
"1629 415 CURVE SMOOTH",
"1632 432 OFFCURVE",
"1633 448 OFFCURVE",
"1633 465 CURVE SMOOTH",
"1633 626 OFFCURVE",
"1517 728 OFFCURVE",
"1392 728 CURVE SMOOTH",
"1243 728 OFFCURVE",
"1170 601 OFFCURVE",
"1045 401 CURVE SMOOTH",
"982 301 OFFCURVE",
"929 230 OFFCURVE",
"885 187 CURVE SMOOTH"
);
}
);
width = 1910;
}
);
unicode = 0074;
},
{
glyphname = u;
layers = (
{
layerId = "79C964D5-2A53-42D4-9C27-6B5AFB4964EF";
name = Regular;
paths = (
{
closed = 1;
nodes = (
"-903 -1788 OFFCURVE",
"-884 -1760 OFFCURVE",
"-845 -1722 CURVE SMOOTH",
"-608 -1501 LINE SMOOTH",
"-493 -1391 OFFCURVE",
"-374 -1269 OFFCURVE",
"-251 -1136 CURVE SMOOTH",
"62 -796 OFFCURVE",
"324 -448 OFFCURVE",
"536 -91 CURVE SMOOTH",
"551 -66 LINE",
"458 14 OFFCURVE",
"375 141 OFFCURVE",
"303 316 CURVE SMOOTH",
"277 381 LINE",
"276 386 OFFCURVE",
"274 389 OFFCURVE",
"273 389 CURVE",
"238 325 OFFCURVE",
"167 189 OFFCURVE",
"62 -18 CURVE SMOOTH",
"-125 -387 OFFCURVE",
"-240 -535 OFFCURVE",
"-384 -676 CURVE SMOOTH",
"-453 -745 OFFCURVE",
"-501 -779 OFFCURVE",
"-530 -779 CURVE SMOOTH",
"-541 -779 OFFCURVE",
"-546 -775 OFFCURVE",
"-546 -766 CURVE SMOOTH",
"-546 -749 OFFCURVE",
"-529 -722 OFFCURVE",
"-495 -687 CURVE SMOOTH",
"-437 -628 OFFCURVE",
"-401 -590 OFFCURVE",
"-388 -574 CURVE SMOOTH",
"-370 -553 OFFCURVE",
"-353 -532 OFFCURVE",
"-337 -511 CURVE SMOOTH",
"-282 -438 OFFCURVE",
"-222 -340 OFFCURVE",
"-155 -216 CURVE SMOOTH",
"-56 -20 LINE SMOOTH",
"55 201 OFFCURVE",
"141 358 OFFCURVE",
"202 451 CURVE SMOOTH",
"234 499 LINE",
"220 535 LINE SMOOTH",
"171 664 OFFCURVE",
"116 728 OFFCURVE",
"57 728 CURVE SMOOTH",
"48 728 LINE SMOOTH",
"4 728 OFFCURVE",
"-41 712 OFFCURVE",
"-88 679 CURVE SMOOTH",
"-118 658 OFFCURVE",
"-139 646 OFFCURVE",
"-150 645 CURVE",
"-152 644 OFFCURVE",
"-154 644 OFFCURVE",
"-157 644 CURVE SMOOTH",
"-168 644 OFFCURVE",
"-173 648 OFFCURVE",
"-173 657 CURVE SMOOTH",
"-173 686 OFFCURVE",
"-145 723 OFFCURVE",
"-90 768 CURVE SMOOTH",
"-21 825 OFFCURVE",
"51 862 OFFCURVE",
"126 880 CURVE SMOOTH",
"150 886 OFFCURVE",
"172 889 OFFCURVE",
"193 889 CURVE SMOOTH",
"263 889 OFFCURVE",
"319 843 OFFCURVE",
"362 752 CURVE SMOOTH",
"369 737 OFFCURVE",
"378 716 OFFCURVE",
"389 689 CURVE",
"478 786 OFFCURVE",
"653 906 OFFCURVE",
"788 906 CURVE SMOOTH",
"961 906 OFFCURVE",
"995 832 OFFCURVE",
"995 724 CURVE SMOOTH",
"995 605 OFFCURVE",
"929 421 OFFCURVE",
"797 172 CURVE SMOOTH",
"723 38 LINE SMOOTH",
"410 -503 OFFCURVE",
"-19 -1034 OFFCURVE",
"-565 -1555 CURVE SMOOTH",
"-692 -1676 OFFCURVE",
"-773 -1751 OFFCURVE",
"-809 -1780 CURVE SMOOTH",
"-842 -1806 OFFCURVE",
"-869 -1819 OFFCURVE",
"-890 -1819 CURVE SMOOTH",
"-899 -1819 OFFCURVE",
"-903 -1815 OFFCURVE",
"-903 -1806 CURVE SMOOTH"
);
},
{
closed = 1;
nodes = (
"430 578 LINE SMOOTH",
"498 396 OFFCURVE",
"563 266 OFFCURVE",
"624 187 CURVE",
"665 139 LINE",
"718 248 LINE SMOOTH",
"787 397 OFFCURVE",
"821 513 OFFCURVE",
"821 594 CURVE SMOOTH",
"821 675 OFFCURVE",
"788 723 OFFCURVE",
"722 739 CURVE SMOOTH",
"701 744 OFFCURVE",
"677 746 OFFCURVE",
"649 746 CURVE SMOOTH",
"642 746 LINE SMOOTH",
"624 746 OFFCURVE",
"601 742 OFFCURVE",
"573 733 CURVE SMOOTH",
"531 720 OFFCURVE",
"494 696 OFFCURVE",
"463 663 CURVE SMOOTH",
"451 651 OFFCURVE",
"436 634 OFFCURVE",
"418 611 CURVE"
);
}
);
width = 1114;
}
);
unicode = 0075;
},
{
glyphname = w;
layers = (
{
layerId = "79C964D5-2A53-42D4-9C27-6B5AFB4964EF";
name = Regular;
paths = (
{
closed = 1;
nodes = (
"-1657 -2222 OFFCURVE",
"-1636 -2193 OFFCURVE",
"-1595 -2152 CURVE SMOOTH",
"-1409 -1974 LINE",
"-1385 -1951 LINE SMOOTH",
"-923 -1489 OFFCURVE",
"-495 -899 OFFCURVE",
"-102 -182 CURVE SMOOTH",
"11 31 LINE",
"74 135 OFFCURVE",
"216 499 OFFCURVE",
"216 595 CURVE SMOOTH",
"216 694 OFFCURVE",
"160 746 OFFCURVE",
"93 746 CURVE SMOOTH",
"20 746 OFFCURVE",
"-41 729 OFFCURVE",
"-91 695 CURVE SMOOTH",
"-118 676 OFFCURVE",
"-135 666 OFFCURVE",
"-142 664 CURVE",
"-147 663 OFFCURVE",
"-153 662 OFFCURVE",
"-158 662 CURVE SMOOTH",
"-169 662 OFFCURVE",
"-174 666 OFFCURVE",
"-174 675 CURVE SMOOTH",
"-174 694 OFFCURVE",
"-156 722 OFFCURVE",
"-120 759 CURVE SMOOTH",
"-53 827 OFFCURVE",
"29 872 OFFCURVE",
"126 894 CURVE SMOOTH",
"154 901 OFFCURVE",
"183 905 OFFCURVE",
"212 906 CURVE",
"219 907 OFFCURVE",
"225 907 OFFCURVE",
"231 907 CURVE SMOOTH",
"314 907 OFFCURVE",
"342 877 OFFCURVE",
"367 828 CURVE SMOOTH",
"382 799 OFFCURVE",
"390 765 OFFCURVE",
"390 727 CURVE SMOOTH",
"390 699 OFFCURVE",
"385 665 OFFCURVE",
"374 625 CURVE",
"374 624 LINE",
"375 624 OFFCURVE",
"394 641 OFFCURVE",
"429 675 CURVE SMOOTH",
"577 817 OFFCURVE",
"708 888 OFFCURVE",
"823 888 CURVE SMOOTH",
"927 888 OFFCURVE",
"1003 840 OFFCURVE",
"1052 744 CURVE SMOOTH",
"1073 703 OFFCURVE",
"1085 663 OFFCURVE",
"1088 626 CURVE",
"1089 619 OFFCURVE",
"1089 615 OFFCURVE",
"1090 615 CURVE",
"1178 700 LINE SMOOTH",
"1315 825 OFFCURVE",
"1433 888 OFFCURVE",
"1530 888 CURVE SMOOTH",
"1544 888 LINE SMOOTH",
"1689 888 OFFCURVE",
"1808 765 OFFCURVE",
"1808 592 CURVE SMOOTH",
"1808 448 OFFCURVE",
"1706 300 OFFCURVE",
"1614 204 CURVE SMOOTH",
"1533 121 OFFCURVE",
"1454 67 OFFCURVE",
"1376 41 CURVE SMOOTH",
"1333 27 OFFCURVE",
"1309 19 OFFCURVE",
"1305 17 CURVE",
"1294 12 OFFCURVE",
"1280 10 OFFCURVE",
"1261 10 CURVE SMOOTH",
"738 19 LINE SMOOTH",
"521 19 OFFCURVE",
"313 10 OFFCURVE",
"112 -8 CURVE",
"106 -8 LINE",
"70 -75 LINE SMOOTH",
"-291 -738 OFFCURVE",
"-685 -1302 OFFCURVE",
"-1111 -1768 CURVE SMOOTH",
"-1205 -1869 LINE SMOOTH",
"-1252 -1920 OFFCURVE",
"-1337 -2005 OFFCURVE",
"-1462 -2122 CURVE SMOOTH",
"-1562 -2217 OFFCURVE",
"-1603 -2255 OFFCURVE",
"-1642 -2255 CURVE SMOOTH",
"-1652 -2255 OFFCURVE",
"-1657 -2250 OFFCURVE",
"-1657 -2241 CURVE SMOOTH"
);
},
{
closed = 1;
nodes = (
"416 149 LINE SMOOTH",
"465 152 OFFCURVE",
"520 155 OFFCURVE",
"580 157 CURVE SMOOTH",
"677 161 OFFCURVE",
"741 171 OFFCURVE",
"773 186 CURVE SMOOTH",
"800 198 OFFCURVE",
"825 222 OFFCURVE",
"849 257 CURVE SMOOTH",
"893 322 OFFCURVE",
"915 390 OFFCURVE",
"915 462 CURVE SMOOTH",
"915 573 OFFCURVE",
"871 651 OFFCURVE",
"784 698 CURVE SMOOTH",
"746 719 OFFCURVE",
"710 729 OFFCURVE",
"677 729 CURVE SMOOTH",
"476 729 OFFCURVE",
"315 433 OFFCURVE",
"238 257 CURVE SMOOTH",
"188 148 LINE SMOOTH",
"183 138 OFFCURVE",
"180 132 OFFCURVE",
"180 131 CURVE"
);
},
{
closed = 1;
nodes = (
"863 163 LINE",
"1346 154 LINE SMOOTH",
"1525 154 OFFCURVE",
"1634 306 OFFCURVE",
"1634 465 CURVE SMOOTH",
"1634 626 OFFCURVE",
"1518 728 OFFCURVE",
"1393 728 CURVE SMOOTH",
"1304 728 OFFCURVE",
"1213 660 OFFCURVE",
"1120 523 CURVE SMOOTH",
"1096 488 OFFCURVE",
"1065 437 OFFCURVE",
"1027 371 CURVE SMOOTH",
"988 302 OFFCURVE",
"941 241 OFFCURVE",
"886 187 CURVE SMOOTH"
);
}
);
width = 1921;
}
);
unicode = 0077;
},
{
glyphname = x;
layers = (
{
layerId = "79C964D5-2A53-42D4-9C27-6B5AFB4964EF";
name = Regular;
paths = (
{
closed = 1;
nodes = (
"-285 -2066 OFFCURVE",
"-257 -2029 OFFCURVE",
"-200 -1978 CURVE SMOOTH",
"115 -1686 LINE SMOOTH",
"764 -1067 OFFCURVE",
"1191 -486 OFFCURVE",
"1394 55 CURVE SMOOTH",
"1421 122 OFFCURVE",
"1437 169 OFFCURVE",
"1443 196 CURVE",
"1328 102 LINE SMOOTH",
"1225 23 OFFCURVE",
"1133 -16 OFFCURVE",
"1052 -16 CURVE SMOOTH",
"945 -16 OFFCURVE",
"867 35 OFFCURVE",
"817 137 CURVE SMOOTH",
"808 156 OFFCURVE",
"798 185 OFFCURVE",
"787 225 CURVE",
"772 211 LINE SMOOTH",
"635 74 OFFCURVE",
"465 -16 OFFCURVE",
"344 -16 CURVE SMOOTH",
"195 -16 OFFCURVE",
"76 107 OFFCURVE",
"76 275 CURVE SMOOTH",
"76 438 OFFCURVE",
"189 610 OFFCURVE",
"334 730 CURVE",
"318 730 LINE SMOOTH",
"93 730 OFFCURVE",
"-59 695 OFFCURVE",
"-138 624 CURVE SMOOTH",
"-169 597 OFFCURVE",
"-196 583 OFFCURVE",
"-217 583 CURVE SMOOTH",
"-228 583 OFFCURVE",
"-234 588 OFFCURVE",
"-234 598 CURVE SMOOTH",
"-234 624 OFFCURVE",
"-208 658 OFFCURVE",
"-155 701 CURVE SMOOTH",
"-143 711 OFFCURVE",
"-130 721 OFFCURVE",
"-115 731 CURVE SMOOTH",
"69 863 OFFCURVE",
"276 873 OFFCURVE",
"429 873 CURVE SMOOTH",
"508 873 OFFCURVE",
"689 865 OFFCURVE",
"974 849 CURVE SMOOTH",
"1260 833 OFFCURVE",
"1513 824 OFFCURVE",
"1733 822 CURVE SMOOTH",
"1802 821 OFFCURVE",
"1839 819 OFFCURVE",
"1843 816 CURVE",
"1844 815 OFFCURVE",
"1845 812 OFFCURVE",
"1845 807 CURVE SMOOTH",
"1845 794 OFFCURVE",
"1837 778 OFFCURVE",
"1822 761 CURVE SMOOTH",
"1753 684 OFFCURVE",
"1723 612 OFFCURVE",
"1696 545 CURVE SMOOTH",
"1681 506 OFFCURVE",
"1652 422 OFFCURVE",
"1609 291 CURVE SMOOTH",
"1582 208 OFFCURVE",
"1553 130 OFFCURVE",
"1522 59 CURVE SMOOTH",
"1300 -450 OFFCURVE",
"928 -969 OFFCURVE",
"407 -1498 CURVE SMOOTH",
"121 -1777 LINE SMOOTH",
"-37 -1926 OFFCURVE",
"-140 -2021 OFFCURVE",
"-189 -2061 CURVE SMOOTH",
"-220 -2086 OFFCURVE",
"-247 -2100 OFFCURVE",
"-270 -2102 CURVE",
"-280 -2102 OFFCURVE",
"-285 -2098 OFFCURVE",
"-285 -2089 CURVE SMOOTH"
);
},
{
closed = 1;
nodes = (
"250 260 OFFCURVE",
"356 148 OFFCURVE",
"488 144 CURVE SMOOTH",
"592 144 OFFCURVE",
"680 198 OFFCURVE",
"751 305 CURVE SMOOTH",
"774 339 OFFCURVE",
"792 374 OFFCURVE",
"805 409 CURVE SMOOTH",
"838 496 OFFCURVE",
"883 571 OFFCURVE",
"938 635 CURVE",
"979 679 LINE",
"996 696 LINE",
"560 723 LINE",
"551 724 OFFCURVE",
"543 724 OFFCURVE",
"537 724 CURVE SMOOTH",
"422 724 OFFCURVE",
"339 670 OFFCURVE",
"288 562 CURVE SMOOTH",
"263 507 OFFCURVE",
"250 455 OFFCURVE",
"250 404 CURVE SMOOTH"
);
},
{
closed = 1;
nodes = (
"958 408 LINE SMOOTH",
"958 283 OFFCURVE",
"1029 194 OFFCURVE",
"1116 159 CURVE SMOOTH",
"1142 149 OFFCURVE",
"1168 144 OFFCURVE",
"1195 144 CURVE SMOOTH",
"1274 144 OFFCURVE",
"1349 189 OFFCURVE",
"1422 280 CURVE SMOOTH",
"1433 294 OFFCURVE",
"1444 309 OFFCURVE",
"1454 324 CURVE SMOOTH",
"1483 367 OFFCURVE",
"1518 431 OFFCURVE",
"1559 515 CURVE SMOOTH",
"1589 577 OFFCURVE",
"1620 631 OFFCURVE",
"1653 677 CURVE",
"1598 678 LINE",
"1188 685 LINE SMOOTH",
"1117 685 OFFCURVE",
"1073 675 OFFCURVE",
"1056 656 CURVE SMOOTH",
"995 589 OFFCURVE",
"963 512 OFFCURVE",
"958 425 CURVE"
);
}
);
width = 1845;
}
);
unicode = 0078;
},
{
glyphname = y;
layers = (
{
layerId = "79C964D5-2A53-42D4-9C27-6B5AFB4964EF";
name = Regular;
paths = (
{
closed = 1;
nodes = (
"-174 695 OFFCURVE",
"-156 724 OFFCURVE",
"-119 761 CURVE SMOOTH",
"-50 828 OFFCURVE",
"34 873 OFFCURVE",
"135 895 CURVE SMOOTH",
"161 900 OFFCURVE",
"187 904 OFFCURVE",
"214 906 CURVE",
"243 906 LINE SMOOTH",
"359 906 OFFCURVE",
"389 800 OFFCURVE",
"389 723 CURVE SMOOTH",
"389 692 OFFCURVE",
"384 657 OFFCURVE",
"373 617 CURVE",
"370 608 OFFCURVE",
"369 601 OFFCURVE",
"369 596 CURVE",
"392 619 LINE SMOOTH",
"504 728 OFFCURVE",
"613 806 OFFCURVE",
"719 851 CURVE SMOOTH",
"776 876 OFFCURVE",
"829 889 OFFCURVE",
"877 889 CURVE SMOOTH",
"1061 889 OFFCURVE",
"1171 749 OFFCURVE",
"1171 605 CURVE SMOOTH",
"1171 417 OFFCURVE",
"993 184 OFFCURVE",
"788 80 CURVE SMOOTH",
"755 63 OFFCURVE",
"721 49 OFFCURVE",
"688 40 CURVE",
"632 17 LINE",
"627 16 OFFCURVE",
"622 15 OFFCURVE",
"616 15 CURVE SMOOTH",
"456 18 LINE SMOOTH",
"298 18 OFFCURVE",
"166 9 OFFCURVE",
"61 -8 CURVE SMOOTH",
"27 -13 OFFCURVE",
"0 -16 OFFCURVE",
"-21 -16 CURVE SMOOTH",
"-31 -16 OFFCURVE",
"-36 -12 OFFCURVE",
"-36 -3 CURVE SMOOTH",
"-36 12 OFFCURVE",
"-22 36 OFFCURVE",
"5 67 CURVE",
"21 84 OFFCURVE",
"32 97 OFFCURVE",
"37 105 CURVE",
"94 189 OFFCURVE",
"142 298 OFFCURVE",
"182 431 CURVE SMOOTH",
"204 502 OFFCURVE",
"215 555 OFFCURVE",
"215 590 CURVE SMOOTH",
"215 656 OFFCURVE",
"195 702 OFFCURVE",
"154 729 CURVE SMOOTH",
"137 741 OFFCURVE",
"117 747 OFFCURVE",
"94 747 CURVE SMOOTH",
"21 747 OFFCURVE",
"-40 730 OFFCURVE",
"-90 695 CURVE SMOOTH",
"-117 676 OFFCURVE",
"-135 666 OFFCURVE",
"-143 664 CURVE",
"-148 663 OFFCURVE",
"-153 662 OFFCURVE",
"-158 662 CURVE SMOOTH",
"-169 662 OFFCURVE",
"-174 666 OFFCURVE",
"-174 675 CURVE SMOOTH"
);
},
{
closed = 1;
nodes = (
"350 154 LINE SMOOTH",
"416 159 OFFCURVE",
"493 161 OFFCURVE",
"581 161 CURVE SMOOTH",
"780 161 OFFCURVE",
"858 187 OFFCURVE",
"922 268 CURVE SMOOTH",
"972 331 OFFCURVE",
"997 399 OFFCURVE",
"997 471 CURVE SMOOTH",
"997 615 OFFCURVE",
"883 729 OFFCURVE",
"735 729 CURVE SMOOTH",
"628 729 OFFCURVE",
"499 641 OFFCURVE",
"411 533 CURVE SMOOTH",
"367 479 OFFCURVE",
"317 403 OFFCURVE",
"262 304 CURVE SMOOTH",
"221 230 OFFCURVE",
"188 174 OFFCURVE",
"162 136 CURVE"
);
}
);
width = 1261;
}
);
unicode = 0079;
},
{
glyphname = z;
layers = (
{
layerId = "79C964D5-2A53-42D4-9C27-6B5AFB4964EF";
name = Regular;
paths = (
{
closed = 1;
nodes = (
"-877 -2066 OFFCURVE",
"-849 -2029 OFFCURVE",
"-792 -1978 CURVE SMOOTH",
"-477 -1686 LINE SMOOTH",
"188 -1051 OFFCURVE",
"620 -455 OFFCURVE",
"819 100 CURVE SMOOTH",
"863 231 LINE",
"790 167 LINE",
"695 94 OFFCURVE",
"616 45 OFFCURVE",
"552 18 CURVE SMOOTH",
"498 -5 OFFCURVE",
"448 -16 OFFCURVE",
"402 -16 CURVE SMOOTH",
"221 -16 OFFCURVE",
"108 120 OFFCURVE",
"108 268 CURVE SMOOTH",
"108 271 LINE SMOOTH",
"108 377 OFFCURVE",
"157 487 OFFCURVE",
"256 602 CURVE SMOOTH",
"295 648 OFFCURVE",
"338 689 OFFCURVE",
"384 726 CURVE",
"374 726 LINE",
"337 729 OFFCURVE",
"300 730 OFFCURVE",
"264 730 CURVE SMOOTH",
"92 730 OFFCURVE",
"-34 701 OFFCURVE",
"-113 644 CURVE SMOOTH",
"-175 596 LINE",
"-189 587 OFFCURVE",
"-203 583 OFFCURVE",
"-217 583 CURVE SMOOTH",
"-228 583 OFFCURVE",
"-234 588 OFFCURVE",
"-234 598 CURVE SMOOTH",
"-234 619 OFFCURVE",
"-213 648 OFFCURVE",
"-171 687 CURVE SMOOTH",
"-14 832 OFFCURVE",
"203 873 OFFCURVE",
"363 873 CURVE SMOOTH",
"436 873 OFFCURVE",
"568 864 OFFCURVE",
"759 847 CURVE SMOOTH",
"941 830 OFFCURVE",
"1092 821 OFFCURVE",
"1213 821 CURVE SMOOTH",
"1237 821 OFFCURVE",
"1250 819 OFFCURVE",
"1252 814 CURVE",
"1253 812 OFFCURVE",
"1253 810 OFFCURVE",
"1253 807 CURVE SMOOTH",
"1253 794 OFFCURVE",
"1245 778 OFFCURVE",
"1230 761 CURVE SMOOTH",
"1161 684 OFFCURVE",
"1131 612 OFFCURVE",
"1104 545 CURVE SMOOTH",
"1089 506 OFFCURVE",
"1060 422 OFFCURVE",
"1017 291 CURVE SMOOTH",
"990 208 OFFCURVE",
"961 130 OFFCURVE",
"930 59 CURVE SMOOTH",
"708 -450 OFFCURVE",
"336 -969 OFFCURVE",
"-185 -1498 CURVE SMOOTH",
"-471 -1777 LINE SMOOTH",
"-627 -1924 OFFCURVE",
"-730 -2018 OFFCURVE",
"-781 -2061 CURVE",
"-813 -2086 OFFCURVE",
"-840 -2100 OFFCURVE",
"-862 -2102 CURVE",
"-872 -2102 OFFCURVE",
"-877 -2098 OFFCURVE",
"-877 -2089 CURVE SMOOTH"
);
},
{
closed = 1;
nodes = (
"282 248 OFFCURVE",
"408 144 OFFCURVE",
"545 144 CURVE SMOOTH",
"701 144 OFFCURVE",
"847 284 OFFCURVE",
"944 472 CURVE SMOOTH",
"1024 623 LINE",
"1060 677 LINE",
"1060 678 OFFCURVE",
"1047 679 OFFCURVE",
"1021 679 CURVE SMOOTH",
"925 681 OFFCURVE",
"805 688 OFFCURVE",
"660 700 CURVE SMOOTH",
"629 703 OFFCURVE",
"604 704 OFFCURVE",
"586 704 CURVE SMOOTH",
"390 704 OFFCURVE",
"282 551 OFFCURVE",
"282 403 CURVE SMOOTH"
);
}
);
width = 1253;
}
);
unicode = 007A;
},
{
glyphname = cent;
layers = (
{
layerId = "79C964D5-2A53-42D4-9C27-6B5AFB4964EF";
name = Regular;
paths = (
{
closed = 1;
nodes = (
"-163 702 OFFCURVE",
"-147 727 OFFCURVE",
"-114 760 CURVE SMOOTH",
"-52 822 OFFCURVE",
"22 860 OFFCURVE",
"107 874 CURVE SMOOTH",
"138 879 OFFCURVE",
"179 882 OFFCURVE",
"231 882 CURVE SMOOTH",
"291 882 LINE SMOOTH",
"394 882 OFFCURVE",
"460 889 OFFCURVE",
"489 902 CURVE",
"497 905 OFFCURVE",
"504 910 OFFCURVE",
"511 916 CURVE",
"542 939 OFFCURVE",
"565 951 OFFCURVE",
"580 951 CURVE SMOOTH",
"594 951 OFFCURVE",
"601 946 OFFCURVE",
"601 936 CURVE SMOOTH",
"601 918 OFFCURVE",
"584 892 OFFCURVE",
"551 859 CURVE SMOOTH",
"489 798 OFFCURVE",
"415 760 OFFCURVE",
"330 747 CURVE SMOOTH",
"300 742 OFFCURVE",
"259 739 OFFCURVE",
"206 739 CURVE SMOOTH",
"146 739 LINE SMOOTH",
"35 739 OFFCURVE",
"-36 730 OFFCURVE",
"-67 711 CURVE",
"-107 683 LINE",
"-122 675 OFFCURVE",
"-135 671 OFFCURVE",
"-147 670 CURVE",
"-158 670 OFFCURVE",
"-163 675 OFFCURVE",
"-163 685 CURVE SMOOTH"
);
}
);
width = 262;
}
);
unicode = 00A2;
},
{
glyphname = guillemotleft;
layers = (
{
layerId = "79C964D5-2A53-42D4-9C27-6B5AFB4964EF";
name = Regular;
paths = (
{
closed = 1;
nodes = (
"72 252 OFFCURVE",
"89 282 OFFCURVE",
"124 300 CURVE",
"139 307 OFFCURVE",
"155 310 OFFCURVE",
"173 310 CURVE SMOOTH",
"216 310 OFFCURVE",
"246 293 OFFCURVE",
"263 258 CURVE SMOOTH",
"270 243 OFFCURVE",
"274 227 OFFCURVE",
"274 210 CURVE",
"271 181 LINE",
"271 180 LINE",
"278 174 OFFCURVE",
"308 171 OFFCURVE",
"361 170 CURVE SMOOTH",
"578 170 OFFCURVE",
"746 302 OFFCURVE",
"1025 491 CURVE SMOOTH",
"1083 530 OFFCURVE",
"1131 561 OFFCURVE",
"1170 584 CURVE SMOOTH",
"1321 674 OFFCURVE",
"1449 719 OFFCURVE",
"1556 719 CURVE SMOOTH",
"1690 719 OFFCURVE",
"1821 656 OFFCURVE",
"1950 530 CURVE SMOOTH",
"1992 489 OFFCURVE",
"2013 461 OFFCURVE",
"2013 446 CURVE SMOOTH",
"2013 439 OFFCURVE",
"2009 435 OFFCURVE",
"2002 435 CURVE SMOOTH",
"1993 435 OFFCURVE",
"1975 443 OFFCURVE",
"1948 459 CURVE SMOOTH",
"1886 496 OFFCURVE",
"1813 515 OFFCURVE",
"1730 516 CURVE SMOOTH",
"1715 516 LINE SMOOTH",
"1574 516 OFFCURVE",
"1390 455 OFFCURVE",
"1165 332 CURVE SMOOTH",
"949 211 LINE SMOOTH",
"752 108 OFFCURVE",
"602 53 OFFCURVE",
"499 46 CURVE",
"490 45 OFFCURVE",
"481 45 OFFCURVE",
"472 45 CURVE SMOOTH",
"387 45 OFFCURVE",
"312 67 OFFCURVE",
"248 111 CURVE",
"237 118 OFFCURVE",
"231 123 OFFCURVE",
"228 124 CURVE",
"202 114 OFFCURVE",
"184 109 OFFCURVE",
"173 109 CURVE SMOOTH",
"133 109 OFFCURVE",
"104 125 OFFCURVE",
"86 156 CURVE SMOOTH",
"77 172 OFFCURVE",
"72 190 OFFCURVE",
"72 210 CURVE SMOOTH"
);
},
{
closed = 1;
nodes = (
"212 705 OFFCURVE",
"229 736 OFFCURVE",
"264 753 CURVE SMOOTH",
"278 760 OFFCURVE",
"294 764 OFFCURVE",
"312 764 CURVE SMOOTH",
"354 764 OFFCURVE",
"384 746 OFFCURVE",
"402 711 CURVE",
"409 696 OFFCURVE",
"413 680 OFFCURVE",
"413 662 CURVE",
"410 635 LINE",
"410 632 OFFCURVE",
"425 630 OFFCURVE",
"455 630 CURVE SMOOTH",
"651 630 OFFCURVE",
"789 836 OFFCURVE",
"982 1139 CURVE SMOOTH",
"1178 1447 OFFCURVE",
"1323 1667 OFFCURVE",
"1538 1678 CURVE",
"1543 1679 OFFCURVE",
"1547 1679 OFFCURVE",
"1552 1679 CURVE SMOOTH",
"1727 1679 OFFCURVE",
"1922 1519 OFFCURVE",
"1969 1446 CURVE",
"1975 1435 OFFCURVE",
"1978 1427 OFFCURVE",
"1978 1420 CURVE SMOOTH",
"1978 1413 OFFCURVE",
"1974 1410 OFFCURVE",
"1967 1410 CURVE SMOOTH",
"1960 1410 OFFCURVE",
"1941 1418 OFFCURVE",
"1911 1435 CURVE SMOOTH",
"1852 1468 OFFCURVE",
"1793 1485 OFFCURVE",
"1732 1485 CURVE SMOOTH",
"1503 1485 OFFCURVE",
"1345 1283 OFFCURVE",
"1133 1002 CURVE SMOOTH",
"1025 857 OFFCURVE",
"944 755 OFFCURVE",
"890 696 CURVE SMOOTH",
"859 662 OFFCURVE",
"828 632 OFFCURVE",
"799 605 CURVE SMOOTH",
"725 538 OFFCURVE",
"649 505 OFFCURVE",
"572 505 CURVE SMOOTH",
"501 505 OFFCURVE",
"435 527 OFFCURVE",
"375 571 CURVE SMOOTH",
"367 577 LINE",
"351 566 OFFCURVE",
"332 561 OFFCURVE",
"311 561 CURVE SMOOTH",
"255 561 OFFCURVE",
"212 602 OFFCURVE",
"212 662 CURVE SMOOTH"
);
}
);
width = 1914;
}
);
unicode = 00AB;
},
{
glyphname = registered;
layers = (
{
layerId = "79C964D5-2A53-42D4-9C27-6B5AFB4964EF";
name = Regular;
paths = (
{
closed = 1;
nodes = (
"248 1855 OFFCURVE",
"409 2062 OFFCURVE",
"637 2142 CURVE SMOOTH",
"702 2165 OFFCURVE",
"768 2176 OFFCURVE",
"835 2176 CURVE SMOOTH",
"1094 2176 OFFCURVE",
"1270 2024 OFFCURVE",
"1270 1812 CURVE SMOOTH",
"1270 1500 OFFCURVE",
"1022 1288 OFFCURVE",
"799 1077 CURVE SMOOTH",
"730 1012 OFFCURVE",
"683 963 OFFCURVE",
"657 932 CURVE SMOOTH",
"566 823 OFFCURVE",
"521 711 OFFCURVE",
"521 594 CURVE SMOOTH",
"521 546 OFFCURVE",
"542 511 OFFCURVE",
"583 488 CURVE SMOOTH",
"604 476 OFFCURVE",
"626 470 OFFCURVE",
"651 470 CURVE SMOOTH",
"673 470 OFFCURVE",
"695 478 OFFCURVE",
"716 495 CURVE SMOOTH",
"734 509 OFFCURVE",
"751 516 OFFCURVE",
"768 516 CURVE SMOOTH",
"777 516 OFFCURVE",
"782 511 OFFCURVE",
"782 502 CURVE SMOOTH",
"782 450 OFFCURVE",
"652 332 OFFCURVE",
"536 313 CURVE",
"526 311 OFFCURVE",
"516 310 OFFCURVE",
"507 310 CURVE SMOOTH",
"410 310 OFFCURVE",
"347 378 OFFCURVE",
"347 466 CURVE SMOOTH",
"347 761 OFFCURVE",
"582 967 OFFCURVE",
"807 1183 CURVE SMOOTH",
"865 1239 OFFCURVE",
"907 1281 OFFCURVE",
"934 1310 CURVE SMOOTH",
"1042 1428 OFFCURVE",
"1096 1551 OFFCURVE",
"1096 1680 CURVE SMOOTH",
"1096 1868 OFFCURVE",
"928 2010 OFFCURVE",
"721 2017 CURVE SMOOTH",
"707 2017 LINE SMOOTH",
"613 2017 OFFCURVE",
"540 2002 OFFCURVE",
"487 1972 CURVE SMOOTH",
"473 1964 OFFCURVE",
"463 1956 OFFCURVE",
"457 1948 CURVE",
"436 1913 OFFCURVE",
"424 1873 OFFCURVE",
"422 1830 CURVE",
"422 1801 OFFCURVE",
"436 1770 OFFCURVE",
"463 1738 CURVE SMOOTH",
"487 1709 OFFCURVE",
"502 1688 OFFCURVE",
"507 1675 CURVE SMOOTH",
"511 1664 OFFCURVE",
"513 1653 OFFCURVE",
"513 1642 CURVE SMOOTH",
"513 1587 OFFCURVE",
"468 1511 OFFCURVE",
"377 1511 CURVE SMOOTH",
"269 1511 OFFCURVE",
"248 1622 OFFCURVE",
"248 1694 CURVE SMOOTH"
);
},
{
closed = 1;
nodes = (
"316 140 OFFCURVE",
"356 189 OFFCURVE",
"415 189 CURVE SMOOTH",
"458 189 OFFCURVE",
"488 172 OFFCURVE",
"506 138 CURVE SMOOTH",
"514 123 OFFCURVE",
"518 107 OFFCURVE",
"518 88 CURVE SMOOTH",
"518 45 OFFCURVE",
"500 15 OFFCURVE",
"465 -2 CURVE SMOOTH",
"450 -9 OFFCURVE",
"434 -13 OFFCURVE",
"417 -12 CURVE",
"374 -12 OFFCURVE",
"344 5 OFFCURVE",
"327 40 CURVE SMOOTH",
"320 55 OFFCURVE",
"316 70 OFFCURVE",
"316 87 CURVE SMOOTH"
);
}
);
width = 696;
}
);
unicode = 00AE;
},
{
glyphname = guillemotright;
layers = (
{
layerId = "79C964D5-2A53-42D4-9C27-6B5AFB4964EF";
name = Regular;
paths = (
{
closed = 1;
nodes = (
"22 465 OFFCURVE",
"48 497 OFFCURVE",
"99 544 CURVE SMOOTH",
"163 602 OFFCURVE",
"226 644 OFFCURVE",
"288 669 CURVE SMOOTH",
"331 686 OFFCURVE",
"369 694 OFFCURVE",
"400 695 CURVE SMOOTH",
"631 698 OFFCURVE",
"780 565 OFFCURVE",
"1003 392 CURVE SMOOTH",
"1116 305 OFFCURVE",
"1207 246 OFFCURVE",
"1275 216 CURVE SMOOTH",
"1335 189 OFFCURVE",
"1393 176 OFFCURVE",
"1448 176 CURVE SMOOTH",
"1469 176 OFFCURVE",
"1487 178 OFFCURVE",
"1504 181 CURVE",
"1502 189 OFFCURVE",
"1501 198 OFFCURVE",
"1501 207 CURVE SMOOTH",
"1501 250 OFFCURVE",
"1518 281 OFFCURVE",
"1551 299 CURVE",
"1566 306 OFFCURVE",
"1583 310 OFFCURVE",
"1602 310 CURVE SMOOTH",
"1645 310 OFFCURVE",
"1675 293 OFFCURVE",
"1692 258 CURVE SMOOTH",
"1699 243 OFFCURVE",
"1702 227 OFFCURVE",
"1702 210 CURVE SMOOTH",
"1702 169 OFFCURVE",
"1685 139 OFFCURVE",
"1650 121 CURVE SMOOTH",
"1635 113 OFFCURVE",
"1618 109 OFFCURVE",
"1601 109 CURVE SMOOTH",
"1583 109 OFFCURVE",
"1565 114 OFFCURVE",
"1547 124 CURVE",
"1489 85 OFFCURVE",
"1436 63 OFFCURVE",
"1387 56 CURVE SMOOTH",
"1371 54 OFFCURVE",
"1354 53 OFFCURVE",
"1336 53 CURVE SMOOTH",
"1203 53 OFFCURVE",
"1067 123 OFFCURVE",
"834 267 CURVE SMOOTH",
"623 398 OFFCURVE",
"461 502 OFFCURVE",
"266 502 CURVE SMOOTH",
"195 502 OFFCURVE",
"135 487 OFFCURVE",
"84 457 CURVE SMOOTH",
"60 442 OFFCURVE",
"43 435 OFFCURVE",
"34 435 CURVE SMOOTH",
"26 435 OFFCURVE",
"22 439 OFFCURVE",
"22 446 CURVE SMOOTH"
);
},
{
closed = 1;
nodes = (
"75 1439 OFFCURVE",
"101 1473 OFFCURVE",
"154 1522 CURVE SMOOTH",
"233 1594 OFFCURVE",
"314 1645 OFFCURVE",
"395 1675 CURVE SMOOTH",
"435 1690 OFFCURVE",
"471 1697 OFFCURVE",
"503 1697 CURVE SMOOTH",
"743 1697 OFFCURVE",
"902 1463 OFFCURVE",
"1102 1150 CURVE SMOOTH",
"1294 849 OFFCURVE",
"1420 654 OFFCURVE",
"1605 631 CURVE SMOOTH",
"1614 630 OFFCURVE",
"1624 629 OFFCURVE",
"1634 629 CURVE SMOOTH",
"1663 629 OFFCURVE",
"1678 631 OFFCURVE",
"1678 635 CURVE",
"1675 660 LINE",
"1675 703 OFFCURVE",
"1692 734 OFFCURVE",
"1725 752 CURVE SMOOTH",
"1740 760 OFFCURVE",
"1757 764 OFFCURVE",
"1776 764 CURVE SMOOTH",
"1820 764 OFFCURVE",
"1850 746 OFFCURVE",
"1866 710 CURVE",
"1873 696 OFFCURVE",
"1876 680 OFFCURVE",
"1876 663 CURVE SMOOTH",
"1876 621 OFFCURVE",
"1859 591 OFFCURVE",
"1825 573 CURVE SMOOTH",
"1810 565 OFFCURVE",
"1794 561 OFFCURVE",
"1776 561 CURVE SMOOTH",
"1759 561 OFFCURVE",
"1740 566 OFFCURVE",
"1721 577 CURVE",
"1679 540 OFFCURVE",
"1623 517 OFFCURVE",
"1554 507 CURVE SMOOTH",
"1541 505 OFFCURVE",
"1530 504 OFFCURVE",
"1520 504 CURVE SMOOTH",
"1321 504 OFFCURVE",
"1180 685 OFFCURVE",
"973 958 CURVE SMOOTH",
"788 1205 OFFCURVE",
"621 1434 OFFCURVE",
"396 1479 CURVE SMOOTH",
"373 1484 OFFCURVE",
"349 1486 OFFCURVE",
"326 1486 CURVE SMOOTH",
"264 1486 OFFCURVE",
"204 1469 OFFCURVE",
"146 1436 CURVE SMOOTH",
"116 1419 OFFCURVE",
"96 1410 OFFCURVE",
"87 1410 CURVE SMOOTH",
"79 1410 OFFCURVE",
"75 1413 OFFCURVE",
"75 1420 CURVE SMOOTH"
);
}
);
width = 1914;
}
);
unicode = 00BB;
},
{
glyphname = questiondown;
layers = (
{
layerId = "79C964D5-2A53-42D4-9C27-6B5AFB4964EF";
name = Regular;
paths = (
{
closed = 1;
nodes = (
"104 273 OFFCURVE",
"205 513 OFFCURVE",
"406 858 CURVE SMOOTH",
"718 1393 OFFCURVE",
"1159 1921 OFFCURVE",
"1728 2443 CURVE SMOOTH",
"1795 2504 OFFCURVE",
"1840 2540 OFFCURVE",
"1862 2549 CURVE",
"1871 2552 OFFCURVE",
"1879 2554 OFFCURVE",
"1886 2554 CURVE SMOOTH",
"1897 2554 OFFCURVE",
"1902 2549 OFFCURVE",
"1902 2540 CURVE SMOOTH",
"1902 2523 OFFCURVE",
"1887 2499 OFFCURVE",
"1858 2470 CURVE SMOOTH",
"1613 2240 LINE",
"1491 2120 LINE",
"1272 1890 LINE SMOOTH",
"1003 1595 OFFCURVE",
"776 1292 OFFCURVE",
"589 982 CURVE SMOOTH",
"563 939 LINE",
"637 870 OFFCURVE",
"696 760 OFFCURVE",
"740 609 CURVE SMOOTH",
"811 335 LINE",
"840 240 OFFCURVE",
"875 181 OFFCURVE",
"918 158 CURVE",
"935 148 OFFCURVE",
"955 143 OFFCURVE",
"978 143 CURVE SMOOTH",
"989 143 OFFCURVE",
"1000 145 OFFCURVE",
"1012 150 CURVE",
"1032 170 LINE SMOOTH",
"1111 252 OFFCURVE",
"1166 297 OFFCURVE",
"1197 305 CURVE",
"1202 306 OFFCURVE",
"1207 307 OFFCURVE",
"1211 307 CURVE SMOOTH",
"1221 307 OFFCURVE",
"1226 303 OFFCURVE",
"1226 294 CURVE SMOOTH",
"1226 270 OFFCURVE",
"1205 239 OFFCURVE",
"1163 202 CURVE",
"1130 169 LINE SMOOTH",
"1015 46 OFFCURVE",
"917 -16 OFFCURVE",
"834 -16 CURVE SMOOTH",
"769 -16 OFFCURVE",
"716 19 OFFCURVE",
"676 90 CURVE SMOOTH",
"668 105 OFFCURVE",
"662 119 OFFCURVE",
"657 132 CURVE",
"525 22 OFFCURVE",
"404 -33 OFFCURVE",
"294 -33 CURVE SMOOTH",
"282 -33 LINE SMOOTH",
"185 -33 OFFCURVE",
"127 6 OFFCURVE",
"110 85 CURVE SMOOTH",
"106 101 OFFCURVE",
"104 119 OFFCURVE",
"104 138 CURVE SMOOTH"
);
},
{
closed = 1;
nodes = (
"279 175 OFFCURVE",
"331 126 OFFCURVE",
"435 126 CURVE SMOOTH",
"495 126 OFFCURVE",
"550 144 OFFCURVE",
"600 179 CURVE SMOOTH",
"633 203 LINE",
"582 406 OFFCURVE",
"545 537 OFFCURVE",
"523 595 CURVE SMOOTH",
"500 658 OFFCURVE",
"475 703 OFFCURVE",
"448 730 CURVE",
"447 730 OFFCURVE",
"442 720 OFFCURVE",
"431 701 CURVE",
"337 518 OFFCURVE",
"287 384 OFFCURVE",
"280 298 CURVE SMOOTH",
"279 289 OFFCURVE",
"279 281 OFFCURVE",
"279 272 CURVE SMOOTH"
);
}
);
width = 1028;
}
);
unicode = 00BF;
},
{
glyphname = Adieresis;
layers = (
{
layerId = "79C964D5-2A53-42D4-9C27-6B5AFB4964EF";
name = Regular;
paths = (
{
closed = 1;
nodes = (
"-815 -2067 OFFCURVE",
"-787 -2030 OFFCURVE",
"-731 -1978 CURVE SMOOTH",
"-518 -1783 LINE SMOOTH",
"-6 -1303 OFFCURVE",
"492 -776 OFFCURVE",
"804 -87 CURVE SMOOTH",
"827 -35 OFFCURVE",
"839 -7 OFFCURVE",
"839 -4 CURVE SMOOTH",
"839 4 OFFCURVE",
"606 17 OFFCURVE",
"527 17 CURVE SMOOTH",
"487 17 OFFCURVE",
"415 11 OFFCURVE",
"311 0 CURVE SMOOTH",
"260 -5 OFFCURVE",
"216 -8 OFFCURVE",
"180 -8 CURVE SMOOTH",
"117 -8 OFFCURVE",
"56 -2 OFFCURVE",
"-2 10 CURVE SMOOTH",
"-47 19 OFFCURVE",
"-69 29 OFFCURVE",
"-69 42 CURVE SMOOTH",
"-69 95 OFFCURVE",
"37 170 OFFCURVE",
"68 170 CURVE",
"167 146 LINE",
"208 139 OFFCURVE",
"252 135 OFFCURVE",
"297 135 CURVE SMOOTH",
"331 135 OFFCURVE",
"355 136 OFFCURVE",
"368 139 CURVE",
"325 208 OFFCURVE",
"302 279 OFFCURVE",
"298 352 CURVE",
"298 381 LINE SMOOTH",
"298 628 OFFCURVE",
"512 816 OFFCURVE",
"717 872 CURVE SMOOTH",
"757 883 OFFCURVE",
"795 889 OFFCURVE",
"830 889 CURVE SMOOTH",
"946 889 OFFCURVE",
"1032 832 OFFCURVE",
"1089 718 CURVE SMOOTH",
"1098 701 OFFCURVE",
"1105 683 OFFCURVE",
"1112 664 CURVE",
"1167 730 LINE",
"1204 770 OFFCURVE",
"1263 821 OFFCURVE",
"1300 821 CURVE SMOOTH",
"1302 821 OFFCURVE",
"1304 821 OFFCURVE",
"1305 820 CURVE",
"1311 820 OFFCURVE",
"1314 815 OFFCURVE",
"1314 806 CURVE SMOOTH",
"1314 793 OFFCURVE",
"1306 777 OFFCURVE",
"1291 760 CURVE SMOOTH",
"1255 719 OFFCURVE",
"1225 673 OFFCURVE",
"1200 623 CURVE SMOOTH",
"1189 599 OFFCURVE",
"1177 573 OFFCURVE",
"1166 545 CURVE SMOOTH",
"1157 524 OFFCURVE",
"1128 439 OFFCURVE",
"1077 291 CURVE SMOOTH",
"1002 71 OFFCURVE",
"912 -130 OFFCURVE",
"808 -313 CURVE SMOOTH",
"555 -758 OFFCURVE",
"149 -1246 OFFCURVE",
"-410 -1777 CURVE SMOOTH",
"-534 -1896 OFFCURVE",
"-635 -1989 OFFCURVE",
"-713 -2056 CURVE",
"-718 -2059 OFFCURVE",
"-721 -2062 OFFCURVE",
"-723 -2064 CURVE",
"-756 -2089 OFFCURVE",
"-781 -2102 OFFCURVE",
"-800 -2102 CURVE SMOOTH",
"-810 -2102 OFFCURVE",
"-815 -2098 OFFCURVE",
"-815 -2089 CURVE SMOOTH"
);
},
{
closed = 1;
nodes = (
"453 259 OFFCURVE",
"588 163 OFFCURVE",
"724 159 CURVE SMOOTH",
"776 158 OFFCURVE",
"824 155 OFFCURVE",
"869 150 CURVE",
"897 148 LINE",
"948 302 LINE SMOOTH",
"964 352 OFFCURVE",
"973 383 OFFCURVE",
"974 396 CURVE SMOOTH",
"975 405 OFFCURVE",
"975 417 OFFCURVE",
"975 432 CURVE SMOOTH",
"975 636 OFFCURVE",
"845 745 OFFCURVE",
"698 745 CURVE SMOOTH",
"583 745 OFFCURVE",
"508 699 OFFCURVE",
"473 608 CURVE SMOOTH",
"460 575 OFFCURVE",
"453 538 OFFCURVE",
"453 498 CURVE SMOOTH"
);
}
);
width = 1314;
}
);
unicode = 00C4;
},
{
glyphname = AE;
layers = (
{
layerId = "79C964D5-2A53-42D4-9C27-6B5AFB4964EF";
name = Regular;
paths = (
{
closed = 1;
nodes = (
"-163 711 OFFCURVE",
"-140 742 OFFCURVE",
"-94 778 CURVE SMOOTH",
"-61 805 OFFCURVE",
"-49 812 OFFCURVE",
"4 812 CURVE SMOOTH",
"23 812 LINE SMOOTH",
"237 812 OFFCURVE",
"379 837 OFFCURVE",
"449 888 CURVE",
"494 924 LINE",
"505 931 OFFCURVE",
"517 934 OFFCURVE",
"531 934 CURVE SMOOTH",
"542 934 OFFCURVE",
"548 929 OFFCURVE",
"548 919 CURVE SMOOTH",
"548 880 OFFCURVE",
"462 796 OFFCURVE",
"355 741 CURVE SMOOTH",
"219 673 OFFCURVE",
"69 669 OFFCURVE",
"-75 669 CURVE SMOOTH",
"-128 669 OFFCURVE",
"-157 671 OFFCURVE",
"-161 675 CURVE",
"-162 677 OFFCURVE",
"-163 680 OFFCURVE",
"-163 684 CURVE SMOOTH"
);
}
);
width = 0;
}
);
unicode = 00C6;
},
{
glyphname = Ccedilla;
layers = (
{
layerId = "79C964D5-2A53-42D4-9C27-6B5AFB4964EF";
name = Regular;
paths = (
{
closed = 1;
nodes = (
"160 140 OFFCURVE",
"200 189 OFFCURVE",
"259 189 CURVE SMOOTH",
"300 189 OFFCURVE",
"330 173 OFFCURVE",
"349 140 CURVE SMOOTH",
"358 125 OFFCURVE",
"362 107 OFFCURVE",
"362 88 CURVE SMOOTH",
"362 48 OFFCURVE",
"346 19 OFFCURVE",
"313 0 CURVE SMOOTH",
"298 -8 OFFCURVE",
"280 -12 OFFCURVE",
"261 -12 CURVE SMOOTH",
"220 -12 OFFCURVE",
"190 5 OFFCURVE",
"172 39 CURVE SMOOTH",
"164 54 OFFCURVE",
"160 70 OFFCURVE",
"160 87 CURVE SMOOTH"
);
},
{
closed = 1;
nodes = (
"261 401 OFFCURVE",
"270 460 OFFCURVE",
"288 565 CURVE SMOOTH",
"358 969 OFFCURVE",
"484 1427 OFFCURVE",
"666 1938 CURVE SMOOTH",
"715 2079 OFFCURVE",
"723 2090 OFFCURVE",
"780 2135 CURVE SMOOTH",
"815 2163 OFFCURVE",
"841 2177 OFFCURVE",
"860 2177 CURVE SMOOTH",
"870 2177 OFFCURVE",
"875 2173 OFFCURVE",
"875 2165 CURVE SMOOTH",
"875 2161 LINE SMOOTH",
"875 2158 OFFCURVE",
"861 2116 OFFCURVE",
"832 2036 CURVE SMOOTH",
"795 1932 OFFCURVE",
"753 1809 OFFCURVE",
"708 1668 CURVE SMOOTH",
"580 1267 OFFCURVE",
"490 892 OFFCURVE",
"439 545 CURVE SMOOTH",
"435 517 OFFCURVE",
"430 499 OFFCURVE",
"425 490 CURVE",
"424 489 OFFCURVE",
"422 486 OFFCURVE",
"420 483 CURVE SMOOTH",
"395 446 OFFCURVE",
"363 416 OFFCURVE",
"322 391 CURVE SMOOTH",
"303 380 OFFCURVE",
"287 374 OFFCURVE",
"276 374 CURVE SMOOTH",
"266 374 OFFCURVE",
"261 379 OFFCURVE",
"261 388 CURVE SMOOTH"
);
}
);
width = 696;
}
);
unicode = 00C7;
},
{
glyphname = Oslash;
layers = (
{
layerId = "79C964D5-2A53-42D4-9C27-6B5AFB4964EF";
name = Regular;
paths = (
{
closed = 1;
nodes = (
"-960 1437 LINE",
"-945 1470 OFFCURVE",
"-919 1499 OFFCURVE",
"-880 1524 CURVE SMOOTH",
"-862 1536 OFFCURVE",
"-848 1542 OFFCURVE",
"-839 1542 CURVE SMOOTH",
"-832 1542 OFFCURVE",
"-828 1538 OFFCURVE",
"-827 1530 CURVE",
"-826 1529 OFFCURVE",
"-826 1527 OFFCURVE",
"-826 1523 CURVE SMOOTH",
"-826 1499 OFFCURVE",
"-816 1472 OFFCURVE",
"-795 1442 CURVE SMOOTH",
"-762 1393 OFFCURVE",
"-715 1368 OFFCURVE",
"-656 1368 CURVE SMOOTH",
"-559 1368 OFFCURVE",
"-481 1394 OFFCURVE",
"-424 1446 CURVE SMOOTH",
"-416 1453 OFFCURVE",
"-409 1459 OFFCURVE",
"-404 1466 CURVE",
"-375 1501 OFFCURVE",
"-346 1525 OFFCURVE",
"-315 1538 CURVE SMOOTH",
"-308 1541 OFFCURVE",
"-303 1542 OFFCURVE",
"-298 1542 CURVE SMOOTH",
"-291 1542 OFFCURVE",
"-287 1539 OFFCURVE",
"-287 1533 CURVE SMOOTH",
"-287 1517 OFFCURVE",
"-307 1488 OFFCURVE",
"-346 1447 CURVE SMOOTH",
"-419 1369 OFFCURVE",
"-504 1312 OFFCURVE",
"-599 1277 CURVE SMOOTH",
"-656 1256 OFFCURVE",
"-712 1246 OFFCURVE",
"-767 1246 CURVE SMOOTH",
"-846 1246 OFFCURVE",
"-903 1280 OFFCURVE",
"-938 1347 CURVE SMOOTH",
"-953 1376 OFFCURVE",
"-960 1401 OFFCURVE",
"-960 1424 CURVE SMOOTH"
);
}
);
width = 0;
}
);
unicode = 00D8;
},
{
glyphname = Ugrave;
layers = (
{
layerId = "79C964D5-2A53-42D4-9C27-6B5AFB4964EF";
name = Regular;
paths = (
{
closed = 1;
nodes = (
"-624 1436 LINE",
"-609 1469 OFFCURVE",
"-583 1499 OFFCURVE",
"-545 1524 CURVE SMOOTH",
"-526 1536 OFFCURVE",
"-512 1542 OFFCURVE",
"-502 1542 CURVE SMOOTH",
"-494 1542 OFFCURVE",
"-490 1538 OFFCURVE",
"-490 1530 CURVE SMOOTH",
"-490 1425 OFFCURVE",
"-404 1368 OFFCURVE",
"-321 1368 CURVE SMOOTH",
"-230 1368 OFFCURVE",
"-155 1396 OFFCURVE",
"-98 1452 CURVE SMOOTH",
"-44 1507 LINE",
"-40 1511 LINE",
"-13 1532 OFFCURVE",
"7 1542 OFFCURVE",
"21 1542 CURVE SMOOTH",
"28 1542 OFFCURVE",
"32 1539 OFFCURVE",
"32 1532 CURVE SMOOTH",
"32 1517 OFFCURVE",
"13 1489 OFFCURVE",
"-24 1448 CURVE SMOOTH",
"-97 1368 OFFCURVE",
"-181 1311 OFFCURVE",
"-274 1276 CURVE SMOOTH",
"-328 1256 OFFCURVE",
"-381 1246 OFFCURVE",
"-434 1246 CURVE SMOOTH",
"-515 1246 OFFCURVE",
"-572 1281 OFFCURVE",
"-605 1350 CURVE SMOOTH",
"-618 1376 OFFCURVE",
"-624 1400 OFFCURVE",
"-624 1422 CURVE SMOOTH"
);
}
);
width = 0;
}
);
unicode = 00D9;
},
{
glyphname = Uacute;
layers = (
{
layerId = "79C964D5-2A53-42D4-9C27-6B5AFB4964EF";
name = Regular;
paths = (
{
closed = 1;
nodes = (
"-438 1421 OFFCURVE",
"-438 1425 OFFCURVE",
"-437 1428 CURVE",
"-437 1473 OFFCURVE",
"-341 1542 OFFCURVE",
"-316 1542 CURVE SMOOTH",
"-309 1542 OFFCURVE",
"-305 1540 OFFCURVE",
"-304 1537 CURVE",
"-303 1521 LINE",
"-303 1414 OFFCURVE",
"-219 1369 OFFCURVE",
"-147 1369 CURVE SMOOTH",
"-62 1369 OFFCURVE",
"3 1394 OFFCURVE",
"50 1443 CURVE",
"103 1503 LINE",
"104 1505 OFFCURVE",
"106 1507 OFFCURVE",
"108 1508 CURVE",
"136 1531 OFFCURVE",
"158 1542 OFFCURVE",
"173 1542 CURVE SMOOTH",
"180 1542 OFFCURVE",
"184 1539 OFFCURVE",
"184 1533 CURVE SMOOTH",
"184 1517 OFFCURVE",
"165 1488 OFFCURVE",
"128 1445 CURVE SMOOTH",
"58 1365 OFFCURVE",
"-22 1308 OFFCURVE",
"-111 1274 CURVE SMOOTH",
"-161 1255 OFFCURVE",
"-211 1245 OFFCURVE",
"-260 1245 CURVE SMOOTH",
"-383 1245 OFFCURVE",
"-438 1341 OFFCURVE",
"-438 1416 CURVE SMOOTH"
);
}
);
width = 0;
}
);
unicode = 00DA;
},
{
glyphname = Ucircumflex;
layers = (
{
layerId = "79C964D5-2A53-42D4-9C27-6B5AFB4964EF";
name = Regular;
paths = (
{
closed = 1;
nodes = (
"-284 1446 OFFCURVE",
"-260 1485 OFFCURVE",
"-212 1518 CURVE SMOOTH",
"-189 1534 OFFCURVE",
"-172 1542 OFFCURVE",
"-160 1542 CURVE SMOOTH",
"-153 1542 OFFCURVE",
"-149 1540 OFFCURVE",
"-148 1535 CURVE",
"-150 1505 LINE",
"-150 1444 OFFCURVE",
"-106 1368 OFFCURVE",
"-11 1368 CURVE SMOOTH",
"54 1368 OFFCURVE",
"103 1385 OFFCURVE",
"136 1420 CURVE",
"196 1493 LINE",
"213 1510 OFFCURVE",
"232 1524 OFFCURVE",
"253 1535 CURVE",
"264 1540 OFFCURVE",
"271 1542 OFFCURVE",
"276 1542 CURVE SMOOTH",
"283 1542 OFFCURVE",
"287 1539 OFFCURVE",
"287 1532 CURVE SMOOTH",
"287 1517 OFFCURVE",
"271 1488 OFFCURVE",
"238 1445 CURVE SMOOTH",
"173 1363 OFFCURVE",
"98 1305 OFFCURVE",
"11 1272 CURVE SMOOTH",
"-35 1254 OFFCURVE",
"-82 1245 OFFCURVE",
"-129 1245 CURVE SMOOTH",
"-196 1245 OFFCURVE",
"-284 1293 OFFCURVE",
"-284 1402 CURVE SMOOTH"
);
}
);
width = 0;
}
);
unicode = 00DB;
},
{
glyphname = agrave;
layers = (
{
layerId = "79C964D5-2A53-42D4-9C27-6B5AFB4964EF";
name = Regular;
paths = (
{
closed = 1;
nodes = (
"-1550 1998 OFFCURVE",
"-1440 2066 OFFCURVE",
"-1349 2066 CURVE SMOOTH",
"-1152 2066 OFFCURVE",
"-920 1852 OFFCURVE",
"-653 1425 CURVE SMOOTH",
"-251 767 LINE",
"-248 760 OFFCURVE",
"-246 754 OFFCURVE",
"-246 748 CURVE",
"-248 743 OFFCURVE",
"-252 741 OFFCURVE",
"-257 740 CURVE",
"-274 740 OFFCURVE",
"-298 754 OFFCURVE",
"-330 782 CURVE SMOOTH",
"-343 793 OFFCURVE",
"-354 805 OFFCURVE",
"-362 816 CURVE",
"-376 837 OFFCURVE",
"-441 942 OFFCURVE",
"-557 1133 CURVE SMOOTH",
"-794 1521 LINE SMOOTH",
"-879 1656 OFFCURVE",
"-955 1757 OFFCURVE",
"-1020 1825 CURVE SMOOTH",
"-1041 1847 OFFCURVE",
"-1062 1867 OFFCURVE",
"-1083 1884 CURVE SMOOTH",
"-1130 1923 OFFCURVE",
"-1181 1943 OFFCURVE",
"-1234 1943 CURVE SMOOTH",
"-1350 1943 OFFCURVE",
"-1416 1848 OFFCURVE",
"-1416 1749 CURVE SMOOTH",
"-1416 1718 OFFCURVE",
"-1410 1689 OFFCURVE",
"-1397 1660 CURVE SMOOTH",
"-1384 1629 OFFCURVE",
"-1354 1622 OFFCURVE",
"-1326 1622 CURVE SMOOTH",
"-1272 1622 OFFCURVE",
"-1235 1645 OFFCURVE",
"-1214 1692 CURVE SMOOTH",
"-1208 1706 OFFCURVE",
"-1205 1718 OFFCURVE",
"-1205 1729 CURVE SMOOTH",
"-1205 1739 OFFCURVE",
"-1211 1753 OFFCURVE",
"-1224 1770 CURVE",
"-1231 1780 OFFCURVE",
"-1235 1789 OFFCURVE",
"-1235 1797 CURVE SMOOTH",
"-1235 1804 OFFCURVE",
"-1232 1807 OFFCURVE",
"-1225 1807 CURVE SMOOTH",
"-1208 1807 OFFCURVE",
"-1182 1792 OFFCURVE",
"-1148 1761 CURVE SMOOTH",
"-1097 1715 OFFCURVE",
"-1071 1670 OFFCURVE",
"-1071 1626 CURVE SMOOTH",
"-1071 1574 OFFCURVE",
"-1116 1500 OFFCURVE",
"-1213 1500 CURVE SMOOTH",
"-1325 1500 OFFCURVE",
"-1491 1625 OFFCURVE",
"-1538 1774 CURVE SMOOTH",
"-1546 1801 OFFCURVE",
"-1550 1827 OFFCURVE",
"-1550 1854 CURVE SMOOTH"
);
}
);
width = 0;
}
);
unicode = 00E0;
},
{
glyphname = aacute;
layers = (
{
layerId = "79C964D5-2A53-42D4-9C27-6B5AFB4964EF";
name = Regular;
paths = (
{
closed = 1;
nodes = (
"-1394 1927 OFFCURVE",
"-1337 2055 OFFCURVE",
"-1190 2055 CURVE SMOOTH",
"-1037 2055 OFFCURVE",
"-864 1920 OFFCURVE",
"-673 1651 CURVE SMOOTH",
"-616 1570 OFFCURVE",
"-557 1477 OFFCURVE",
"-497 1372 CURVE SMOOTH",
"-274 973 OFFCURVE",
"-161 769 OFFCURVE",
"-156 760 CURVE",
"-155 757 OFFCURVE",
"-154 754 OFFCURVE",
"-154 751 CURVE SMOOTH",
"-154 748 OFFCURVE",
"-155 746 OFFCURVE",
"-156 745 CURVE",
"-156 742 OFFCURVE",
"-159 740 OFFCURVE",
"-165 740 CURVE SMOOTH",
"-184 740 OFFCURVE",
"-209 755 OFFCURVE",
"-242 786 CURVE",
"-257 799 OFFCURVE",
"-268 811 OFFCURVE",
"-276 824 CURVE",
"-648 1487 LINE SMOOTH",
"-788 1728 OFFCURVE",
"-904 1870 OFFCURVE",
"-997 1914 CURVE SMOOTH",
"-1024 1926 OFFCURVE",
"-1051 1932 OFFCURVE",
"-1079 1932 CURVE SMOOTH",
"-1150 1932 OFFCURVE",
"-1260 1881 OFFCURVE",
"-1260 1737 CURVE SMOOTH",
"-1260 1698 OFFCURVE",
"-1252 1664 OFFCURVE",
"-1235 1635 CURVE",
"-1230 1628 OFFCURVE",
"-1226 1623 OFFCURVE",
"-1222 1621 CURVE SMOOTH",
"-1208 1614 OFFCURVE",
"-1191 1611 OFFCURVE",
"-1172 1611 CURVE SMOOTH",
"-1119 1611 OFFCURVE",
"-1082 1634 OFFCURVE",
"-1062 1680 CURVE",
"-1057 1693 OFFCURVE",
"-1054 1705 OFFCURVE",
"-1054 1716 CURVE SMOOTH",
"-1054 1728 OFFCURVE",
"-1059 1740 OFFCURVE",
"-1069 1752 CURVE SMOOTH",
"-1076 1761 OFFCURVE",
"-1081 1771 OFFCURVE",
"-1082 1781 CURVE",
"-1082 1788 OFFCURVE",
"-1078 1792 OFFCURVE",
"-1071 1792 CURVE SMOOTH",
"-1024 1792 OFFCURVE",
"-920 1690 OFFCURVE",
"-920 1613 CURVE SMOOTH",
"-920 1562 OFFCURVE",
"-964 1488 OFFCURVE",
"-1061 1488 CURVE SMOOTH",
"-1168 1488 OFFCURVE",
"-1335 1605 OFFCURVE",
"-1382 1764 CURVE SMOOTH",
"-1390 1792 OFFCURVE",
"-1394 1820 OFFCURVE",
"-1394 1848 CURVE SMOOTH"
);
}
);
width = 0;
}
);
unicode = 00E1;
},
{
glyphname = acircumflex;
layers = (
{
layerId = "79C964D5-2A53-42D4-9C27-6B5AFB4964EF";
name = Regular;
paths = (
{
closed = 1;
nodes = (
"-1394 1927 OFFCURVE",
"-1337 2055 OFFCURVE",
"-1190 2055 CURVE SMOOTH",
"-1037 2055 OFFCURVE",
"-864 1920 OFFCURVE",
"-673 1651 CURVE SMOOTH",
"-616 1570 OFFCURVE",
"-557 1477 OFFCURVE",
"-497 1372 CURVE SMOOTH",
"-274 973 OFFCURVE",
"-161 769 OFFCURVE",
"-156 760 CURVE",
"-155 757 OFFCURVE",
"-154 754 OFFCURVE",
"-154 751 CURVE SMOOTH",
"-154 748 OFFCURVE",
"-155 746 OFFCURVE",
"-156 745 CURVE",
"-156 742 OFFCURVE",
"-159 740 OFFCURVE",
"-165 740 CURVE SMOOTH",
"-184 740 OFFCURVE",
"-209 755 OFFCURVE",
"-242 786 CURVE",
"-257 799 OFFCURVE",
"-268 811 OFFCURVE",
"-276 824 CURVE",
"-648 1487 LINE SMOOTH",
"-788 1728 OFFCURVE",
"-904 1870 OFFCURVE",
"-997 1914 CURVE SMOOTH",
"-1024 1926 OFFCURVE",
"-1051 1932 OFFCURVE",
"-1079 1932 CURVE SMOOTH",
"-1150 1932 OFFCURVE",
"-1260 1881 OFFCURVE",
"-1260 1737 CURVE SMOOTH",
"-1260 1698 OFFCURVE",
"-1252 1664 OFFCURVE",
"-1235 1635 CURVE",
"-1230 1628 OFFCURVE",
"-1226 1623 OFFCURVE",
"-1222 1621 CURVE SMOOTH",
"-1208 1614 OFFCURVE",
"-1191 1611 OFFCURVE",
"-1172 1611 CURVE SMOOTH",
"-1119 1611 OFFCURVE",
"-1082 1634 OFFCURVE",
"-1062 1680 CURVE",
"-1057 1693 OFFCURVE",
"-1054 1705 OFFCURVE",
"-1054 1716 CURVE SMOOTH",
"-1054 1728 OFFCURVE",
"-1059 1740 OFFCURVE",
"-1069 1752 CURVE SMOOTH",
"-1076 1761 OFFCURVE",
"-1081 1771 OFFCURVE",
"-1082 1781 CURVE",
"-1082 1788 OFFCURVE",
"-1078 1792 OFFCURVE",
"-1071 1792 CURVE SMOOTH",
"-1024 1792 OFFCURVE",
"-920 1690 OFFCURVE",
"-920 1613 CURVE SMOOTH",
"-920 1562 OFFCURVE",
"-964 1488 OFFCURVE",
"-1061 1488 CURVE SMOOTH",
"-1168 1488 OFFCURVE",
"-1335 1605 OFFCURVE",
"-1382 1764 CURVE SMOOTH",
"-1390 1792 OFFCURVE",
"-1394 1820 OFFCURVE",
"-1394 1848 CURVE SMOOTH"
);
}
);
width = 0;
}
);
unicode = 00E2;
},
{
glyphname = atilde;
layers = (
{
layerId = "79C964D5-2A53-42D4-9C27-6B5AFB4964EF";
name = Regular;
paths = (
{
closed = 1;
nodes = (
"-1155 2283 OFFCURVE",
"-1041 2354 OFFCURVE",
"-948 2354 CURVE SMOOTH",
"-841 2354 OFFCURVE",
"-733 2285 OFFCURVE",
"-623 2147 CURVE SMOOTH",
"-589 2104 OFFCURVE",
"-557 2058 OFFCURVE",
"-528 2007 CURVE SMOOTH",
"-463 1892 OFFCURVE",
"-399 1738 OFFCURVE",
"-336 1545 CURVE SMOOTH",
"-328 1521 LINE",
"-90 751 LINE",
"-90 744 OFFCURVE",
"-94 741 OFFCURVE",
"-101 741 CURVE SMOOTH",
"-134 741 OFFCURVE",
"-202 801 OFFCURVE",
"-218 836 CURVE",
"-221 841 OFFCURVE",
"-260 964 OFFCURVE",
"-335 1207 CURVE SMOOTH",
"-446 1567 OFFCURVE",
"-522 1797 OFFCURVE",
"-563 1898 CURVE SMOOTH",
"-597 1980 OFFCURVE",
"-639 2058 OFFCURVE",
"-688 2133 CURVE SMOOTH",
"-721 2183 OFFCURVE",
"-754 2213 OFFCURVE",
"-785 2224 CURVE SMOOTH",
"-799 2229 OFFCURVE",
"-816 2231 OFFCURVE",
"-835 2231 CURVE SMOOTH",
"-868 2231 OFFCURVE",
"-901 2220 OFFCURVE",
"-935 2197 CURVE SMOOTH",
"-992 2160 OFFCURVE",
"-1021 2104 OFFCURVE",
"-1021 2028 CURVE SMOOTH",
"-1021 1993 OFFCURVE",
"-1012 1957 OFFCURVE",
"-993 1920 CURVE",
"-972 1915 OFFCURVE",
"-960 1912 OFFCURVE",
"-957 1912 CURVE SMOOTH",
"-943 1912 LINE",
"-891 1914 OFFCURVE",
"-856 1936 OFFCURVE",
"-839 1979 CURVE SMOOTH",
"-835 1990 OFFCURVE",
"-833 1999 OFFCURVE",
"-833 2006 CURVE SMOOTH",
"-833 2015 LINE",
"-847 2036 OFFCURVE",
"-854 2050 OFFCURVE",
"-854 2057 CURVE SMOOTH",
"-854 2064 OFFCURVE",
"-851 2067 OFFCURVE",
"-844 2067 CURVE SMOOTH",
"-808 2067 OFFCURVE",
"-699 1977 OFFCURVE",
"-699 1908 CURVE SMOOTH",
"-699 1816 OFFCURVE",
"-779 1789 OFFCURVE",
"-839 1789 CURVE SMOOTH",
"-936 1789 OFFCURVE",
"-1100 1904 OFFCURVE",
"-1144 2055 CURVE SMOOTH",
"-1151 2080 OFFCURVE",
"-1155 2106 OFFCURVE",
"-1155 2131 CURVE SMOOTH"
);
}
);
width = 0;
}
);
unicode = 00E3;
},
{
glyphname = egrave;
layers = (
{
layerId = "79C964D5-2A53-42D4-9C27-6B5AFB4964EF";
name = Regular;
paths = (
{
closed = 1;
nodes = (
"-1346 1992 OFFCURVE",
"-1195 2128 OFFCURVE",
"-1075 2148 CURVE",
"-1065 2149 OFFCURVE",
"-1055 2150 OFFCURVE",
"-1046 2150 CURVE SMOOTH",
"-975 2150 OFFCURVE",
"-891 2105 OFFCURVE",
"-891 2021 CURVE SMOOTH",
"-891 1949 OFFCURVE",
"-998 1854 OFFCURVE",
"-1039 1854 CURVE SMOOTH",
"-1046 1854 OFFCURVE",
"-1050 1857 OFFCURVE",
"-1050 1863 CURVE SMOOTH",
"-1050 1874 OFFCURVE",
"-1042 1889 OFFCURVE",
"-1026 1908 CURVE",
"-1026 1920 LINE SMOOTH",
"-1026 1960 OFFCURVE",
"-1069 2027 OFFCURVE",
"-1162 2027 CURVE SMOOTH",
"-1198 2027 OFFCURVE",
"-1198 2018 OFFCURVE",
"-1207 1979 CURVE SMOOTH",
"-1210 1966 OFFCURVE",
"-1211 1953 OFFCURVE",
"-1211 1941 CURVE SMOOTH",
"-1211 1927 LINE SMOOTH",
"-1211 1823 OFFCURVE",
"-1078 1701 OFFCURVE",
"-850 1674 CURVE SMOOTH",
"-811 1669 OFFCURVE",
"-772 1666 OFFCURVE",
"-731 1666 CURVE SMOOTH",
"-664 1666 OFFCURVE",
"-606 1672 OFFCURVE",
"-555 1684 CURVE",
"-544 1687 OFFCURVE",
"-534 1688 OFFCURVE",
"-526 1688 CURVE SMOOTH",
"-519 1688 OFFCURVE",
"-516 1685 OFFCURVE",
"-516 1679 CURVE SMOOTH",
"-516 1658 OFFCURVE",
"-543 1625 OFFCURVE",
"-596 1580 CURVE SMOOTH",
"-696 1495 LINE SMOOTH",
"-997 1238 OFFCURVE",
"-1161 1110 OFFCURVE",
"-1188 1110 CURVE SMOOTH",
"-1209 1110 OFFCURVE",
"-1211 1133 OFFCURVE",
"-1191 1154 CURVE",
"-1101 1240 LINE SMOOTH",
"-1003 1332 OFFCURVE",
"-883 1434 OFFCURVE",
"-742 1546 CURVE",
"-742 1549 LINE",
"-744 1549 LINE",
"-777 1546 OFFCURVE",
"-811 1545 OFFCURVE",
"-846 1544 CURVE SMOOTH",
"-1010 1544 OFFCURVE",
"-1140 1579 OFFCURVE",
"-1237 1649 CURVE SMOOTH",
"-1301 1695 OFFCURVE",
"-1337 1748 OFFCURVE",
"-1345 1807 CURVE",
"-1346 1811 OFFCURVE",
"-1346 1816 OFFCURVE",
"-1346 1823 CURVE SMOOTH"
);
}
);
width = 0;
}
);
unicode = 00E8;
},
{
glyphname = eacute;
layers = (
{
layerId = "79C964D5-2A53-42D4-9C27-6B5AFB4964EF";
name = Regular;
paths = (
{
closed = 1;
nodes = (
"-1011 1916 OFFCURVE",
"-864 2052 OFFCURVE",
"-744 2075 CURVE SMOOTH",
"-733 2077 OFFCURVE",
"-723 2078 OFFCURVE",
"-713 2078 CURVE SMOOTH",
"-646 2078 OFFCURVE",
"-598 2051 OFFCURVE",
"-570 1998 CURVE SMOOTH",
"-561 1980 OFFCURVE",
"-556 1965 OFFCURVE",
"-556 1952 CURVE SMOOTH",
"-556 1879 OFFCURVE",
"-661 1781 OFFCURVE",
"-704 1781 CURVE SMOOTH",
"-711 1781 OFFCURVE",
"-715 1784 OFFCURVE",
"-715 1791 CURVE SMOOTH",
"-715 1801 OFFCURVE",
"-707 1816 OFFCURVE",
"-691 1836 CURVE",
"-691 1848 LINE SMOOTH",
"-691 1908 OFFCURVE",
"-755 1955 OFFCURVE",
"-826 1955 CURVE SMOOTH",
"-845 1955 OFFCURVE",
"-856 1952 OFFCURVE",
"-859 1947 CURVE",
"-860 1946 OFFCURVE",
"-860 1945 OFFCURVE",
"-861 1943 CURVE",
"-872 1918 OFFCURVE",
"-877 1891 OFFCURVE",
"-877 1860 CURVE SMOOTH",
"-877 1748 OFFCURVE",
"-743 1640 OFFCURVE",
"-564 1613 CURVE SMOOTH",
"-537 1609 OFFCURVE",
"-507 1607 OFFCURVE",
"-475 1607 CURVE SMOOTH",
"-428 1607 OFFCURVE",
"-392 1610 OFFCURVE",
"-368 1616 CURVE",
"-359 1616 OFFCURVE",
"-355 1613 OFFCURVE",
"-355 1606 CURVE SMOOTH",
"-355 1595 OFFCURVE",
"-365 1578 OFFCURVE",
"-385 1555 CURVE SMOOTH",
"-485 1438 OFFCURVE",
"-831 1109 OFFCURVE",
"-859 1109 CURVE SMOOTH",
"-870 1109 OFFCURVE",
"-875 1115 OFFCURVE",
"-876 1127 CURVE",
"-876 1145 OFFCURVE",
"-789 1243 OFFCURVE",
"-614 1420 CURVE SMOOTH",
"-550 1484 LINE",
"-588 1484 LINE SMOOTH",
"-709 1484 OFFCURVE",
"-812 1514 OFFCURVE",
"-897 1574 CURVE SMOOTH",
"-962 1619 OFFCURVE",
"-999 1668 OFFCURVE",
"-1008 1723 CURVE",
"-1010 1731 OFFCURVE",
"-1011 1743 OFFCURVE",
"-1011 1759 CURVE SMOOTH"
);
}
);
width = 0;
}
);
unicode = 00E9;
},
{
glyphname = ecircumflex;
layers = (
{
layerId = "79C964D5-2A53-42D4-9C27-6B5AFB4964EF";
name = Regular;
paths = (
{
closed = 1;
nodes = (
"-819 1929 OFFCURVE",
"-669 2063 OFFCURVE",
"-550 2084 CURVE SMOOTH",
"-540 2086 OFFCURVE",
"-530 2087 OFFCURVE",
"-520 2087 CURVE SMOOTH",
"-451 2087 OFFCURVE",
"-404 2060 OFFCURVE",
"-377 2005 CURVE SMOOTH",
"-368 1987 OFFCURVE",
"-364 1971 OFFCURVE",
"-364 1957 CURVE SMOOTH",
"-364 1885 OFFCURVE",
"-471 1790 OFFCURVE",
"-512 1790 CURVE SMOOTH",
"-519 1790 OFFCURVE",
"-523 1793 OFFCURVE",
"-523 1800 CURVE",
"-522 1807 OFFCURVE",
"-516 1819 OFFCURVE",
"-505 1835 CURVE SMOOTH",
"-500 1842 OFFCURVE",
"-498 1849 OFFCURVE",
"-498 1855 CURVE SMOOTH",
"-498 1915 OFFCURVE",
"-563 1964 OFFCURVE",
"-630 1964 CURVE SMOOTH",
"-651 1964 OFFCURVE",
"-663 1962 OFFCURVE",
"-666 1957 CURVE",
"-667 1956 OFFCURVE",
"-668 1955 OFFCURVE",
"-669 1952 CURVE",
"-680 1929 OFFCURVE",
"-685 1902 OFFCURVE",
"-685 1871 CURVE SMOOTH",
"-685 1750 OFFCURVE",
"-557 1668 OFFCURVE",
"-418 1637 CURVE SMOOTH",
"-381 1630 OFFCURVE",
"-343 1626 OFFCURVE",
"-304 1625 CURVE SMOOTH",
"-272 1625 LINE",
"-269 1620 OFFCURVE",
"-267 1618 OFFCURVE",
"-267 1617 CURVE SMOOTH",
"-267 1605 OFFCURVE",
"-279 1585 OFFCURVE",
"-302 1558 CURVE SMOOTH",
"-522 1314 LINE SMOOTH",
"-648 1177 OFFCURVE",
"-719 1109 OFFCURVE",
"-735 1109 CURVE SMOOTH",
"-745 1109 OFFCURVE",
"-751 1115 OFFCURVE",
"-753 1127 CURVE",
"-753 1147 OFFCURVE",
"-661 1260 OFFCURVE",
"-476 1466 CURVE SMOOTH",
"-443 1503 LINE",
"-446 1503 LINE",
"-641 1516 OFFCURVE",
"-819 1617 OFFCURVE",
"-819 1762 CURVE SMOOTH"
);
}
);
width = 0;
}
);
unicode = 00EA;
},
{
glyphname = edieresis;
layers = (
{
layerId = "79C964D5-2A53-42D4-9C27-6B5AFB4964EF";
name = Regular;
paths = (
{
closed = 1;
nodes = (
"-1185 1927 OFFCURVE",
"-1036 2063 OFFCURVE",
"-917 2084 CURVE SMOOTH",
"-906 2086 OFFCURVE",
"-896 2087 OFFCURVE",
"-887 2087 CURVE SMOOTH",
"-819 2087 OFFCURVE",
"-771 2060 OFFCURVE",
"-744 2007 CURVE SMOOTH",
"-735 1989 OFFCURVE",
"-730 1973 OFFCURVE",
"-730 1960 CURVE SMOOTH",
"-730 1887 OFFCURVE",
"-834 1790 OFFCURVE",
"-878 1790 CURVE SMOOTH",
"-885 1790 OFFCURVE",
"-889 1793 OFFCURVE",
"-889 1800 CURVE SMOOTH",
"-889 1807 OFFCURVE",
"-884 1818 OFFCURVE",
"-873 1833 CURVE",
"-868 1841 OFFCURVE",
"-865 1848 OFFCURVE",
"-865 1855 CURVE SMOOTH",
"-865 1900 OFFCURVE",
"-909 1964 OFFCURVE",
"-997 1964 CURVE SMOOTH",
"-1018 1964 OFFCURVE",
"-1030 1961 OFFCURVE",
"-1033 1956 CURVE",
"-1035 1952 LINE",
"-1046 1927 OFFCURVE",
"-1051 1900 OFFCURVE",
"-1051 1869 CURVE SMOOTH",
"-1051 1829 OFFCURVE",
"-1034 1789 OFFCURVE",
"-1000 1749 CURVE SMOOTH",
"-876 1605 OFFCURVE",
"-649 1607 OFFCURVE",
"-498 1607 CURVE SMOOTH",
"-394 1607 OFFCURVE",
"-299 1612 OFFCURVE",
"-214 1622 CURVE SMOOTH",
"-198 1624 OFFCURVE",
"-184 1625 OFFCURVE",
"-171 1625 CURVE",
"-166 1622 OFFCURVE",
"-164 1619 OFFCURVE",
"-164 1614 CURVE SMOOTH",
"-164 1591 OFFCURVE",
"-538 1168 OFFCURVE",
"-619 1115 CURVE SMOOTH",
"-625 1111 OFFCURVE",
"-629 1109 OFFCURVE",
"-632 1109 CURVE SMOOTH",
"-643 1109 OFFCURVE",
"-648 1115 OFFCURVE",
"-649 1127 CURVE",
"-649 1148 OFFCURVE",
"-559 1259 OFFCURVE",
"-378 1460 CURVE SMOOTH",
"-346 1495 LINE",
"-348 1495 LINE",
"-432 1488 OFFCURVE",
"-519 1485 OFFCURVE",
"-608 1484 CURVE SMOOTH",
"-863 1484 OFFCURVE",
"-1037 1532 OFFCURVE",
"-1128 1629 CURVE SMOOTH",
"-1166 1670 OFFCURVE",
"-1185 1714 OFFCURVE",
"-1185 1763 CURVE SMOOTH"
);
}
);
width = 0;
}
);
unicode = 00EB;
},
{
glyphname = Scaron;
layers = (
{
layerId = "79C964D5-2A53-42D4-9C27-6B5AFB4964EF";
name = Regular;
paths = (
{
closed = 1;
nodes = (
"-1731 -801 OFFCURVE",
"-1720 -788 OFFCURVE",
"-1698 -773 CURVE SMOOTH",
"-1565 -680 OFFCURVE",
"-1411 -579 OFFCURVE",
"-1234 -471 CURVE SMOOTH",
"-1093 -384 OFFCURVE",
"-1013 -341 OFFCURVE",
"-992 -341 CURVE SMOOTH",
"-969 -341 OFFCURVE",
"-953 -351 OFFCURVE",
"-946 -372 CURVE",
"-944 -377 OFFCURVE",
"-943 -382 OFFCURVE",
"-943 -388 CURVE SMOOTH",
"-943 -425 OFFCURVE",
"-981 -443 OFFCURVE",
"-1020 -466 CURVE SMOOTH",
"-1243 -597 OFFCURVE",
"-1432 -702 OFFCURVE",
"-1586 -781 CURVE SMOOTH",
"-1655 -816 OFFCURVE",
"-1695 -833 OFFCURVE",
"-1706 -833 CURVE SMOOTH",
"-1719 -833 OFFCURVE",
"-1727 -827 OFFCURVE",
"-1730 -816 CURVE",
"-1731 -815 OFFCURVE",
"-1731 -813 OFFCURVE",
"-1731 -812 CURVE SMOOTH"
);
},
{
closed = 1;
nodes = (
"-1452 -871 OFFCURVE",
"-1441 -857 OFFCURVE",
"-1420 -842 CURVE SMOOTH",
"-1285 -747 OFFCURVE",
"-1129 -646 OFFCURVE",
"-954 -538 CURVE SMOOTH",
"-815 -453 OFFCURVE",
"-736 -411 OFFCURVE",
"-715 -411 CURVE SMOOTH",
"-692 -411 OFFCURVE",
"-677 -420 OFFCURVE",
"-668 -438 CURVE",
"-666 -443 OFFCURVE",
"-665 -449 OFFCURVE",
"-665 -455 CURVE SMOOTH",
"-665 -476 OFFCURVE",
"-678 -496 OFFCURVE",
"-705 -514 CURVE",
"-742 -536 LINE SMOOTH",
"-954 -661 OFFCURVE",
"-1140 -764 OFFCURVE",
"-1299 -846 CURVE SMOOTH",
"-1374 -884 OFFCURVE",
"-1416 -903 OFFCURVE",
"-1427 -903 CURVE SMOOTH",
"-1441 -903 OFFCURVE",
"-1449 -897 OFFCURVE",
"-1451 -886 CURVE",
"-1452 -885 OFFCURVE",
"-1452 -883 OFFCURVE",
"-1452 -882 CURVE SMOOTH"
);
}
);
width = 0;
}
);
unicode = 0160;
},
{
glyphname = scaron;
layers = (
{
layerId = "79C964D5-2A53-42D4-9C27-6B5AFB4964EF";
name = Regular;
paths = (
{
closed = 1;
nodes = (
"-174 695 OFFCURVE",
"-156 724 OFFCURVE",
"-119 761 CURVE SMOOTH",
"-50 828 OFFCURVE",
"34 873 OFFCURVE",
"135 895 CURVE SMOOTH",
"161 900 OFFCURVE",
"187 904 OFFCURVE",
"214 906 CURVE",
"243 906 LINE SMOOTH",
"359 906 OFFCURVE",
"389 800 OFFCURVE",
"389 723 CURVE SMOOTH",
"389 692 OFFCURVE",
"384 657 OFFCURVE",
"373 617 CURVE",
"370 608 OFFCURVE",
"369 601 OFFCURVE",
"369 596 CURVE",
"392 619 LINE SMOOTH",
"496 721 OFFCURVE",
"599 796 OFFCURVE",
"700 843 CURVE SMOOTH",
"765 874 OFFCURVE",
"824 889 OFFCURVE",
"877 889 CURVE SMOOTH",
"997 889 OFFCURVE",
"1083 840 OFFCURVE",
"1135 743 CURVE SMOOTH",
"1159 696 OFFCURVE",
"1171 652 OFFCURVE",
"1171 610 CURVE SMOOTH",
"1171 499 OFFCURVE",
"1121 385 OFFCURVE",
"1021 268 CURVE SMOOTH",
"990 231 OFFCURVE",
"960 201 OFFCURVE",
"931 177 CURVE",
"921 167 LINE",
"921 164 OFFCURVE",
"930 161 OFFCURVE",
"948 160 CURVE SMOOTH",
"1016 155 OFFCURVE",
"1085 129 OFFCURVE",
"1155 82 CURVE SMOOTH",
"1263 5 OFFCURVE",
"1318 -91 OFFCURVE",
"1321 -206 CURVE SMOOTH",
"1321 -374 OFFCURVE",
"1163 -581 OFFCURVE",
"930 -654 CURVE SMOOTH",
"870 -673 OFFCURVE",
"809 -683 OFFCURVE",
"746 -683 CURVE SMOOTH",
"617 -683 OFFCURVE",
"512 -649 OFFCURVE",
"429 -581 CURVE SMOOTH",
"415 -569 OFFCURVE",
"403 -557 OFFCURVE",
"393 -546 CURVE SMOOTH",
"356 -503 OFFCURVE",
"337 -459 OFFCURVE",
"337 -414 CURVE SMOOTH",
"337 -366 OFFCURVE",
"362 -315 OFFCURVE",
"411 -262 CURVE",
"454 -220 OFFCURVE",
"491 -197 OFFCURVE",
"521 -192 CURVE",
"532 -192 OFFCURVE",
"538 -197 OFFCURVE",
"538 -208 CURVE SMOOTH",
"538 -219 OFFCURVE",
"531 -234 OFFCURVE",
"516 -253 CURVE SMOOTH",
"501 -272 OFFCURVE",
"493 -289 OFFCURVE",
"493 -305 CURVE SMOOTH",
"493 -352 OFFCURVE",
"519 -397 OFFCURVE",
"570 -441 CURVE SMOOTH",
"640 -501 OFFCURVE",
"729 -533 OFFCURVE",
"838 -538 CURVE SMOOTH",
"869 -539 LINE SMOOTH",
"961 -539 OFFCURVE",
"1034 -521 OFFCURVE",
"1089 -485 CURVE SMOOTH",
"1136 -453 OFFCURVE",
"1165 -403 OFFCURVE",
"1165 -315 CURVE SMOOTH",
"1165 -206 OFFCURVE",
"1110 -117 OFFCURVE",
"1001 -49 CURVE SMOOTH",
"968 -28 OFFCURVE",
"934 -12 OFFCURVE",
"899 -1 CURVE SMOOTH",
"825 24 OFFCURVE",
"716 39 OFFCURVE",
"573 44 CURVE SMOOTH",
"553 45 OFFCURVE",
"533 45 OFFCURVE",
"514 45 CURVE SMOOTH",
"347 45 OFFCURVE",
"180 26 OFFCURVE",
"11 -11 CURVE",
"-6 -14 OFFCURVE",
"-17 -16 OFFCURVE",
"-22 -16 CURVE SMOOTH",
"-31 -16 OFFCURVE",
"-36 -12 OFFCURVE",
"-36 -3 CURVE SMOOTH",
"-36 12 OFFCURVE",
"-22 36 OFFCURVE",
"5 67 CURVE",
"21 84 OFFCURVE",
"32 97 OFFCURVE",
"37 105 CURVE",
"94 189 OFFCURVE",
"142 298 OFFCURVE",
"182 431 CURVE SMOOTH",
"204 502 OFFCURVE",
"215 555 OFFCURVE",
"215 590 CURVE SMOOTH",
"215 656 OFFCURVE",
"195 702 OFFCURVE",
"154 729 CURVE SMOOTH",
"137 741 OFFCURVE",
"117 747 OFFCURVE",
"94 747 CURVE SMOOTH",
"21 747 OFFCURVE",
"-40 730 OFFCURVE",
"-90 695 CURVE SMOOTH",
"-117 676 OFFCURVE",
"-135 666 OFFCURVE",
"-143 664 CURVE",
"-148 663 OFFCURVE",
"-153 662 OFFCURVE",
"-158 662 CURVE SMOOTH",
"-169 662 OFFCURVE",
"-174 666 OFFCURVE",
"-174 675 CURVE SMOOTH"
);
},
{
closed = 1;
nodes = (
"321 168 LINE",
"413 180 OFFCURVE",
"516 187 OFFCURVE",
"631 188 CURVE SMOOTH",
"760 190 OFFCURVE",
"843 203 OFFCURVE",
"881 228 CURVE",
"888 233 OFFCURVE",
"894 238 OFFCURVE",
"900 244 CURVE SMOOTH",
"955 299 OFFCURVE",
"987 365 OFFCURVE",
"995 440 CURVE SMOOTH",
"996 450 OFFCURVE",
"997 460 OFFCURVE",
"997 470 CURVE SMOOTH",
"997 621 OFFCURVE",
"881 711 OFFCURVE",
"769 727 CURVE SMOOTH",
"761 728 OFFCURVE",
"750 729 OFFCURVE",
"735 729 CURVE SMOOTH",
"628 729 OFFCURVE",
"499 641 OFFCURVE",
"411 533 CURVE SMOOTH",
"366 478 OFFCURVE",
"310 390 OFFCURVE",
"243 269 CURVE SMOOTH",
"208 206 OFFCURVE",
"182 164 OFFCURVE",
"167 142 CURVE"
);
}
);
width = 1261;
}
);
unicode = 0161;
},
{
glyphname = Ydieresis;
layers = (
{
layerId = "79C964D5-2A53-42D4-9C27-6B5AFB4964EF";
name = Regular;
paths = (
{
closed = 1;
nodes = (
"-1212 -932 OFFCURVE",
"-814 -426 OFFCURVE",
"-745 -357 CURVE",
"-729 -343 OFFCURVE",
"-714 -336 OFFCURVE",
"-699 -336 CURVE SMOOTH",
"-679 -336 OFFCURVE",
"-665 -345 OFFCURVE",
"-656 -363 CURVE SMOOTH",
"-653 -369 OFFCURVE",
"-652 -376 OFFCURVE",
"-652 -383 CURVE SMOOTH",
"-652 -402 OFFCURVE",
"-669 -431 OFFCURVE",
"-703 -471 CURVE SMOOTH",
"-815 -599 LINE SMOOTH",
"-932 -734 OFFCURVE",
"-1040 -851 OFFCURVE",
"-1139 -950 CURVE SMOOTH",
"-1163 -974 OFFCURVE",
"-1177 -987 OFFCURVE",
"-1182 -988 CURVE",
"-1184 -989 OFFCURVE",
"-1187 -989 OFFCURVE",
"-1191 -989 CURVE SMOOTH",
"-1202 -989 OFFCURVE",
"-1209 -982 OFFCURVE",
"-1212 -968 CURVE"
);
},
{
closed = 1;
nodes = (
"-931 -997 OFFCURVE",
"-533 -494 OFFCURVE",
"-466 -427 CURVE SMOOTH",
"-451 -413 OFFCURVE",
"-436 -406 OFFCURVE",
"-420 -406 CURVE SMOOTH",
"-392 -406 OFFCURVE",
"-374 -430 OFFCURVE",
"-374 -453 CURVE SMOOTH",
"-374 -472 OFFCURVE",
"-391 -501 OFFCURVE",
"-425 -542 CURVE SMOOTH",
"-537 -669 LINE SMOOTH",
"-658 -809 OFFCURVE",
"-766 -926 OFFCURVE",
"-860 -1020 CURVE",
"-889 -1045 OFFCURVE",
"-906 -1057 OFFCURVE",
"-912 -1058 CURVE",
"-927 -1058 OFFCURVE",
"-934 -1050 OFFCURVE",
"-934 -1034 CURVE"
);
}
);
width = 0;
}
);
unicode = 0178;
},
{
glyphname = florin;
layers = (
{
layerId = "79C964D5-2A53-42D4-9C27-6B5AFB4964EF";
name = Regular;
paths = (
{
closed = 1;
nodes = (
"-1253 1819 OFFCURVE",
"-1243 1834 OFFCURVE",
"-1224 1841 CURVE",
"-1219 1842 OFFCURVE",
"-1213 1843 OFFCURVE",
"-1208 1843 CURVE SMOOTH",
"-1194 1843 OFFCURVE",
"-1180 1838 OFFCURVE",
"-1166 1827 CURVE SMOOTH",
"-1113 1784 OFFCURVE",
"-718 1317 OFFCURVE",
"-634 1208 CURVE SMOOTH",
"-602 1167 OFFCURVE",
"-585 1142 OFFCURVE",
"-583 1135 CURVE",
"-582 1132 OFFCURVE",
"-581 1128 OFFCURVE",
"-581 1125 CURVE",
"-584 1113 OFFCURVE",
"-592 1106 OFFCURVE",
"-603 1103 CURVE",
"-646 1103 OFFCURVE",
"-1141 1636 OFFCURVE",
"-1234 1749 CURVE SMOOTH",
"-1247 1764 OFFCURVE",
"-1253 1780 OFFCURVE",
"-1253 1797 CURVE SMOOTH"
);
},
{
closed = 1;
nodes = (
"-905 1819 OFFCURVE",
"-895 1834 OFFCURVE",
"-876 1841 CURVE",
"-871 1842 OFFCURVE",
"-865 1843 OFFCURVE",
"-859 1843 CURVE SMOOTH",
"-845 1843 OFFCURVE",
"-831 1838 OFFCURVE",
"-818 1827 CURVE",
"-771 1792 OFFCURVE",
"-371 1319 OFFCURVE",
"-286 1208 CURVE SMOOTH",
"-254 1166 OFFCURVE",
"-237 1142 OFFCURVE",
"-235 1135 CURVE",
"-234 1132 OFFCURVE",
"-233 1128 OFFCURVE",
"-233 1125 CURVE SMOOTH",
"-233 1112 OFFCURVE",
"-240 1105 OFFCURVE",
"-255 1103 CURVE",
"-279 1103 OFFCURVE",
"-415 1236 OFFCURVE",
"-662 1502 CURVE SMOOTH",
"-886 1749 LINE SMOOTH",
"-899 1764 OFFCURVE",
"-905 1780 OFFCURVE",
"-905 1797 CURVE SMOOTH"
);
}
);
width = 0;
}
);
unicode = 0192;
},
{
glyphname = quotesinglbase;
layers = (
{
layerId = "79C964D5-2A53-42D4-9C27-6B5AFB4964EF";
name = Regular;
paths = (
{
closed = 1;
nodes = (
"-1562 -35 OFFCURVE",
"-1556 -26 OFFCURVE",
"-1544 -17 CURVE SMOOTH",
"-1489 22 LINE SMOOTH",
"-1372 103 OFFCURVE",
"-1233 193 OFFCURVE",
"-1070 292 CURVE SMOOTH",
"-953 363 OFFCURVE",
"-887 398 OFFCURVE",
"-870 398 CURVE SMOOTH",
"-846 398 OFFCURVE",
"-830 388 OFFCURVE",
"-823 368 CURVE",
"-821 363 OFFCURVE",
"-820 358 OFFCURVE",
"-820 352 CURVE SMOOTH",
"-820 335 OFFCURVE",
"-830 320 OFFCURVE",
"-849 305 CURVE",
"-918 257 OFFCURVE",
"-1299 41 OFFCURVE",
"-1488 -47 CURVE SMOOTH",
"-1515 -60 OFFCURVE",
"-1531 -66 OFFCURVE",
"-1536 -66 CURVE SMOOTH",
"-1553 -66 OFFCURVE",
"-1561 -59 OFFCURVE",
"-1562 -44 CURVE"
);
},
{
closed = 1;
nodes = (
"-1284 -105 OFFCURVE",
"-1277 -96 OFFCURVE",
"-1263 -85 CURVE SMOOTH",
"-1254 -78 OFFCURVE",
"-1237 -65 OFFCURVE",
"-1211 -47 CURVE SMOOTH",
"-1075 47 OFFCURVE",
"-932 139 OFFCURVE",
"-781 230 CURVE SMOOTH",
"-673 295 OFFCURVE",
"-610 328 OFFCURVE",
"-592 328 CURVE SMOOTH",
"-569 328 OFFCURVE",
"-554 319 OFFCURVE",
"-545 301 CURVE",
"-543 296 OFFCURVE",
"-542 290 OFFCURVE",
"-542 284 CURVE SMOOTH",
"-542 267 OFFCURVE",
"-551 250 OFFCURVE",
"-570 235 CURVE",
"-627 194 OFFCURVE",
"-969 1 OFFCURVE",
"-1197 -110 CURVE SMOOTH",
"-1233 -127 OFFCURVE",
"-1253 -136 OFFCURVE",
"-1258 -136 CURVE SMOOTH",
"-1275 -136 OFFCURVE",
"-1283 -129 OFFCURVE",
"-1284 -114 CURVE"
);
}
);
width = 0;
}
);
unicode = 201A;
},
{
glyphname = quotedblbase;
layers = (
{
layerId = "79C964D5-2A53-42D4-9C27-6B5AFB4964EF";
name = Regular;
paths = (
{
closed = 1;
nodes = (
"-1102 1838 OFFCURVE",
"-1093 1853 OFFCURVE",
"-1074 1861 CURVE",
"-1071 1862 OFFCURVE",
"-1069 1863 OFFCURVE",
"-1066 1864 CURVE",
"-1054 1864 LINE SMOOTH",
"-1040 1864 OFFCURVE",
"-1026 1857 OFFCURVE",
"-1011 1844 CURVE",
"-940 1773 OFFCURVE",
"-601 1279 OFFCURVE",
"-533 1171 CURVE SMOOTH",
"-519 1150 OFFCURVE",
"-512 1135 OFFCURVE",
"-512 1127 CURVE SMOOTH",
"-512 1123 LINE SMOOTH",
"-512 1098 OFFCURVE",
"-540 1097 OFFCURVE",
"-563 1120 CURVE",
"-596 1157 LINE SMOOTH",
"-713 1290 OFFCURVE",
"-852 1463 OFFCURVE",
"-1013 1674 CURVE SMOOTH",
"-1089 1776 LINE SMOOTH",
"-1098 1789 OFFCURVE",
"-1102 1802 OFFCURVE",
"-1102 1817 CURVE SMOOTH"
);
},
{
closed = 1;
nodes = (
"-754 1838 OFFCURVE",
"-745 1853 OFFCURVE",
"-726 1861 CURVE",
"-723 1862 OFFCURVE",
"-721 1863 OFFCURVE",
"-718 1864 CURVE",
"-706 1864 LINE SMOOTH",
"-692 1864 OFFCURVE",
"-678 1857 OFFCURVE",
"-663 1844 CURVE",
"-582 1763 OFFCURVE",
"-163 1154 OFFCURVE",
"-163 1127 CURVE SMOOTH",
"-163 1111 OFFCURVE",
"-170 1103 OFFCURVE",
"-185 1103 CURVE SMOOTH",
"-194 1103 OFFCURVE",
"-204 1109 OFFCURVE",
"-216 1122 CURVE SMOOTH",
"-247 1157 LINE SMOOTH",
"-343 1266 OFFCURVE",
"-467 1418 OFFCURVE",
"-619 1613 CURVE SMOOTH",
"-682 1694 OFFCURVE",
"-722 1748 OFFCURVE",
"-740 1776 CURVE SMOOTH",
"-749 1789 OFFCURVE",
"-754 1802 OFFCURVE",
"-754 1817 CURVE SMOOTH"
);
}
);
width = 0;
}
);
unicode = 201E;
},
{
glyphname = dagger;
layers = (
{
layerId = "79C964D5-2A53-42D4-9C27-6B5AFB4964EF";
name = Regular;
paths = (
{
closed = 1;
nodes = (
"-940 1701 OFFCURVE",
"-930 1716 OFFCURVE",
"-909 1722 CURVE",
"-904 1723 OFFCURVE",
"-900 1724 OFFCURVE",
"-895 1724 CURVE SMOOTH",
"-878 1724 OFFCURVE",
"-862 1718 OFFCURVE",
"-849 1707 CURVE SMOOTH",
"-725 1598 OFFCURVE",
"-320 1158 OFFCURVE",
"-320 1126 CURVE SMOOTH",
"-320 1113 OFFCURVE",
"-327 1106 OFFCURVE",
"-342 1104 CURVE",
"-365 1104 OFFCURVE",
"-495 1218 OFFCURVE",
"-732 1445 CURVE SMOOTH",
"-852 1562 OFFCURVE",
"-916 1625 OFFCURVE",
"-923 1634 CURVE SMOOTH",
"-934 1648 OFFCURVE",
"-940 1663 OFFCURVE",
"-940 1678 CURVE SMOOTH"
);
},
{
closed = 1;
nodes = (
"-591 1702 OFFCURVE",
"-581 1716 OFFCURVE",
"-561 1722 CURVE",
"-556 1723 OFFCURVE",
"-552 1724 OFFCURVE",
"-547 1724 CURVE SMOOTH",
"-526 1724 OFFCURVE",
"-498 1707 OFFCURVE",
"-463 1672 CURVE",
"-459 1669 OFFCURVE",
"-409 1617 OFFCURVE",
"-313 1517 CURVE SMOOTH",
"-86 1280 OFFCURVE",
"28 1150 OFFCURVE",
"28 1126 CURVE SMOOTH",
"28 1113 OFFCURVE",
"21 1106 OFFCURVE",
"6 1104 CURVE",
"-17 1104 OFFCURVE",
"-147 1218 OFFCURVE",
"-384 1445 CURVE SMOOTH",
"-505 1562 OFFCURVE",
"-568 1625 OFFCURVE",
"-574 1634 CURVE",
"-585 1649 OFFCURVE",
"-591 1664 OFFCURVE",
"-591 1679 CURVE SMOOTH"
);
}
);
width = 0;
}
);
unicode = 2020;
},
{
glyphname = bullet;
layers = (
{
layerId = "79C964D5-2A53-42D4-9C27-6B5AFB4964EF";
name = Regular;
paths = (
{
closed = 1;
nodes = (
"-696 -1455 LINE SMOOTH",
"-696 -1448 OFFCURVE",
"-685 -1424 OFFCURVE",
"-662 -1384 CURVE SMOOTH",
"-531 -1154 OFFCURVE",
"-316 -908 OFFCURVE",
"-17 -646 CURVE SMOOTH",
"208 -451 LINE SMOOTH",
"453 -240 OFFCURVE",
"625 -72 OFFCURVE",
"724 53 CURVE SMOOTH",
"752 88 OFFCURVE",
"778 123 OFFCURVE",
"802 160 CURVE SMOOTH",
"879 277 OFFCURVE",
"917 388 OFFCURVE",
"917 493 CURVE SMOOTH",
"917 654 OFFCURVE",
"805 746 OFFCURVE",
"677 746 CURVE SMOOTH",
"469 746 OFFCURVE",
"386 579 OFFCURVE",
"277 350 CURVE SMOOTH",
"222 237 OFFCURVE",
"178 157 OFFCURVE",
"144 112 CURVE",
"129 94 LINE SMOOTH",
"78 33 OFFCURVE",
"33 -3 OFFCURVE",
"-6 -14 CURVE",
"-11 -15 OFFCURVE",
"-16 -16 OFFCURVE",
"-20 -16 CURVE SMOOTH",
"-31 -16 OFFCURVE",
"-36 -12 OFFCURVE",
"-36 -3 CURVE SMOOTH",
"-36 8 OFFCURVE",
"-30 21 OFFCURVE",
"-17 36 CURVE SMOOTH",
"62 123 OFFCURVE",
"117 264 OFFCURVE",
"172 436 CURVE SMOOTH",
"320 903 OFFCURVE",
"413 1188 OFFCURVE",
"450 1290 CURVE SMOOTH",
"473 1351 OFFCURVE",
"500 1417 OFFCURVE",
"532 1490 CURVE SMOOTH",
"669 1802 OFFCURVE",
"833 2063 OFFCURVE",
"1024 2272 CURVE SMOOTH",
"1150 2409 OFFCURVE",
"1233 2478 OFFCURVE",
"1274 2478 CURVE SMOOTH",
"1284 2478 OFFCURVE",
"1289 2474 OFFCURVE",
"1289 2465 CURVE SMOOTH",
"1289 2442 OFFCURVE",
"1266 2410 OFFCURVE",
"1220 2368 CURVE SMOOTH",
"960 2130 OFFCURVE",
"742 1758 OFFCURVE",
"566 1253 CURVE SMOOTH",
"501 1056 LINE",
"384 679 LINE",
"386 679 OFFCURVE",
"401 692 OFFCURVE",
"428 719 CURVE SMOOTH",
"557 844 OFFCURVE",
"691 906 OFFCURVE",
"829 906 CURVE SMOOTH",
"937 906 OFFCURVE",
"1014 859 OFFCURVE",
"1060 765 CURVE SMOOTH",
"1081 721 OFFCURVE",
"1091 679 OFFCURVE",
"1091 639 CURVE SMOOTH",
"1091 436 OFFCURVE",
"992 273 OFFCURVE",
"889 136 CURVE SMOOTH",
"771 -22 OFFCURVE",
"625 -177 OFFCURVE",
"452 -329 CURVE SMOOTH",
"-41 -761 LINE SMOOTH",
"-218 -922 OFFCURVE",
"-355 -1074 OFFCURVE",
"-450 -1217 CURVE SMOOTH",
"-468 -1244 LINE",
"-481 -1265 LINE",
"-417 -1245 LINE",
"-387 -1238 OFFCURVE",
"-355 -1235 OFFCURVE",
"-320 -1235 CURVE SMOOTH",
"-264 -1235 OFFCURVE",
"-182 -1248 OFFCURVE",
"-73 -1273 CURVE SMOOTH",
"36 -1298 OFFCURVE",
"119 -1311 OFFCURVE",
"174 -1311 CURVE SMOOTH",
"265 -1311 OFFCURVE",
"349 -1281 OFFCURVE",
"426 -1222 CURVE SMOOTH",
"508 -1158 LINE",
"528 -1145 OFFCURVE",
"545 -1138 OFFCURVE",
"560 -1138 CURVE SMOOTH",
"569 -1138 OFFCURVE",
"574 -1142 OFFCURVE",
"574 -1151 CURVE SMOOTH",
"574 -1152 LINE SMOOTH",
"574 -1175 OFFCURVE",
"546 -1213 OFFCURVE",
"489 -1264 CURVE SMOOTH",
"406 -1339 OFFCURVE",
"315 -1396 OFFCURVE",
"217 -1434 CURVE SMOOTH",
"154 -1459 OFFCURVE",
"95 -1471 OFFCURVE",
"42 -1471 CURVE SMOOTH",
"-26 -1471 OFFCURVE",
"-116 -1458 OFFCURVE",
"-228 -1432 CURVE SMOOTH",
"-330 -1409 OFFCURVE",
"-406 -1396 OFFCURVE",
"-456 -1395 CURVE SMOOTH",
"-466 -1395 LINE SMOOTH",
"-528 -1395 OFFCURVE",
"-576 -1409 OFFCURVE",
"-611 -1437 CURVE SMOOTH",
"-633 -1454 OFFCURVE",
"-647 -1463 OFFCURVE",
"-653 -1466 CURVE",
"-662 -1469 OFFCURVE",
"-671 -1471 OFFCURVE",
"-681 -1471 CURVE SMOOTH",
"-691 -1471 OFFCURVE",
"-696 -1467 OFFCURVE",
"-696 -1459 CURVE SMOOTH"
);
}
);
width = 993;
}
);
unicode = 2022;
},
{
glyphname = ellipsis;
layers = (
{
layerId = "79C964D5-2A53-42D4-9C27-6B5AFB4964EF";
name = Regular;
paths = (
{
closed = 1;
nodes = (
"-1179 1750 OFFCURVE",
"-1169 1765 OFFCURVE",
"-1148 1771 CURVE SMOOTH",
"-1144 1772 OFFCURVE",
"-1139 1773 OFFCURVE",
"-1134 1773 CURVE SMOOTH",
"-1119 1773 OFFCURVE",
"-1104 1767 OFFCURVE",
"-1089 1756 CURVE",
"-1012 1693 OFFCURVE",
"-627 1277 OFFCURVE",
"-538 1172 CURVE SMOOTH",
"-519 1151 OFFCURVE",
"-510 1136 OFFCURVE",
"-510 1127 CURVE",
"-513 1114 OFFCURVE",
"-521 1107 OFFCURVE",
"-533 1104 CURVE",
"-580 1104 OFFCURVE",
"-1029 1545 OFFCURVE",
"-1156 1677 CURVE SMOOTH",
"-1162 1683 LINE",
"-1173 1697 OFFCURVE",
"-1179 1712 OFFCURVE",
"-1179 1727 CURVE SMOOTH"
);
},
{
closed = 1;
nodes = (
"-831 1750 OFFCURVE",
"-821 1764 OFFCURVE",
"-802 1771 CURVE",
"-797 1772 OFFCURVE",
"-791 1773 OFFCURVE",
"-786 1773 CURVE SMOOTH",
"-771 1773 OFFCURVE",
"-756 1767 OFFCURVE",
"-741 1756 CURVE",
"-664 1693 OFFCURVE",
"-279 1277 OFFCURVE",
"-190 1172 CURVE SMOOTH",
"-171 1151 OFFCURVE",
"-162 1136 OFFCURVE",
"-162 1127 CURVE",
"-165 1114 OFFCURVE",
"-173 1107 OFFCURVE",
"-185 1104 CURVE",
"-207 1104 OFFCURVE",
"-328 1209 OFFCURVE",
"-547 1420 CURVE SMOOTH",
"-566 1438 LINE SMOOTH",
"-667 1534 OFFCURVE",
"-747 1614 OFFCURVE",
"-808 1677 CURVE SMOOTH",
"-814 1683 LINE",
"-825 1697 OFFCURVE",
"-831 1712 OFFCURVE",
"-831 1727 CURVE SMOOTH"
);
}
);
width = 0;
}
);
unicode = 2026;
},
{
glyphname = perthousand;
layers = (
{
layerId = "79C964D5-2A53-42D4-9C27-6B5AFB4964EF";
name = Regular;
paths = (
{
closed = 1;
nodes = (
"-2138 -994 OFFCURVE",
"-2128 -981 OFFCURVE",
"-2107 -964 CURVE SMOOTH",
"-1983 -861 OFFCURVE",
"-1799 -722 OFFCURVE",
"-1556 -547 CURVE SMOOTH",
"-1372 -414 OFFCURVE",
"-1270 -346 OFFCURVE",
"-1250 -342 CURVE SMOOTH",
"-1245 -341 OFFCURVE",
"-1240 -340 OFFCURVE",
"-1235 -340 CURVE SMOOTH",
"-1212 -340 OFFCURVE",
"-1197 -351 OFFCURVE",
"-1190 -372 CURVE",
"-1189 -377 OFFCURVE",
"-1188 -382 OFFCURVE",
"-1188 -387 CURVE SMOOTH",
"-1188 -406 OFFCURVE",
"-1202 -427 OFFCURVE",
"-1230 -448 CURVE",
"-1255 -465 LINE",
"-1377 -551 LINE SMOOTH",
"-1590 -700 OFFCURVE",
"-1781 -828 OFFCURVE",
"-1951 -935 CURVE SMOOTH",
"-2047 -996 OFFCURVE",
"-2102 -1026 OFFCURVE",
"-2115 -1026 CURVE SMOOTH",
"-2128 -1026 OFFCURVE",
"-2135 -1020 OFFCURVE",
"-2137 -1009 CURVE",
"-2138 -1008 OFFCURVE",
"-2138 -1006 OFFCURVE",
"-2138 -1005 CURVE SMOOTH"
);
},
{
closed = 1;
nodes = (
"-1859 -1064 OFFCURVE",
"-1851 -1052 OFFCURVE",
"-1835 -1038 CURVE SMOOTH",
"-1610 -850 OFFCURVE",
"-1016 -421 OFFCURVE",
"-972 -412 CURVE SMOOTH",
"-967 -411 OFFCURVE",
"-961 -410 OFFCURVE",
"-956 -410 CURVE SMOOTH",
"-934 -410 OFFCURVE",
"-919 -419 OFFCURVE",
"-912 -438 CURVE SMOOTH",
"-910 -443 OFFCURVE",
"-909 -449 OFFCURVE",
"-909 -455 CURVE SMOOTH",
"-909 -474 OFFCURVE",
"-920 -493 OFFCURVE",
"-942 -510 CURVE SMOOTH",
"-947 -514 OFFCURVE",
"-957 -521 OFFCURVE",
"-972 -531 CURVE SMOOTH",
"-1304 -763 LINE SMOOTH",
"-1504 -900 OFFCURVE",
"-1658 -999 OFFCURVE",
"-1766 -1062 CURVE SMOOTH",
"-1805 -1084 OFFCURVE",
"-1828 -1095 OFFCURVE",
"-1835 -1095 CURVE SMOOTH",
"-1850 -1095 OFFCURVE",
"-1858 -1088 OFFCURVE",
"-1859 -1073 CURVE"
);
}
);
width = 0;
}
);
unicode = 2030;
},
{
glyphname = guilsinglleft;
layers = (
{
layerId = "79C964D5-2A53-42D4-9C27-6B5AFB4964EF";
name = Regular;
paths = (
{
closed = 1;
nodes = (
"-1560 -917 OFFCURVE",
"-1555 -908 OFFCURVE",
"-1545 -898 CURVE SMOOTH",
"-1522 -874 LINE SMOOTH",
"-1399 -749 OFFCURVE",
"-1270 -628 OFFCURVE",
"-1136 -509 CURVE SMOOTH",
"-1007 -395 OFFCURVE",
"-930 -338 OFFCURVE",
"-906 -338 CURVE SMOOTH",
"-883 -338 OFFCURVE",
"-869 -348 OFFCURVE",
"-862 -369 CURVE",
"-860 -374 OFFCURVE",
"-859 -379 OFFCURVE",
"-859 -385 CURVE SMOOTH",
"-859 -400 OFFCURVE",
"-867 -416 OFFCURVE",
"-883 -432 CURVE SMOOTH",
"-893 -442 OFFCURVE",
"-923 -469 OFFCURVE",
"-974 -512 CURVE SMOOTH",
"-1123 -638 OFFCURVE",
"-1266 -753 OFFCURVE",
"-1404 -858 CURVE SMOOTH",
"-1481 -917 OFFCURVE",
"-1525 -947 OFFCURVE",
"-1536 -948 CURVE",
"-1552 -948 OFFCURVE",
"-1560 -941 OFFCURVE",
"-1560 -926 CURVE SMOOTH"
);
},
{
closed = 1;
nodes = (
"-1281 -986 OFFCURVE",
"-1275 -975 OFFCURVE",
"-1264 -963 CURVE",
"-1244 -943 LINE SMOOTH",
"-1122 -821 OFFCURVE",
"-993 -700 OFFCURVE",
"-857 -580 CURVE SMOOTH",
"-728 -465 OFFCURVE",
"-651 -408 OFFCURVE",
"-628 -408 CURVE SMOOTH",
"-605 -408 OFFCURVE",
"-590 -418 OFFCURVE",
"-583 -437 CURVE",
"-582 -442 OFFCURVE",
"-581 -448 OFFCURVE",
"-581 -453 CURVE SMOOTH",
"-581 -470 OFFCURVE",
"-589 -486 OFFCURVE",
"-606 -503 CURVE SMOOTH",
"-617 -514 OFFCURVE",
"-647 -540 OFFCURVE",
"-696 -582 CURVE SMOOTH",
"-843 -707 OFFCURVE",
"-984 -821 OFFCURVE",
"-1121 -926 CURVE SMOOTH",
"-1200 -987 OFFCURVE",
"-1246 -1017 OFFCURVE",
"-1257 -1018 CURVE",
"-1271 -1016 OFFCURVE",
"-1279 -1008 OFFCURVE",
"-1282 -995 CURVE"
);
}
);
width = 0;
}
);
unicode = 2039;
},
{
glyphname = uniE000;
layers = (
{
layerId = "79C964D5-2A53-42D4-9C27-6B5AFB4964EF";
name = Regular;
paths = (
{
closed = 1;
nodes = (
"0 875 LINE",
"875 875 LINE",
"875 0 LINE",
"0 0 LINE"
);
}
